<svg id="a0b87f60-3db5-419f-b262-93cfa4cc4313" data-name="圖層 1" xmlns="http://www.w3.org/2000/svg" viewBox="0 0 134.65 221.79"><defs><style>.a33a0e62-ebe7-4374-8620-0092049a7faf{fill:#263238;}.acf8fdba-155d-42a7-b876-02c08b993fde{fill:#fff3e0;}.f5124fca-b051-4691-98e0-e79e49b47ad5{fill:#ffe0b2;}.ac4e6473-944b-4ff9-ae20-412eab9ed9b9{fill:#1976d2;}.f7e0796d-da60-41ab-8803-5060f7e90020{fill:#eceff1;}.a9139a41-da04-4d31-9f0d-685cb3e670db{fill:#ffa000;}.a5a7be5d-78ac-4b51-b3e9-27a595cb7093{fill:#2196f3;}.b6aec587-0f7c-403c-a994-f053258997c8{fill:#cfd8dc;}.b511be3f-f46b-45d0-bade-5cfdbe880dfc{fill:#ffc107;}.fa63a9bc-d8b4-40fd-9c5e-f05784510c21{fill:#fff;}.aea7900d-332f-4ef2-8061-19b0a2f16d39{fill:#ffcc80;}.f87c70ec-36dc-4d7d-9bcf-b20004c6f521{fill:#ef5350;}.ee806085-ea2a-410a-b6be-d67fd1ba503f{fill:#e53935;}.e5b56f76-a35e-4a00-ba3f-31368ebe185e{fill:#ff8a65;}</style></defs><rect class="a33a0e62-ebe7-4374-8620-0092049a7faf" x="126.73" y="102.98" width="7.92" height="7.92"/><rect class="a33a0e62-ebe7-4374-8620-0092049a7faf" x="126.73" y="95.05" width="7.92" height="7.93"/><rect class="a33a0e62-ebe7-4374-8620-0092049a7faf" x="118.81" y="110.9" width="7.92" height="7.92"/><rect class="acf8fdba-155d-42a7-b876-02c08b993fde" x="118.81" y="102.98" width="7.92" height="7.92"/><rect class="f5124fca-b051-4691-98e0-e79e49b47ad5" x="118.81" y="95.05" width="7.92" height="7.93"/><rect class="a33a0e62-ebe7-4374-8620-0092049a7faf" x="118.81" y="87.13" width="7.92" height="7.92"/><rect class="a33a0e62-ebe7-4374-8620-0092049a7faf" x="110.89" y="118.82" width="7.92" height="7.92"/><rect class="acf8fdba-155d-42a7-b876-02c08b993fde" x="110.89" y="110.9" width="7.92" height="7.92"/><rect class="f5124fca-b051-4691-98e0-e79e49b47ad5" x="110.89" y="102.98" width="7.92" height="7.92"/><rect class="a33a0e62-ebe7-4374-8620-0092049a7faf" x="110.89" y="95.05" width="7.92" height="7.93"/><rect class="a33a0e62-ebe7-4374-8620-0092049a7faf" x="110.89" y="87.13" width="7.92" height="7.92"/><rect class="a33a0e62-ebe7-4374-8620-0092049a7faf" x="110.89" y="79.21" width="7.92" height="7.92"/><rect class="a33a0e62-ebe7-4374-8620-0092049a7faf" x="102.97" y="166.34" width="7.92" height="7.92"/><rect class="a33a0e62-ebe7-4374-8620-0092049a7faf" x="102.97" y="158.42" width="7.92" height="7.92"/><rect class="a33a0e62-ebe7-4374-8620-0092049a7faf" x="102.97" y="150.5" width="7.92" height="7.92"/><rect class="a33a0e62-ebe7-4374-8620-0092049a7faf" x="102.97" y="126.74" width="7.92" height="7.92"/><rect class="a33a0e62-ebe7-4374-8620-0092049a7faf" x="102.97" y="118.82" width="7.92" height="7.92"/><rect class="f5124fca-b051-4691-98e0-e79e49b47ad5" x="102.97" y="110.9" width="7.92" height="7.92"/><rect class="a33a0e62-ebe7-4374-8620-0092049a7faf" x="102.97" y="102.98" width="7.92" height="7.92"/><rect class="a33a0e62-ebe7-4374-8620-0092049a7faf" x="102.97" y="95.05" width="7.92" height="7.93"/><rect class="acf8fdba-155d-42a7-b876-02c08b993fde" x="102.97" y="87.13" width="7.92" height="7.92"/><rect class="f5124fca-b051-4691-98e0-e79e49b47ad5" x="102.97" y="79.21" width="7.92" height="7.92"/><rect class="a33a0e62-ebe7-4374-8620-0092049a7faf" x="102.97" y="71.29" width="7.92" height="7.92"/><rect class="a33a0e62-ebe7-4374-8620-0092049a7faf" x="102.97" y="47.53" width="7.92" height="7.92"/><rect class="a33a0e62-ebe7-4374-8620-0092049a7faf" x="102.97" y="39.61" width="7.92" height="7.92"/><rect class="a33a0e62-ebe7-4374-8620-0092049a7faf" x="102.97" y="31.69" width="7.92" height="7.92"/><rect class="a33a0e62-ebe7-4374-8620-0092049a7faf" x="102.97" y="23.77" width="7.92" height="7.92"/><rect class="a33a0e62-ebe7-4374-8620-0092049a7faf" x="102.97" y="15.85" width="7.92" height="7.92"/><rect class="a33a0e62-ebe7-4374-8620-0092049a7faf" x="102.97" y="7.93" width="7.92" height="7.92"/><rect class="a33a0e62-ebe7-4374-8620-0092049a7faf" x="95.05" y="166.34" width="7.92" height="7.92"/><rect class="ac4e6473-944b-4ff9-ae20-412eab9ed9b9" x="95.05" y="158.42" width="7.92" height="7.92"/><rect class="a33a0e62-ebe7-4374-8620-0092049a7faf" x="95.05" y="150.5" width="7.92" height="7.92"/><rect class="a33a0e62-ebe7-4374-8620-0092049a7faf" x="95.05" y="142.58" width="7.92" height="7.92"/><rect class="a33a0e62-ebe7-4374-8620-0092049a7faf" x="95.05" y="134.66" width="7.92" height="7.92"/><rect class="f7e0796d-da60-41ab-8803-5060f7e90020" x="95.05" y="126.74" width="7.92" height="7.92"/><rect class="f7e0796d-da60-41ab-8803-5060f7e90020" x="95.05" y="118.82" width="7.92" height="7.92"/><rect class="a33a0e62-ebe7-4374-8620-0092049a7faf" x="95.05" y="110.9" width="7.92" height="7.92"/><rect class="a33a0e62-ebe7-4374-8620-0092049a7faf" x="95.05" y="102.98" width="7.92" height="7.92"/><rect class="a33a0e62-ebe7-4374-8620-0092049a7faf" x="95.05" y="95.05" width="7.92" height="7.93"/><rect class="a33a0e62-ebe7-4374-8620-0092049a7faf" x="95.05" y="87.13" width="7.92" height="7.92"/><rect class="a33a0e62-ebe7-4374-8620-0092049a7faf" x="95.05" y="79.21" width="7.92" height="7.92"/><rect class="a33a0e62-ebe7-4374-8620-0092049a7faf" x="95.05" y="71.29" width="7.92" height="7.92"/><rect class="a33a0e62-ebe7-4374-8620-0092049a7faf" x="95.05" y="63.37" width="7.92" height="7.92"/><rect class="a33a0e62-ebe7-4374-8620-0092049a7faf" x="95.05" y="55.45" width="7.92" height="7.92"/><rect class="a9139a41-da04-4d31-9f0d-685cb3e670db" x="95.05" y="47.53" width="7.92" height="7.92"/><rect class="a9139a41-da04-4d31-9f0d-685cb3e670db" x="95.05" y="39.61" width="7.92" height="7.92"/><rect class="a9139a41-da04-4d31-9f0d-685cb3e670db" x="95.05" y="31.69" width="7.92" height="7.92"/><rect class="a9139a41-da04-4d31-9f0d-685cb3e670db" x="95.05" y="23.77" width="7.92" height="7.92"/><rect class="a9139a41-da04-4d31-9f0d-685cb3e670db" x="95.05" y="15.85" width="7.92" height="7.92"/><rect class="a9139a41-da04-4d31-9f0d-685cb3e670db" x="95.05" y="7.93" width="7.92" height="7.92"/><rect class="a33a0e62-ebe7-4374-8620-0092049a7faf" x="95.05" width="7.92" height="7.93"/><rect class="a33a0e62-ebe7-4374-8620-0092049a7faf" x="87.13" y="166.34" width="7.92" height="7.92"/><rect class="ac4e6473-944b-4ff9-ae20-412eab9ed9b9" x="87.13" y="158.42" width="7.92" height="7.92"/><rect class="a5a7be5d-78ac-4b51-b3e9-27a595cb7093" x="87.13" y="150.5" width="7.92" height="7.92"/><rect class="ac4e6473-944b-4ff9-ae20-412eab9ed9b9" x="87.13" y="142.58" width="7.92" height="7.92"/><rect class="a33a0e62-ebe7-4374-8620-0092049a7faf" x="87.13" y="134.66" width="7.92" height="7.92"/><rect class="b6aec587-0f7c-403c-a994-f053258997c8" x="87.13" y="126.74" width="7.92" height="7.92"/><rect class="a33a0e62-ebe7-4374-8620-0092049a7faf" x="87.13" y="118.82" width="7.92" height="7.92"/><rect class="a33a0e62-ebe7-4374-8620-0092049a7faf" x="87.13" y="110.9" width="7.92" height="7.92"/><rect class="acf8fdba-155d-42a7-b876-02c08b993fde" x="87.13" y="102.98" width="7.92" height="7.92"/><rect class="acf8fdba-155d-42a7-b876-02c08b993fde" x="87.13" y="95.05" width="7.92" height="7.93"/><rect class="acf8fdba-155d-42a7-b876-02c08b993fde" x="87.13" y="87.13" width="7.92" height="7.92"/><rect class="acf8fdba-155d-42a7-b876-02c08b993fde" x="87.13" y="79.21" width="7.92" height="7.92"/><rect class="f5124fca-b051-4691-98e0-e79e49b47ad5" x="87.13" y="71.29" width="7.92" height="7.92"/><rect class="b511be3f-f46b-45d0-bade-5cfdbe880dfc" x="87.13" y="63.37" width="7.92" height="7.92"/><rect class="a9139a41-da04-4d31-9f0d-685cb3e670db" x="87.13" y="55.45" width="7.92" height="7.92"/><rect class="a9139a41-da04-4d31-9f0d-685cb3e670db" x="87.13" y="47.53" width="7.92" height="7.92"/><rect class="b511be3f-f46b-45d0-bade-5cfdbe880dfc" x="87.13" y="39.61" width="7.92" height="7.92"/><rect class="b511be3f-f46b-45d0-bade-5cfdbe880dfc" x="87.13" y="31.69" width="7.92" height="7.92"/><rect class="b511be3f-f46b-45d0-bade-5cfdbe880dfc" x="87.13" y="23.77" width="7.92" height="7.92"/><rect class="b511be3f-f46b-45d0-bade-5cfdbe880dfc" x="87.13" y="15.85" width="7.92" height="7.92"/><rect class="b511be3f-f46b-45d0-bade-5cfdbe880dfc" x="87.13" y="7.93" width="7.92" height="7.92"/><rect class="a33a0e62-ebe7-4374-8620-0092049a7faf" x="79.21" y="205.95" width="7.92" height="7.92"/><rect class="a33a0e62-ebe7-4374-8620-0092049a7faf" x="79.21" y="198.02" width="7.92" height="7.93"/><rect class="a33a0e62-ebe7-4374-8620-0092049a7faf" x="79.21" y="190.1" width="7.92" height="7.92"/><rect class="a33a0e62-ebe7-4374-8620-0092049a7faf" x="79.21" y="182.18" width="7.92" height="7.92"/><rect class="a33a0e62-ebe7-4374-8620-0092049a7faf" x="79.21" y="174.26" width="7.92" height="7.92"/><rect class="a33a0e62-ebe7-4374-8620-0092049a7faf" x="79.21" y="166.34" width="7.92" height="7.92"/><rect class="a33a0e62-ebe7-4374-8620-0092049a7faf" x="79.21" y="158.42" width="7.92" height="7.92"/><rect class="a33a0e62-ebe7-4374-8620-0092049a7faf" x="79.21" y="150.5" width="7.92" height="7.92"/><rect class="a33a0e62-ebe7-4374-8620-0092049a7faf" x="79.21" y="142.58" width="7.92" height="7.92"/><rect class="a33a0e62-ebe7-4374-8620-0092049a7faf" x="79.21" y="134.66" width="7.92" height="7.92"/><rect class="a33a0e62-ebe7-4374-8620-0092049a7faf" x="79.21" y="126.74" width="7.92" height="7.92"/><rect class="a33a0e62-ebe7-4374-8620-0092049a7faf" x="79.21" y="118.82" width="7.92" height="7.92"/><rect class="acf8fdba-155d-42a7-b876-02c08b993fde" x="79.21" y="110.9" width="7.92" height="7.92"/><rect class="acf8fdba-155d-42a7-b876-02c08b993fde" x="79.21" y="102.98" width="7.92" height="7.92"/><rect class="acf8fdba-155d-42a7-b876-02c08b993fde" x="79.21" y="95.05" width="7.92" height="7.93"/><rect class="acf8fdba-155d-42a7-b876-02c08b993fde" x="79.21" y="87.13" width="7.92" height="7.92"/><rect class="fa63a9bc-d8b4-40fd-9c5e-f05784510c21" x="79.21" y="79.21" width="7.92" height="7.92"/><rect class="a33a0e62-ebe7-4374-8620-0092049a7faf" x="79.21" y="71.29" width="7.92" height="7.92"/><rect class="f5124fca-b051-4691-98e0-e79e49b47ad5" x="79.21" y="63.37" width="7.92" height="7.92"/><rect class="f5124fca-b051-4691-98e0-e79e49b47ad5" x="79.21" y="55.45" width="7.92" height="7.92"/><rect class="aea7900d-332f-4ef2-8061-19b0a2f16d39" x="79.21" y="47.53" width="7.92" height="7.92"/><rect class="a33a0e62-ebe7-4374-8620-0092049a7faf" x="79.21" y="39.61" width="7.92" height="7.92"/><rect class="a33a0e62-ebe7-4374-8620-0092049a7faf" x="79.21" y="31.69" width="7.92" height="7.92"/><rect class="a33a0e62-ebe7-4374-8620-0092049a7faf" x="79.21" y="23.77" width="7.92" height="7.92"/><rect class="a33a0e62-ebe7-4374-8620-0092049a7faf" x="79.21" y="15.85" width="7.92" height="7.92"/><rect class="a33a0e62-ebe7-4374-8620-0092049a7faf" x="79.21" y="7.93" width="7.92" height="7.92"/><rect class="a33a0e62-ebe7-4374-8620-0092049a7faf" x="71.29" y="213.87" width="7.92" height="7.92"/><rect class="f87c70ec-36dc-4d7d-9bcf-b20004c6f521" x="71.29" y="205.95" width="7.92" height="7.92"/><rect class="f87c70ec-36dc-4d7d-9bcf-b20004c6f521" x="71.29" y="198.02" width="7.92" height="7.93"/><rect class="f87c70ec-36dc-4d7d-9bcf-b20004c6f521" x="71.29" y="190.1" width="7.92" height="7.92"/><rect class="f87c70ec-36dc-4d7d-9bcf-b20004c6f521" x="71.29" y="182.18" width="7.92" height="7.92"/><rect class="ee806085-ea2a-410a-b6be-d67fd1ba503f" x="71.29" y="174.26" width="7.92" height="7.92"/><rect class="a33a0e62-ebe7-4374-8620-0092049a7faf" x="71.29" y="166.34" width="7.92" height="7.92"/><rect class="f7e0796d-da60-41ab-8803-5060f7e90020" x="71.29" y="158.42" width="7.92" height="7.92"/><rect class="b6aec587-0f7c-403c-a994-f053258997c8" x="71.29" y="150.5" width="7.92" height="7.92"/><rect class="a5a7be5d-78ac-4b51-b3e9-27a595cb7093" x="71.29" y="142.58" width="7.92" height="7.92"/><rect class="a5a7be5d-78ac-4b51-b3e9-27a595cb7093" x="71.29" y="134.66" width="7.92" height="7.92"/><rect class="ac4e6473-944b-4ff9-ae20-412eab9ed9b9" x="71.29" y="126.74" width="7.92" height="7.92"/><rect class="a33a0e62-ebe7-4374-8620-0092049a7faf" x="71.29" y="118.82" width="7.92" height="7.92"/><rect class="acf8fdba-155d-42a7-b876-02c08b993fde" x="71.29" y="110.9" width="7.92" height="7.92"/><rect class="acf8fdba-155d-42a7-b876-02c08b993fde" x="71.29" y="102.98" width="7.92" height="7.92"/><rect class="acf8fdba-155d-42a7-b876-02c08b993fde" x="71.29" y="95.05" width="7.92" height="7.93"/><rect class="acf8fdba-155d-42a7-b876-02c08b993fde" x="71.29" y="87.13" width="7.92" height="7.92"/><rect class="a5a7be5d-78ac-4b51-b3e9-27a595cb7093" x="71.29" y="79.21" width="7.92" height="7.92"/><rect class="a33a0e62-ebe7-4374-8620-0092049a7faf" x="71.29" y="71.29" width="7.92" height="7.92"/><rect class="acf8fdba-155d-42a7-b876-02c08b993fde" x="71.29" y="63.37" width="7.92" height="7.92"/><rect class="f5124fca-b051-4691-98e0-e79e49b47ad5" x="71.29" y="55.45" width="7.92" height="7.92"/><rect class="a33a0e62-ebe7-4374-8620-0092049a7faf" x="71.29" y="47.53" width="7.92" height="7.92"/><rect class="a9139a41-da04-4d31-9f0d-685cb3e670db" x="71.29" y="39.61" width="7.92" height="7.92"/><rect class="a9139a41-da04-4d31-9f0d-685cb3e670db" x="71.29" y="31.69" width="7.92" height="7.92"/><rect class="a9139a41-da04-4d31-9f0d-685cb3e670db" x="71.29" y="23.77" width="7.92" height="7.92"/><rect class="a9139a41-da04-4d31-9f0d-685cb3e670db" x="71.29" y="15.85" width="7.92" height="7.92"/><rect class="a9139a41-da04-4d31-9f0d-685cb3e670db" x="71.29" y="7.93" width="7.92" height="7.92"/><rect class="a33a0e62-ebe7-4374-8620-0092049a7faf" x="71.29" width="7.92" height="7.93"/><rect class="a33a0e62-ebe7-4374-8620-0092049a7faf" x="63.37" y="213.87" width="7.92" height="7.92"/><rect class="f87c70ec-36dc-4d7d-9bcf-b20004c6f521" x="63.37" y="205.95" width="7.92" height="7.92"/><rect class="f87c70ec-36dc-4d7d-9bcf-b20004c6f521" x="63.37" y="198.02" width="7.92" height="7.93"/><rect class="f87c70ec-36dc-4d7d-9bcf-b20004c6f521" x="63.37" y="190.1" width="7.92" height="7.92"/><rect class="f87c70ec-36dc-4d7d-9bcf-b20004c6f521" x="63.37" y="182.18" width="7.92" height="7.92"/><rect class="ee806085-ea2a-410a-b6be-d67fd1ba503f" x="63.37" y="174.26" width="7.92" height="7.92"/><rect class="a33a0e62-ebe7-4374-8620-0092049a7faf" x="63.37" y="166.34" width="7.92" height="7.92"/><rect class="f7e0796d-da60-41ab-8803-5060f7e90020" x="63.37" y="158.42" width="7.92" height="7.92"/><rect class="f7e0796d-da60-41ab-8803-5060f7e90020" x="63.37" y="150.5" width="7.92" height="7.92"/><rect class="f7e0796d-da60-41ab-8803-5060f7e90020" x="63.37" y="142.58" width="7.92" height="7.92"/><rect class="f7e0796d-da60-41ab-8803-5060f7e90020" x="63.37" y="134.66" width="7.92" height="7.92"/><rect class="b6aec587-0f7c-403c-a994-f053258997c8" x="63.37" y="126.74" width="7.92" height="7.92"/><rect class="a33a0e62-ebe7-4374-8620-0092049a7faf" x="63.37" y="118.82" width="7.92" height="7.92"/><rect class="acf8fdba-155d-42a7-b876-02c08b993fde" x="63.37" y="110.9" width="7.92" height="7.92"/><rect class="acf8fdba-155d-42a7-b876-02c08b993fde" x="63.37" y="102.98" width="7.92" height="7.92"/><rect class="acf8fdba-155d-42a7-b876-02c08b993fde" x="63.37" y="95.05" width="7.92" height="7.93"/><rect class="acf8fdba-155d-42a7-b876-02c08b993fde" x="63.37" y="87.13" width="7.92" height="7.92"/><rect class="fa63a9bc-d8b4-40fd-9c5e-f05784510c21" x="63.37" y="79.21" width="7.92" height="7.92"/><rect class="a33a0e62-ebe7-4374-8620-0092049a7faf" x="63.37" y="71.29" width="7.92" height="7.92"/><rect class="acf8fdba-155d-42a7-b876-02c08b993fde" x="63.37" y="63.37" width="7.92" height="7.92"/><rect class="f5124fca-b051-4691-98e0-e79e49b47ad5" x="63.37" y="55.45" width="7.92" height="7.92"/><rect class="a9139a41-da04-4d31-9f0d-685cb3e670db" x="63.37" y="47.53" width="7.92" height="7.92"/><rect class="b511be3f-f46b-45d0-bade-5cfdbe880dfc" x="63.37" y="39.61" width="7.92" height="7.92"/><rect class="b511be3f-f46b-45d0-bade-5cfdbe880dfc" x="63.37" y="31.69" width="7.92" height="7.92"/><rect class="b511be3f-f46b-45d0-bade-5cfdbe880dfc" x="63.37" y="23.77" width="7.92" height="7.92"/><rect class="b511be3f-f46b-45d0-bade-5cfdbe880dfc" x="63.37" y="15.85" width="7.92" height="7.92"/><rect class="b511be3f-f46b-45d0-bade-5cfdbe880dfc" x="63.37" y="7.93" width="7.92" height="7.92"/><rect class="a33a0e62-ebe7-4374-8620-0092049a7faf" x="55.45" y="213.87" width="7.92" height="7.92"/><rect class="a33a0e62-ebe7-4374-8620-0092049a7faf" x="55.45" y="205.95" width="7.92" height="7.92"/><rect class="a33a0e62-ebe7-4374-8620-0092049a7faf" x="55.45" y="198.02" width="7.92" height="7.93"/><rect class="a33a0e62-ebe7-4374-8620-0092049a7faf" x="55.45" y="190.1" width="7.92" height="7.92"/><rect class="a33a0e62-ebe7-4374-8620-0092049a7faf" x="55.45" y="182.18" width="7.92" height="7.92"/><rect class="a33a0e62-ebe7-4374-8620-0092049a7faf" x="55.45" y="174.26" width="7.92" height="7.92"/><rect class="a33a0e62-ebe7-4374-8620-0092049a7faf" x="55.45" y="166.34" width="7.92" height="7.92"/><rect class="f7e0796d-da60-41ab-8803-5060f7e90020" x="55.45" y="158.42" width="7.92" height="7.92"/><rect class="f7e0796d-da60-41ab-8803-5060f7e90020" x="55.45" y="150.5" width="7.92" height="7.92"/><rect class="f7e0796d-da60-41ab-8803-5060f7e90020" x="55.45" y="142.58" width="7.92" height="7.92"/><rect class="f7e0796d-da60-41ab-8803-5060f7e90020" x="55.45" y="134.66" width="7.92" height="7.92"/><rect class="b6aec587-0f7c-403c-a994-f053258997c8" x="55.45" y="126.74" width="7.92" height="7.92"/><rect class="a33a0e62-ebe7-4374-8620-0092049a7faf" x="55.45" y="118.82" width="7.92" height="7.92"/><rect class="f5124fca-b051-4691-98e0-e79e49b47ad5" x="55.45" y="110.9" width="7.92" height="7.92"/><rect class="e5b56f76-a35e-4a00-ba3f-31368ebe185e" x="55.45" y="102.98" width="7.92" height="7.92"/><rect class="e5b56f76-a35e-4a00-ba3f-31368ebe185e" x="55.45" y="95.05" width="7.92" height="7.93"/><rect class="acf8fdba-155d-42a7-b876-02c08b993fde" x="55.45" y="87.13" width="7.92" height="7.92"/><rect class="f5124fca-b051-4691-98e0-e79e49b47ad5" x="55.45" y="79.21" width="7.92" height="7.92"/><rect class="f5124fca-b051-4691-98e0-e79e49b47ad5" x="55.45" y="71.29" width="7.92" height="7.92"/><rect class="acf8fdba-155d-42a7-b876-02c08b993fde" x="55.45" y="63.37" width="7.92" height="7.92"/><rect class="f5124fca-b051-4691-98e0-e79e49b47ad5" x="55.45" y="55.45" width="7.92" height="7.92"/><rect class="aea7900d-332f-4ef2-8061-19b0a2f16d39" x="55.45" y="47.53" width="7.92" height="7.92"/><rect class="a33a0e62-ebe7-4374-8620-0092049a7faf" x="55.45" y="39.61" width="7.92" height="7.92"/><rect class="a33a0e62-ebe7-4374-8620-0092049a7faf" x="55.45" y="31.69" width="7.92" height="7.92"/><rect class="a33a0e62-ebe7-4374-8620-0092049a7faf" x="55.45" y="23.77" width="7.92" height="7.92"/><rect class="a33a0e62-ebe7-4374-8620-0092049a7faf" x="55.45" y="15.85" width="7.92" height="7.92"/><rect class="a33a0e62-ebe7-4374-8620-0092049a7faf" x="55.45" y="7.93" width="7.92" height="7.92"/><rect class="a33a0e62-ebe7-4374-8620-0092049a7faf" x="47.53" y="213.87" width="7.92" height="7.92"/><rect class="f87c70ec-36dc-4d7d-9bcf-b20004c6f521" x="47.53" y="205.95" width="7.92" height="7.92"/><rect class="f87c70ec-36dc-4d7d-9bcf-b20004c6f521" x="47.53" y="198.02" width="7.92" height="7.93"/><rect class="f87c70ec-36dc-4d7d-9bcf-b20004c6f521" x="47.53" y="190.1" width="7.92" height="7.92"/><rect class="f87c70ec-36dc-4d7d-9bcf-b20004c6f521" x="47.53" y="182.18" width="7.92" height="7.92"/><rect class="ee806085-ea2a-410a-b6be-d67fd1ba503f" x="47.53" y="174.26" width="7.92" height="7.92"/><rect class="a33a0e62-ebe7-4374-8620-0092049a7faf" x="47.53" y="166.34" width="7.92" height="7.92"/><rect class="f7e0796d-da60-41ab-8803-5060f7e90020" x="47.53" y="158.42" width="7.92" height="7.92"/><rect class="f7e0796d-da60-41ab-8803-5060f7e90020" x="47.53" y="150.5" width="7.92" height="7.92"/><rect class="f7e0796d-da60-41ab-8803-5060f7e90020" x="47.53" y="142.58" width="7.92" height="7.92"/><rect class="f7e0796d-da60-41ab-8803-5060f7e90020" x="47.53" y="134.66" width="7.92" height="7.92"/><rect class="b6aec587-0f7c-403c-a994-f053258997c8" x="47.53" y="126.74" width="7.92" height="7.92"/><rect class="a33a0e62-ebe7-4374-8620-0092049a7faf" x="47.53" y="118.82" width="7.92" height="7.92"/><rect class="acf8fdba-155d-42a7-b876-02c08b993fde" x="47.53" y="110.9" width="7.92" height="7.92"/><rect class="acf8fdba-155d-42a7-b876-02c08b993fde" x="47.53" y="102.98" width="7.92" height="7.92"/><rect class="acf8fdba-155d-42a7-b876-02c08b993fde" x="47.53" y="95.05" width="7.92" height="7.93"/><rect class="acf8fdba-155d-42a7-b876-02c08b993fde" x="47.53" y="87.13" width="7.92" height="7.92"/><rect class="fa63a9bc-d8b4-40fd-9c5e-f05784510c21" x="47.53" y="79.21" width="7.92" height="7.92"/><rect class="a33a0e62-ebe7-4374-8620-0092049a7faf" x="47.53" y="71.29" width="7.92" height="7.92"/><rect class="acf8fdba-155d-42a7-b876-02c08b993fde" x="47.53" y="63.37" width="7.92" height="7.92"/><rect class="f5124fca-b051-4691-98e0-e79e49b47ad5" x="47.53" y="55.45" width="7.92" height="7.92"/><rect class="a33a0e62-ebe7-4374-8620-0092049a7faf" x="47.53" y="47.53" width="7.92" height="7.92"/><rect class="a9139a41-da04-4d31-9f0d-685cb3e670db" x="47.53" y="39.61" width="7.92" height="7.92"/><rect class="a9139a41-da04-4d31-9f0d-685cb3e670db" x="47.53" y="31.69" width="7.92" height="7.92"/><rect class="a33a0e62-ebe7-4374-8620-0092049a7faf" x="47.53" y="23.77" width="7.92" height="7.92"/><rect class="a33a0e62-ebe7-4374-8620-0092049a7faf" x="47.53" width="7.92" height="7.93"/><rect class="a33a0e62-ebe7-4374-8620-0092049a7faf" x="39.6" y="213.87" width="7.93" height="7.92"/><rect class="f87c70ec-36dc-4d7d-9bcf-b20004c6f521" x="39.6" y="205.95" width="7.93" height="7.92"/><rect class="f87c70ec-36dc-4d7d-9bcf-b20004c6f521" x="39.6" y="198.02" width="7.93" height="7.93"/><rect class="f87c70ec-36dc-4d7d-9bcf-b20004c6f521" x="39.6" y="190.1" width="7.93" height="7.92"/><rect class="f87c70ec-36dc-4d7d-9bcf-b20004c6f521" x="39.6" y="182.18" width="7.93" height="7.92"/><rect class="ee806085-ea2a-410a-b6be-d67fd1ba503f" x="39.6" y="174.26" width="7.93" height="7.92"/><rect class="a33a0e62-ebe7-4374-8620-0092049a7faf" x="39.6" y="166.34" width="7.93" height="7.92"/><rect class="f7e0796d-da60-41ab-8803-5060f7e90020" x="39.6" y="158.42" width="7.93" height="7.92"/><rect class="b6aec587-0f7c-403c-a994-f053258997c8" x="39.6" y="150.5" width="7.93" height="7.92"/><rect class="a5a7be5d-78ac-4b51-b3e9-27a595cb7093" x="39.6" y="142.58" width="7.93" height="7.92"/><rect class="a5a7be5d-78ac-4b51-b3e9-27a595cb7093" x="39.6" y="134.66" width="7.93" height="7.92"/><rect class="ac4e6473-944b-4ff9-ae20-412eab9ed9b9" x="39.6" y="126.74" width="7.93" height="7.92"/><rect class="a33a0e62-ebe7-4374-8620-0092049a7faf" x="39.6" y="118.82" width="7.93" height="7.92"/><rect class="acf8fdba-155d-42a7-b876-02c08b993fde" x="39.6" y="110.9" width="7.93" height="7.92"/><rect class="acf8fdba-155d-42a7-b876-02c08b993fde" x="39.6" y="102.98" width="7.93" height="7.92"/><rect class="acf8fdba-155d-42a7-b876-02c08b993fde" x="39.6" y="95.05" width="7.93" height="7.93"/><rect class="acf8fdba-155d-42a7-b876-02c08b993fde" x="39.6" y="87.13" width="7.93" height="7.92"/><rect class="a5a7be5d-78ac-4b51-b3e9-27a595cb7093" x="39.6" y="79.21" width="7.93" height="7.92"/><rect class="a33a0e62-ebe7-4374-8620-0092049a7faf" x="39.6" y="71.29" width="7.93" height="7.92"/><rect class="acf8fdba-155d-42a7-b876-02c08b993fde" x="39.6" y="63.37" width="7.93" height="7.92"/><rect class="f5124fca-b051-4691-98e0-e79e49b47ad5" x="39.6" y="55.45" width="7.93" height="7.92"/><rect class="a9139a41-da04-4d31-9f0d-685cb3e670db" x="39.6" y="47.53" width="7.93" height="7.92"/><rect class="b511be3f-f46b-45d0-bade-5cfdbe880dfc" x="39.6" y="39.61" width="7.93" height="7.92"/><rect class="b511be3f-f46b-45d0-bade-5cfdbe880dfc" x="39.6" y="31.69" width="7.93" height="7.92"/><rect class="a33a0e62-ebe7-4374-8620-0092049a7faf" x="39.6" y="23.77" width="7.93" height="7.92"/><rect class="a33a0e62-ebe7-4374-8620-0092049a7faf" x="31.68" y="205.95" width="7.92" height="7.92"/><rect class="a33a0e62-ebe7-4374-8620-0092049a7faf" x="31.68" y="198.02" width="7.92" height="7.93"/><rect class="a33a0e62-ebe7-4374-8620-0092049a7faf" x="31.68" y="190.1" width="7.92" height="7.92"/><rect class="a33a0e62-ebe7-4374-8620-0092049a7faf" x="31.68" y="182.18" width="7.92" height="7.92"/><rect class="a33a0e62-ebe7-4374-8620-0092049a7faf" x="31.68" y="174.26" width="7.92" height="7.92"/><rect class="a33a0e62-ebe7-4374-8620-0092049a7faf" x="31.68" y="166.34" width="7.92" height="7.92"/><rect class="a33a0e62-ebe7-4374-8620-0092049a7faf" x="31.68" y="158.42" width="7.92" height="7.92"/><rect class="a33a0e62-ebe7-4374-8620-0092049a7faf" x="31.68" y="150.5" width="7.92" height="7.92"/><rect class="a33a0e62-ebe7-4374-8620-0092049a7faf" x="31.68" y="142.58" width="7.92" height="7.92"/><rect class="a33a0e62-ebe7-4374-8620-0092049a7faf" x="31.68" y="134.66" width="7.92" height="7.92"/><rect class="a33a0e62-ebe7-4374-8620-0092049a7faf" x="31.68" y="126.74" width="7.92" height="7.92"/><rect class="a33a0e62-ebe7-4374-8620-0092049a7faf" x="31.68" y="118.82" width="7.92" height="7.92"/><rect class="acf8fdba-155d-42a7-b876-02c08b993fde" x="31.68" y="110.9" width="7.92" height="7.92"/><rect class="acf8fdba-155d-42a7-b876-02c08b993fde" x="31.68" y="102.98" width="7.92" height="7.92"/><rect class="acf8fdba-155d-42a7-b876-02c08b993fde" x="31.68" y="95.05" width="7.92" height="7.93"/><rect class="acf8fdba-155d-42a7-b876-02c08b993fde" x="31.68" y="87.13" width="7.92" height="7.92"/><rect class="fa63a9bc-d8b4-40fd-9c5e-f05784510c21" x="31.68" y="79.21" width="7.92" height="7.92"/><rect class="a33a0e62-ebe7-4374-8620-0092049a7faf" x="31.68" y="71.29" width="7.92" height="7.92"/><rect class="f5124fca-b051-4691-98e0-e79e49b47ad5" x="31.68" y="63.37" width="7.92" height="7.92"/><rect class="f5124fca-b051-4691-98e0-e79e49b47ad5" x="31.68" y="55.45" width="7.92" height="7.92"/><rect class="b511be3f-f46b-45d0-bade-5cfdbe880dfc" x="31.68" y="47.53" width="7.92" height="7.92"/><rect class="b511be3f-f46b-45d0-bade-5cfdbe880dfc" x="31.68" y="39.61" width="7.92" height="7.92"/><rect class="b511be3f-f46b-45d0-bade-5cfdbe880dfc" x="31.68" y="31.69" width="7.92" height="7.92"/><rect class="a33a0e62-ebe7-4374-8620-0092049a7faf" x="31.68" y="23.77" width="7.92" height="7.92"/><rect class="a33a0e62-ebe7-4374-8620-0092049a7faf" x="23.76" y="182.18" width="7.92" height="7.92"/><rect class="acf8fdba-155d-42a7-b876-02c08b993fde" x="23.76" y="174.26" width="7.92" height="7.92"/><rect class="acf8fdba-155d-42a7-b876-02c08b993fde" x="23.76" y="166.34" width="7.92" height="7.92"/><rect class="acf8fdba-155d-42a7-b876-02c08b993fde" x="23.76" y="158.42" width="7.92" height="7.92"/><rect class="f5124fca-b051-4691-98e0-e79e49b47ad5" x="23.76" y="150.5" width="7.92" height="7.92"/><rect class="a33a0e62-ebe7-4374-8620-0092049a7faf" x="23.76" y="142.58" width="7.92" height="7.92"/><rect class="f7e0796d-da60-41ab-8803-5060f7e90020" x="23.76" y="134.66" width="7.92" height="7.92"/><rect class="b6aec587-0f7c-403c-a994-f053258997c8" x="23.76" y="126.74" width="7.92" height="7.92"/><rect class="a33a0e62-ebe7-4374-8620-0092049a7faf" x="23.76" y="118.82" width="7.92" height="7.92"/><rect class="a33a0e62-ebe7-4374-8620-0092049a7faf" x="23.76" y="110.9" width="7.92" height="7.92"/><rect class="acf8fdba-155d-42a7-b876-02c08b993fde" x="23.76" y="102.98" width="7.92" height="7.92"/><rect class="acf8fdba-155d-42a7-b876-02c08b993fde" x="23.76" y="95.05" width="7.92" height="7.93"/><rect class="acf8fdba-155d-42a7-b876-02c08b993fde" x="23.76" y="87.13" width="7.92" height="7.92"/><rect class="acf8fdba-155d-42a7-b876-02c08b993fde" x="23.76" y="79.21" width="7.92" height="7.92"/><rect class="f5124fca-b051-4691-98e0-e79e49b47ad5" x="23.76" y="71.29" width="7.92" height="7.92"/><rect class="b511be3f-f46b-45d0-bade-5cfdbe880dfc" x="23.76" y="63.37" width="7.92" height="7.92"/><rect class="b511be3f-f46b-45d0-bade-5cfdbe880dfc" x="23.76" y="55.45" width="7.92" height="7.92"/><rect class="b511be3f-f46b-45d0-bade-5cfdbe880dfc" x="23.76" y="47.53" width="7.92" height="7.92"/><rect class="b511be3f-f46b-45d0-bade-5cfdbe880dfc" x="23.76" y="39.61" width="7.92" height="7.92"/><rect class="a33a0e62-ebe7-4374-8620-0092049a7faf" x="23.76" y="31.69" width="7.92" height="7.92"/><rect class="a33a0e62-ebe7-4374-8620-0092049a7faf" x="23.76" y="23.77" width="7.92" height="7.92"/><rect class="a33a0e62-ebe7-4374-8620-0092049a7faf" x="15.84" y="174.26" width="7.92" height="7.92"/><rect class="a33a0e62-ebe7-4374-8620-0092049a7faf" x="15.84" y="166.34" width="7.92" height="7.92"/><rect class="a33a0e62-ebe7-4374-8620-0092049a7faf" x="15.84" y="158.42" width="7.92" height="7.92"/><rect class="a33a0e62-ebe7-4374-8620-0092049a7faf" x="15.84" y="150.5" width="7.92" height="7.92"/><rect class="a33a0e62-ebe7-4374-8620-0092049a7faf" x="15.84" y="142.58" width="7.92" height="7.92"/><rect class="a33a0e62-ebe7-4374-8620-0092049a7faf" x="15.84" y="134.66" width="7.92" height="7.92"/><rect class="a33a0e62-ebe7-4374-8620-0092049a7faf" x="15.84" y="126.74" width="7.92" height="7.92"/><rect class="a33a0e62-ebe7-4374-8620-0092049a7faf" x="15.84" y="102.98" width="7.92" height="7.92"/><rect class="a33a0e62-ebe7-4374-8620-0092049a7faf" x="15.84" y="95.05" width="7.92" height="7.93"/><rect class="a33a0e62-ebe7-4374-8620-0092049a7faf" x="15.84" y="87.13" width="7.92" height="7.92"/><rect class="a33a0e62-ebe7-4374-8620-0092049a7faf" x="15.84" y="79.21" width="7.92" height="7.92"/><rect class="a33a0e62-ebe7-4374-8620-0092049a7faf" x="15.84" y="71.29" width="7.92" height="7.92"/><rect class="a33a0e62-ebe7-4374-8620-0092049a7faf" x="15.84" y="63.37" width="7.92" height="7.92"/><rect class="a33a0e62-ebe7-4374-8620-0092049a7faf" x="15.84" y="55.45" width="7.92" height="7.92"/><rect class="a33a0e62-ebe7-4374-8620-0092049a7faf" x="15.84" y="47.53" width="7.92" height="7.92"/><rect class="a33a0e62-ebe7-4374-8620-0092049a7faf" x="15.84" y="39.61" width="7.92" height="7.92"/><rect class="a33a0e62-ebe7-4374-8620-0092049a7faf" x="15.84" y="15.85" width="7.92" height="7.92"/><rect class="a33a0e62-ebe7-4374-8620-0092049a7faf" x="7.92" y="95.05" width="7.92" height="7.93"/><rect class="acf8fdba-155d-42a7-b876-02c08b993fde" x="7.92" y="87.13" width="7.92" height="7.92"/><rect class="f5124fca-b051-4691-98e0-e79e49b47ad5" x="7.92" y="79.21" width="7.92" height="7.92"/><rect class="a33a0e62-ebe7-4374-8620-0092049a7faf" x="7.92" y="71.29" width="7.92" height="7.92"/><rect class="a33a0e62-ebe7-4374-8620-0092049a7faf" y="87.13" width="7.92" height="7.92"/><rect class="a33a0e62-ebe7-4374-8620-0092049a7faf" y="79.21" width="7.92" height="7.92"/></svg>