<svg id="a9b4f088-8aa8-4f18-a745-8f3a2104c290" data-name="圖層 1" xmlns="http://www.w3.org/2000/svg" viewBox="0 0 150.5 213.86"><defs><style>.ab445494-538f-4aee-b5ce-7a30c5bd52a1{fill:#263238;}.f3b270fa-3f75-45ac-a02e-03456d00768e{fill:#546e7a;}.fc4b3220-e88c-48ab-9ff0-727cbdefeb74{fill:#455a64;}.e7085288-c92c-4d4a-9ef4-424354874435{fill:#ffccbc;}.a64a06be-58c1-4af3-a16c-f77db095a569{fill:#ffab91;}.bc72995b-2bf9-4d81-9703-110c3dea0435{fill:#fff;}.ee743f4a-73d6-4eb4-b8d9-9a8a0b75c8eb{fill:#3f51b5;}.b2699e27-a33d-40a9-aacb-4b1cb3adcf16{fill:#303f9f;}.a74674ee-fb83-4cc6-bb1b-bcdaced8c5a8{fill:#673ab7;}.bb4a97ef-4f9a-485f-a15e-6ecdef21fc6a{fill:#512da8;}.b169f815-0d31-4510-9646-1f2be00b0e8a{fill:#37474f;}.a791238c-590d-4bf3-a5b0-2abff6e4335c{fill:#26a69a;}.a2bcb57c-1996-4bd6-b810-bd07ea193a01{fill:#ff8a65;}</style></defs><rect class="ab445494-538f-4aee-b5ce-7a30c5bd52a1" x="142.58" y="142.58" width="7.92" height="7.92"/><rect class="ab445494-538f-4aee-b5ce-7a30c5bd52a1" x="134.66" y="150.5" width="7.92" height="7.92"/><rect class="ab445494-538f-4aee-b5ce-7a30c5bd52a1" x="134.66" y="71.29" width="7.92" height="7.92"/><rect class="ab445494-538f-4aee-b5ce-7a30c5bd52a1" x="134.66" y="63.37" width="7.92" height="7.92"/><rect class="ab445494-538f-4aee-b5ce-7a30c5bd52a1" x="134.66" y="55.45" width="7.92" height="7.92"/><rect class="ab445494-538f-4aee-b5ce-7a30c5bd52a1" x="126.74" y="150.5" width="7.92" height="7.92"/><rect class="ab445494-538f-4aee-b5ce-7a30c5bd52a1" x="126.74" y="142.58" width="7.92" height="7.92"/><rect class="ab445494-538f-4aee-b5ce-7a30c5bd52a1" x="126.74" y="134.66" width="7.92" height="7.92"/><rect class="ab445494-538f-4aee-b5ce-7a30c5bd52a1" x="126.74" y="126.74" width="7.92" height="7.92"/><rect class="ab445494-538f-4aee-b5ce-7a30c5bd52a1" x="126.74" y="118.81" width="7.92" height="7.93"/><rect class="ab445494-538f-4aee-b5ce-7a30c5bd52a1" x="126.74" y="95.05" width="7.92" height="7.92"/><rect class="ab445494-538f-4aee-b5ce-7a30c5bd52a1" x="126.74" y="87.13" width="7.92" height="7.92"/><rect class="ab445494-538f-4aee-b5ce-7a30c5bd52a1" x="126.74" y="79.21" width="7.92" height="7.92"/><rect class="ab445494-538f-4aee-b5ce-7a30c5bd52a1" x="126.74" y="71.29" width="7.92" height="7.92"/><rect class="f3b270fa-3f75-45ac-a02e-03456d00768e" x="126.74" y="63.37" width="7.92" height="7.92"/><rect class="f3b270fa-3f75-45ac-a02e-03456d00768e" x="126.74" y="55.45" width="7.92" height="7.92"/><rect class="ab445494-538f-4aee-b5ce-7a30c5bd52a1" x="126.74" y="47.53" width="7.92" height="7.92"/><rect class="ab445494-538f-4aee-b5ce-7a30c5bd52a1" x="126.74" y="39.61" width="7.92" height="7.92"/><rect class="ab445494-538f-4aee-b5ce-7a30c5bd52a1" x="126.74" y="31.69" width="7.92" height="7.92"/><rect class="ab445494-538f-4aee-b5ce-7a30c5bd52a1" x="118.81" y="150.5" width="7.93" height="7.92"/><rect class="f3b270fa-3f75-45ac-a02e-03456d00768e" x="118.81" y="142.58" width="7.93" height="7.92"/><rect class="f3b270fa-3f75-45ac-a02e-03456d00768e" x="118.81" y="134.66" width="7.93" height="7.92"/><rect class="f3b270fa-3f75-45ac-a02e-03456d00768e" x="118.81" y="126.74" width="7.93" height="7.92"/><rect class="f3b270fa-3f75-45ac-a02e-03456d00768e" x="118.81" y="118.81" width="7.93" height="7.93"/><rect class="ab445494-538f-4aee-b5ce-7a30c5bd52a1" x="118.81" y="110.89" width="7.93" height="7.92"/><rect class="ab445494-538f-4aee-b5ce-7a30c5bd52a1" x="118.81" y="102.97" width="7.93" height="7.92"/><rect class="fc4b3220-e88c-48ab-9ff0-727cbdefeb74" x="118.81" y="95.05" width="7.93" height="7.92"/><rect class="ab445494-538f-4aee-b5ce-7a30c5bd52a1" x="118.81" y="87.13" width="7.93" height="7.92"/><rect class="e7085288-c92c-4d4a-9ef4-424354874435" x="118.81" y="79.21" width="7.93" height="7.92"/><rect class="a64a06be-58c1-4af3-a16c-f77db095a569" x="118.81" y="71.29" width="7.93" height="7.92"/><rect class="ab445494-538f-4aee-b5ce-7a30c5bd52a1" x="118.81" y="63.37" width="7.93" height="7.92"/><rect class="f3b270fa-3f75-45ac-a02e-03456d00768e" x="118.81" y="55.45" width="7.93" height="7.92"/><rect class="fc4b3220-e88c-48ab-9ff0-727cbdefeb74" x="118.81" y="47.53" width="7.93" height="7.92"/><rect class="fc4b3220-e88c-48ab-9ff0-727cbdefeb74" x="118.81" y="39.61" width="7.93" height="7.92"/><rect class="f3b270fa-3f75-45ac-a02e-03456d00768e" x="118.81" y="31.69" width="7.93" height="7.92"/><rect class="ab445494-538f-4aee-b5ce-7a30c5bd52a1" x="118.81" y="23.76" width="7.93" height="7.93"/><rect class="ab445494-538f-4aee-b5ce-7a30c5bd52a1" x="110.89" y="166.34" width="7.92" height="7.92"/><rect class="ab445494-538f-4aee-b5ce-7a30c5bd52a1" x="110.89" y="158.42" width="7.92" height="7.92"/><rect class="ab445494-538f-4aee-b5ce-7a30c5bd52a1" x="110.89" y="150.5" width="7.92" height="7.92"/><rect class="ab445494-538f-4aee-b5ce-7a30c5bd52a1" x="110.89" y="142.58" width="7.92" height="7.92"/><rect class="ab445494-538f-4aee-b5ce-7a30c5bd52a1" x="110.89" y="134.66" width="7.92" height="7.92"/><rect class="ab445494-538f-4aee-b5ce-7a30c5bd52a1" x="110.89" y="126.74" width="7.92" height="7.92"/><rect class="ab445494-538f-4aee-b5ce-7a30c5bd52a1" x="110.89" y="118.81" width="7.92" height="7.93"/><rect class="f3b270fa-3f75-45ac-a02e-03456d00768e" x="110.89" y="110.89" width="7.92" height="7.92"/><rect class="f3b270fa-3f75-45ac-a02e-03456d00768e" x="110.89" y="102.97" width="7.92" height="7.92"/><rect class="ab445494-538f-4aee-b5ce-7a30c5bd52a1" x="110.89" y="95.05" width="7.92" height="7.92"/><rect class="ab445494-538f-4aee-b5ce-7a30c5bd52a1" x="110.89" y="87.13" width="7.92" height="7.92"/><rect class="ab445494-538f-4aee-b5ce-7a30c5bd52a1" x="110.89" y="79.21" width="7.92" height="7.92"/><rect class="ab445494-538f-4aee-b5ce-7a30c5bd52a1" x="110.89" y="71.29" width="7.92" height="7.92"/><rect class="ab445494-538f-4aee-b5ce-7a30c5bd52a1" x="110.89" y="63.37" width="7.92" height="7.92"/><rect class="ab445494-538f-4aee-b5ce-7a30c5bd52a1" x="110.89" y="55.45" width="7.92" height="7.92"/><rect class="ab445494-538f-4aee-b5ce-7a30c5bd52a1" x="110.89" y="47.53" width="7.92" height="7.92"/><rect class="ab445494-538f-4aee-b5ce-7a30c5bd52a1" x="110.89" y="39.61" width="7.92" height="7.92"/><rect class="fc4b3220-e88c-48ab-9ff0-727cbdefeb74" x="110.89" y="31.69" width="7.92" height="7.92"/><rect class="f3b270fa-3f75-45ac-a02e-03456d00768e" x="110.89" y="23.76" width="7.92" height="7.93"/><rect class="ab445494-538f-4aee-b5ce-7a30c5bd52a1" x="110.89" y="15.84" width="7.92" height="7.92"/><rect class="ab445494-538f-4aee-b5ce-7a30c5bd52a1" x="102.97" y="174.26" width="7.92" height="7.92"/><rect class="e7085288-c92c-4d4a-9ef4-424354874435" x="102.97" y="166.34" width="7.92" height="7.92"/><rect class="e7085288-c92c-4d4a-9ef4-424354874435" x="102.97" y="158.42" width="7.92" height="7.92"/><rect class="e7085288-c92c-4d4a-9ef4-424354874435" x="102.97" y="150.5" width="7.92" height="7.92"/><rect class="e7085288-c92c-4d4a-9ef4-424354874435" x="102.97" y="142.58" width="7.92" height="7.92"/><rect class="e7085288-c92c-4d4a-9ef4-424354874435" x="102.97" y="134.66" width="7.92" height="7.92"/><rect class="e7085288-c92c-4d4a-9ef4-424354874435" x="102.97" y="126.74" width="7.92" height="7.92"/><rect class="a64a06be-58c1-4af3-a16c-f77db095a569" x="102.97" y="118.81" width="7.92" height="7.93"/><rect class="ab445494-538f-4aee-b5ce-7a30c5bd52a1" x="102.97" y="110.89" width="7.92" height="7.92"/><rect class="ab445494-538f-4aee-b5ce-7a30c5bd52a1" x="102.97" y="102.97" width="7.92" height="7.92"/><rect class="e7085288-c92c-4d4a-9ef4-424354874435" x="102.97" y="95.05" width="7.92" height="7.92"/><rect class="e7085288-c92c-4d4a-9ef4-424354874435" x="102.97" y="87.13" width="7.92" height="7.92"/><rect class="e7085288-c92c-4d4a-9ef4-424354874435" x="102.97" y="79.21" width="7.92" height="7.92"/><rect class="e7085288-c92c-4d4a-9ef4-424354874435" x="102.97" y="71.29" width="7.92" height="7.92"/><rect class="a64a06be-58c1-4af3-a16c-f77db095a569" x="102.97" y="63.37" width="7.92" height="7.92"/><rect class="ab445494-538f-4aee-b5ce-7a30c5bd52a1" x="102.97" y="55.45" width="7.92" height="7.92"/><rect class="f3b270fa-3f75-45ac-a02e-03456d00768e" x="102.97" y="47.53" width="7.92" height="7.92"/><rect class="f3b270fa-3f75-45ac-a02e-03456d00768e" x="102.97" y="39.61" width="7.92" height="7.92"/><rect class="ab445494-538f-4aee-b5ce-7a30c5bd52a1" x="102.97" y="31.69" width="7.92" height="7.92"/><rect class="fc4b3220-e88c-48ab-9ff0-727cbdefeb74" x="102.97" y="23.76" width="7.92" height="7.93"/><rect class="f3b270fa-3f75-45ac-a02e-03456d00768e" x="102.97" y="15.84" width="7.92" height="7.92"/><rect class="ab445494-538f-4aee-b5ce-7a30c5bd52a1" x="102.97" y="7.92" width="7.92" height="7.92"/><rect class="ab445494-538f-4aee-b5ce-7a30c5bd52a1" x="95.05" y="198.02" width="7.92" height="7.92"/><rect class="ab445494-538f-4aee-b5ce-7a30c5bd52a1" x="95.05" y="190.1" width="7.92" height="7.92"/><rect class="ab445494-538f-4aee-b5ce-7a30c5bd52a1" x="95.05" y="182.18" width="7.92" height="7.92"/><rect class="ab445494-538f-4aee-b5ce-7a30c5bd52a1" x="95.05" y="174.26" width="7.92" height="7.92"/><rect class="ab445494-538f-4aee-b5ce-7a30c5bd52a1" x="95.05" y="166.34" width="7.92" height="7.92"/><rect class="ab445494-538f-4aee-b5ce-7a30c5bd52a1" x="95.05" y="158.42" width="7.92" height="7.92"/><rect class="ab445494-538f-4aee-b5ce-7a30c5bd52a1" x="95.05" y="150.5" width="7.92" height="7.92"/><rect class="ab445494-538f-4aee-b5ce-7a30c5bd52a1" x="95.05" y="142.58" width="7.92" height="7.92"/><rect class="ab445494-538f-4aee-b5ce-7a30c5bd52a1" x="95.05" y="134.66" width="7.92" height="7.92"/><rect class="ab445494-538f-4aee-b5ce-7a30c5bd52a1" x="95.05" y="126.74" width="7.92" height="7.92"/><rect class="ab445494-538f-4aee-b5ce-7a30c5bd52a1" x="95.05" y="118.81" width="7.92" height="7.93"/><rect class="ab445494-538f-4aee-b5ce-7a30c5bd52a1" x="95.05" y="110.89" width="7.92" height="7.92"/><rect class="e7085288-c92c-4d4a-9ef4-424354874435" x="95.05" y="102.97" width="7.92" height="7.92"/><rect class="e7085288-c92c-4d4a-9ef4-424354874435" x="95.05" y="95.05" width="7.92" height="7.92"/><rect class="e7085288-c92c-4d4a-9ef4-424354874435" x="95.05" y="87.13" width="7.92" height="7.92"/><rect class="e7085288-c92c-4d4a-9ef4-424354874435" x="95.05" y="79.21" width="7.92" height="7.92"/><rect class="bc72995b-2bf9-4d81-9703-110c3dea0435" x="95.05" y="71.29" width="7.92" height="7.92"/><rect class="ab445494-538f-4aee-b5ce-7a30c5bd52a1" x="95.05" y="63.37" width="7.92" height="7.92"/><rect class="ab445494-538f-4aee-b5ce-7a30c5bd52a1" x="95.05" y="55.45" width="7.92" height="7.92"/><rect class="fc4b3220-e88c-48ab-9ff0-727cbdefeb74" x="95.05" y="47.53" width="7.92" height="7.92"/><rect class="fc4b3220-e88c-48ab-9ff0-727cbdefeb74" x="95.05" y="39.61" width="7.92" height="7.92"/><rect class="fc4b3220-e88c-48ab-9ff0-727cbdefeb74" x="95.05" y="31.69" width="7.92" height="7.92"/><rect class="ab445494-538f-4aee-b5ce-7a30c5bd52a1" x="95.05" y="23.76" width="7.92" height="7.93"/><rect class="fc4b3220-e88c-48ab-9ff0-727cbdefeb74" x="95.05" y="15.84" width="7.92" height="7.92"/><rect class="f3b270fa-3f75-45ac-a02e-03456d00768e" x="95.05" y="7.92" width="7.92" height="7.92"/><rect class="ab445494-538f-4aee-b5ce-7a30c5bd52a1" x="95.05" width="7.92" height="7.92"/><rect class="ab445494-538f-4aee-b5ce-7a30c5bd52a1" x="87.13" y="205.94" width="7.92" height="7.92"/><rect class="ee743f4a-73d6-4eb4-b8d9-9a8a0b75c8eb" x="87.13" y="198.02" width="7.92" height="7.92"/><rect class="ee743f4a-73d6-4eb4-b8d9-9a8a0b75c8eb" x="87.13" y="190.1" width="7.92" height="7.92"/><rect class="ee743f4a-73d6-4eb4-b8d9-9a8a0b75c8eb" x="87.13" y="182.18" width="7.92" height="7.92"/><rect class="ee743f4a-73d6-4eb4-b8d9-9a8a0b75c8eb" x="87.13" y="174.26" width="7.92" height="7.92"/><rect class="b2699e27-a33d-40a9-aacb-4b1cb3adcf16" x="87.13" y="166.34" width="7.92" height="7.92"/><rect class="ab445494-538f-4aee-b5ce-7a30c5bd52a1" x="87.13" y="158.42" width="7.92" height="7.92"/><rect class="a74674ee-fb83-4cc6-bb1b-bcdaced8c5a8" x="87.13" y="150.5" width="7.92" height="7.92"/><rect class="bb4a97ef-4f9a-485f-a15e-6ecdef21fc6a" x="87.13" y="142.58" width="7.92" height="7.92"/><rect class="fc4b3220-e88c-48ab-9ff0-727cbdefeb74" x="87.13" y="134.66" width="7.92" height="7.92"/><rect class="fc4b3220-e88c-48ab-9ff0-727cbdefeb74" x="87.13" y="126.74" width="7.92" height="7.92"/><rect class="b169f815-0d31-4510-9646-1f2be00b0e8a" x="87.13" y="118.81" width="7.92" height="7.93"/><rect class="ab445494-538f-4aee-b5ce-7a30c5bd52a1" x="87.13" y="110.89" width="7.92" height="7.92"/><rect class="e7085288-c92c-4d4a-9ef4-424354874435" x="87.13" y="102.97" width="7.92" height="7.92"/><rect class="e7085288-c92c-4d4a-9ef4-424354874435" x="87.13" y="95.05" width="7.92" height="7.92"/><rect class="e7085288-c92c-4d4a-9ef4-424354874435" x="87.13" y="87.13" width="7.92" height="7.92"/><rect class="e7085288-c92c-4d4a-9ef4-424354874435" x="87.13" y="79.21" width="7.92" height="7.92"/><rect class="a791238c-590d-4bf3-a5b0-2abff6e4335c" x="87.13" y="71.29" width="7.92" height="7.92"/><rect class="ab445494-538f-4aee-b5ce-7a30c5bd52a1" x="87.13" y="63.37" width="7.92" height="7.92"/><rect class="ab445494-538f-4aee-b5ce-7a30c5bd52a1" x="87.13" y="55.45" width="7.92" height="7.92"/><rect class="f3b270fa-3f75-45ac-a02e-03456d00768e" x="87.13" y="47.53" width="7.92" height="7.92"/><rect class="f3b270fa-3f75-45ac-a02e-03456d00768e" x="87.13" y="39.61" width="7.92" height="7.92"/><rect class="f3b270fa-3f75-45ac-a02e-03456d00768e" x="87.13" y="31.69" width="7.92" height="7.92"/><rect class="f3b270fa-3f75-45ac-a02e-03456d00768e" x="87.13" y="23.76" width="7.92" height="7.93"/><rect class="ab445494-538f-4aee-b5ce-7a30c5bd52a1" x="87.13" y="15.84" width="7.92" height="7.92"/><rect class="fc4b3220-e88c-48ab-9ff0-727cbdefeb74" x="87.13" y="7.92" width="7.92" height="7.92"/><rect class="ab445494-538f-4aee-b5ce-7a30c5bd52a1" x="87.13" width="7.92" height="7.92"/><rect class="ab445494-538f-4aee-b5ce-7a30c5bd52a1" x="79.21" y="205.94" width="7.92" height="7.92"/><rect class="ee743f4a-73d6-4eb4-b8d9-9a8a0b75c8eb" x="79.21" y="198.02" width="7.92" height="7.92"/><rect class="ee743f4a-73d6-4eb4-b8d9-9a8a0b75c8eb" x="79.21" y="190.1" width="7.92" height="7.92"/><rect class="ee743f4a-73d6-4eb4-b8d9-9a8a0b75c8eb" x="79.21" y="182.18" width="7.92" height="7.92"/><rect class="ee743f4a-73d6-4eb4-b8d9-9a8a0b75c8eb" x="79.21" y="174.26" width="7.92" height="7.92"/><rect class="b2699e27-a33d-40a9-aacb-4b1cb3adcf16" x="79.21" y="166.34" width="7.92" height="7.92"/><rect class="ab445494-538f-4aee-b5ce-7a30c5bd52a1" x="79.21" y="158.42" width="7.92" height="7.92"/><rect class="a74674ee-fb83-4cc6-bb1b-bcdaced8c5a8" x="79.21" y="150.5" width="7.92" height="7.92"/><rect class="a74674ee-fb83-4cc6-bb1b-bcdaced8c5a8" x="79.21" y="142.58" width="7.92" height="7.92"/><rect class="a74674ee-fb83-4cc6-bb1b-bcdaced8c5a8" x="79.21" y="134.66" width="7.92" height="7.92"/><rect class="a74674ee-fb83-4cc6-bb1b-bcdaced8c5a8" x="79.21" y="126.74" width="7.92" height="7.92"/><rect class="bb4a97ef-4f9a-485f-a15e-6ecdef21fc6a" x="79.21" y="118.81" width="7.92" height="7.93"/><rect class="ab445494-538f-4aee-b5ce-7a30c5bd52a1" x="79.21" y="110.89" width="7.92" height="7.92"/><rect class="e7085288-c92c-4d4a-9ef4-424354874435" x="79.21" y="102.97" width="7.92" height="7.92"/><rect class="e7085288-c92c-4d4a-9ef4-424354874435" x="79.21" y="95.05" width="7.92" height="7.92"/><rect class="a2bcb57c-1996-4bd6-b810-bd07ea193a01" x="79.21" y="87.13" width="7.92" height="7.92"/><rect class="e7085288-c92c-4d4a-9ef4-424354874435" x="79.21" y="79.21" width="7.92" height="7.92"/><rect class="bc72995b-2bf9-4d81-9703-110c3dea0435" x="79.21" y="71.29" width="7.92" height="7.92"/><rect class="ab445494-538f-4aee-b5ce-7a30c5bd52a1" x="79.21" y="63.37" width="7.92" height="7.92"/><rect class="ab445494-538f-4aee-b5ce-7a30c5bd52a1" x="79.21" y="55.45" width="7.92" height="7.92"/><rect class="f3b270fa-3f75-45ac-a02e-03456d00768e" x="79.21" y="47.53" width="7.92" height="7.92"/><rect class="f3b270fa-3f75-45ac-a02e-03456d00768e" x="79.21" y="39.61" width="7.92" height="7.92"/><rect class="f3b270fa-3f75-45ac-a02e-03456d00768e" x="79.21" y="31.69" width="7.92" height="7.92"/><rect class="f3b270fa-3f75-45ac-a02e-03456d00768e" x="79.21" y="23.76" width="7.92" height="7.93"/><rect class="ab445494-538f-4aee-b5ce-7a30c5bd52a1" x="79.21" y="15.84" width="7.92" height="7.92"/><rect class="f3b270fa-3f75-45ac-a02e-03456d00768e" x="79.21" y="7.92" width="7.92" height="7.92"/><rect class="ab445494-538f-4aee-b5ce-7a30c5bd52a1" x="79.21" width="7.92" height="7.92"/><rect class="ab445494-538f-4aee-b5ce-7a30c5bd52a1" x="71.29" y="205.94" width="7.92" height="7.92"/><rect class="ab445494-538f-4aee-b5ce-7a30c5bd52a1" x="71.29" y="198.02" width="7.92" height="7.92"/><rect class="ab445494-538f-4aee-b5ce-7a30c5bd52a1" x="71.29" y="190.1" width="7.92" height="7.92"/><rect class="ab445494-538f-4aee-b5ce-7a30c5bd52a1" x="71.29" y="182.18" width="7.92" height="7.92"/><rect class="ab445494-538f-4aee-b5ce-7a30c5bd52a1" x="71.29" y="174.26" width="7.92" height="7.92"/><rect class="ab445494-538f-4aee-b5ce-7a30c5bd52a1" x="71.29" y="166.34" width="7.92" height="7.92"/><rect class="ab445494-538f-4aee-b5ce-7a30c5bd52a1" x="71.29" y="158.42" width="7.92" height="7.92"/><rect class="a74674ee-fb83-4cc6-bb1b-bcdaced8c5a8" x="71.29" y="150.5" width="7.92" height="7.92"/><rect class="a74674ee-fb83-4cc6-bb1b-bcdaced8c5a8" x="71.29" y="142.58" width="7.92" height="7.92"/><rect class="a74674ee-fb83-4cc6-bb1b-bcdaced8c5a8" x="71.29" y="134.66" width="7.92" height="7.92"/><rect class="a74674ee-fb83-4cc6-bb1b-bcdaced8c5a8" x="71.29" y="126.74" width="7.92" height="7.92"/><rect class="bb4a97ef-4f9a-485f-a15e-6ecdef21fc6a" x="71.29" y="118.81" width="7.92" height="7.93"/><rect class="ab445494-538f-4aee-b5ce-7a30c5bd52a1" x="71.29" y="110.89" width="7.92" height="7.92"/><rect class="e7085288-c92c-4d4a-9ef4-424354874435" x="71.29" y="102.97" width="7.92" height="7.92"/><rect class="a2bcb57c-1996-4bd6-b810-bd07ea193a01" x="71.29" y="95.05" width="7.92" height="7.92"/><rect class="a2bcb57c-1996-4bd6-b810-bd07ea193a01" x="71.29" y="87.13" width="7.92" height="7.92"/><rect class="e7085288-c92c-4d4a-9ef4-424354874435" x="71.29" y="79.21" width="7.92" height="7.92"/><rect class="a64a06be-58c1-4af3-a16c-f77db095a569" x="71.29" y="71.29" width="7.92" height="7.92"/><rect class="a64a06be-58c1-4af3-a16c-f77db095a569" x="71.29" y="63.37" width="7.92" height="7.92"/><rect class="ab445494-538f-4aee-b5ce-7a30c5bd52a1" x="71.29" y="55.45" width="7.92" height="7.92"/><rect class="fc4b3220-e88c-48ab-9ff0-727cbdefeb74" x="71.29" y="47.53" width="7.92" height="7.92"/><rect class="fc4b3220-e88c-48ab-9ff0-727cbdefeb74" x="71.29" y="39.61" width="7.92" height="7.92"/><rect class="fc4b3220-e88c-48ab-9ff0-727cbdefeb74" x="71.29" y="31.69" width="7.92" height="7.92"/><rect class="fc4b3220-e88c-48ab-9ff0-727cbdefeb74" x="71.29" y="23.76" width="7.92" height="7.93"/><rect class="ab445494-538f-4aee-b5ce-7a30c5bd52a1" x="71.29" y="15.84" width="7.92" height="7.92"/><rect class="fc4b3220-e88c-48ab-9ff0-727cbdefeb74" x="71.29" y="7.92" width="7.92" height="7.92"/><rect class="ab445494-538f-4aee-b5ce-7a30c5bd52a1" x="71.29" width="7.92" height="7.92"/><rect class="ab445494-538f-4aee-b5ce-7a30c5bd52a1" x="63.37" y="205.94" width="7.92" height="7.92"/><rect class="ee743f4a-73d6-4eb4-b8d9-9a8a0b75c8eb" x="63.37" y="198.02" width="7.92" height="7.92"/><rect class="ee743f4a-73d6-4eb4-b8d9-9a8a0b75c8eb" x="63.37" y="190.1" width="7.92" height="7.92"/><rect class="ee743f4a-73d6-4eb4-b8d9-9a8a0b75c8eb" x="63.37" y="182.18" width="7.92" height="7.92"/><rect class="ee743f4a-73d6-4eb4-b8d9-9a8a0b75c8eb" x="63.37" y="174.26" width="7.92" height="7.92"/><rect class="b2699e27-a33d-40a9-aacb-4b1cb3adcf16" x="63.37" y="166.34" width="7.92" height="7.92"/><rect class="ab445494-538f-4aee-b5ce-7a30c5bd52a1" x="63.37" y="158.42" width="7.92" height="7.92"/><rect class="a74674ee-fb83-4cc6-bb1b-bcdaced8c5a8" x="63.37" y="150.5" width="7.92" height="7.92"/><rect class="a74674ee-fb83-4cc6-bb1b-bcdaced8c5a8" x="63.37" y="142.58" width="7.92" height="7.92"/><rect class="a74674ee-fb83-4cc6-bb1b-bcdaced8c5a8" x="63.37" y="134.66" width="7.92" height="7.92"/><rect class="a74674ee-fb83-4cc6-bb1b-bcdaced8c5a8" x="63.37" y="126.74" width="7.92" height="7.92"/><rect class="bb4a97ef-4f9a-485f-a15e-6ecdef21fc6a" x="63.37" y="118.81" width="7.92" height="7.93"/><rect class="ab445494-538f-4aee-b5ce-7a30c5bd52a1" x="63.37" y="110.89" width="7.92" height="7.92"/><rect class="e7085288-c92c-4d4a-9ef4-424354874435" x="63.37" y="102.97" width="7.92" height="7.92"/><rect class="e7085288-c92c-4d4a-9ef4-424354874435" x="63.37" y="95.05" width="7.92" height="7.92"/><rect class="a2bcb57c-1996-4bd6-b810-bd07ea193a01" x="63.37" y="87.13" width="7.92" height="7.92"/><rect class="e7085288-c92c-4d4a-9ef4-424354874435" x="63.37" y="79.21" width="7.92" height="7.92"/><rect class="bc72995b-2bf9-4d81-9703-110c3dea0435" x="63.37" y="71.29" width="7.92" height="7.92"/><rect class="ab445494-538f-4aee-b5ce-7a30c5bd52a1" x="63.37" y="63.37" width="7.92" height="7.92"/><rect class="ab445494-538f-4aee-b5ce-7a30c5bd52a1" x="63.37" y="55.45" width="7.92" height="7.92"/><rect class="f3b270fa-3f75-45ac-a02e-03456d00768e" x="63.37" y="47.53" width="7.92" height="7.92"/><rect class="f3b270fa-3f75-45ac-a02e-03456d00768e" x="63.37" y="39.61" width="7.92" height="7.92"/><rect class="f3b270fa-3f75-45ac-a02e-03456d00768e" x="63.37" y="31.69" width="7.92" height="7.92"/><rect class="f3b270fa-3f75-45ac-a02e-03456d00768e" x="63.37" y="23.76" width="7.92" height="7.93"/><rect class="ab445494-538f-4aee-b5ce-7a30c5bd52a1" x="63.37" y="15.84" width="7.92" height="7.92"/><rect class="f3b270fa-3f75-45ac-a02e-03456d00768e" x="63.37" y="7.92" width="7.92" height="7.92"/><rect class="ab445494-538f-4aee-b5ce-7a30c5bd52a1" x="63.37" width="7.92" height="7.92"/><rect class="ab445494-538f-4aee-b5ce-7a30c5bd52a1" x="55.45" y="205.94" width="7.92" height="7.92"/><rect class="ee743f4a-73d6-4eb4-b8d9-9a8a0b75c8eb" x="55.45" y="198.02" width="7.92" height="7.92"/><rect class="ee743f4a-73d6-4eb4-b8d9-9a8a0b75c8eb" x="55.45" y="190.1" width="7.92" height="7.92"/><rect class="ee743f4a-73d6-4eb4-b8d9-9a8a0b75c8eb" x="55.45" y="182.18" width="7.92" height="7.92"/><rect class="ee743f4a-73d6-4eb4-b8d9-9a8a0b75c8eb" x="55.45" y="174.26" width="7.92" height="7.92"/><rect class="b2699e27-a33d-40a9-aacb-4b1cb3adcf16" x="55.45" y="166.34" width="7.92" height="7.92"/><rect class="ab445494-538f-4aee-b5ce-7a30c5bd52a1" x="55.45" y="158.42" width="7.92" height="7.92"/><rect class="a74674ee-fb83-4cc6-bb1b-bcdaced8c5a8" x="55.45" y="150.5" width="7.92" height="7.92"/><rect class="bb4a97ef-4f9a-485f-a15e-6ecdef21fc6a" x="55.45" y="142.58" width="7.92" height="7.92"/><rect class="fc4b3220-e88c-48ab-9ff0-727cbdefeb74" x="55.45" y="134.66" width="7.92" height="7.92"/><rect class="fc4b3220-e88c-48ab-9ff0-727cbdefeb74" x="55.45" y="126.74" width="7.92" height="7.92"/><rect class="b169f815-0d31-4510-9646-1f2be00b0e8a" x="55.45" y="118.81" width="7.92" height="7.93"/><rect class="ab445494-538f-4aee-b5ce-7a30c5bd52a1" x="55.45" y="110.89" width="7.92" height="7.92"/><rect class="e7085288-c92c-4d4a-9ef4-424354874435" x="55.45" y="102.97" width="7.92" height="7.92"/><rect class="e7085288-c92c-4d4a-9ef4-424354874435" x="55.45" y="95.05" width="7.92" height="7.92"/><rect class="e7085288-c92c-4d4a-9ef4-424354874435" x="55.45" y="87.13" width="7.92" height="7.92"/><rect class="e7085288-c92c-4d4a-9ef4-424354874435" x="55.45" y="79.21" width="7.92" height="7.92"/><rect class="a791238c-590d-4bf3-a5b0-2abff6e4335c" x="55.45" y="71.29" width="7.92" height="7.92"/><rect class="ab445494-538f-4aee-b5ce-7a30c5bd52a1" x="55.45" y="63.37" width="7.92" height="7.92"/><rect class="ab445494-538f-4aee-b5ce-7a30c5bd52a1" x="55.45" y="55.45" width="7.92" height="7.92"/><rect class="f3b270fa-3f75-45ac-a02e-03456d00768e" x="55.45" y="47.53" width="7.92" height="7.92"/><rect class="f3b270fa-3f75-45ac-a02e-03456d00768e" x="55.45" y="39.61" width="7.92" height="7.92"/><rect class="f3b270fa-3f75-45ac-a02e-03456d00768e" x="55.45" y="31.69" width="7.92" height="7.92"/><rect class="f3b270fa-3f75-45ac-a02e-03456d00768e" x="55.45" y="23.76" width="7.92" height="7.93"/><rect class="ab445494-538f-4aee-b5ce-7a30c5bd52a1" x="55.45" y="15.84" width="7.92" height="7.92"/><rect class="fc4b3220-e88c-48ab-9ff0-727cbdefeb74" x="55.45" y="7.92" width="7.92" height="7.92"/><rect class="ab445494-538f-4aee-b5ce-7a30c5bd52a1" x="55.45" width="7.92" height="7.92"/><rect class="ab445494-538f-4aee-b5ce-7a30c5bd52a1" x="47.53" y="198.02" width="7.92" height="7.92"/><rect class="ab445494-538f-4aee-b5ce-7a30c5bd52a1" x="47.53" y="190.1" width="7.92" height="7.92"/><rect class="ab445494-538f-4aee-b5ce-7a30c5bd52a1" x="47.53" y="182.18" width="7.92" height="7.92"/><rect class="ab445494-538f-4aee-b5ce-7a30c5bd52a1" x="47.53" y="174.26" width="7.92" height="7.92"/><rect class="ab445494-538f-4aee-b5ce-7a30c5bd52a1" x="47.53" y="166.34" width="7.92" height="7.92"/><rect class="ab445494-538f-4aee-b5ce-7a30c5bd52a1" x="47.53" y="158.42" width="7.92" height="7.92"/><rect class="ab445494-538f-4aee-b5ce-7a30c5bd52a1" x="47.53" y="150.5" width="7.92" height="7.92"/><rect class="ab445494-538f-4aee-b5ce-7a30c5bd52a1" x="47.53" y="142.58" width="7.92" height="7.92"/><rect class="ab445494-538f-4aee-b5ce-7a30c5bd52a1" x="47.53" y="134.66" width="7.92" height="7.92"/><rect class="ab445494-538f-4aee-b5ce-7a30c5bd52a1" x="47.53" y="126.74" width="7.92" height="7.92"/><rect class="ab445494-538f-4aee-b5ce-7a30c5bd52a1" x="47.53" y="118.81" width="7.92" height="7.93"/><rect class="ab445494-538f-4aee-b5ce-7a30c5bd52a1" x="47.53" y="110.89" width="7.92" height="7.92"/><rect class="e7085288-c92c-4d4a-9ef4-424354874435" x="47.53" y="102.97" width="7.92" height="7.92"/><rect class="e7085288-c92c-4d4a-9ef4-424354874435" x="47.53" y="95.05" width="7.92" height="7.92"/><rect class="e7085288-c92c-4d4a-9ef4-424354874435" x="47.53" y="87.13" width="7.92" height="7.92"/><rect class="e7085288-c92c-4d4a-9ef4-424354874435" x="47.53" y="79.21" width="7.92" height="7.92"/><rect class="bc72995b-2bf9-4d81-9703-110c3dea0435" x="47.53" y="71.29" width="7.92" height="7.92"/><rect class="ab445494-538f-4aee-b5ce-7a30c5bd52a1" x="47.53" y="63.37" width="7.92" height="7.92"/><rect class="ab445494-538f-4aee-b5ce-7a30c5bd52a1" x="47.53" y="55.45" width="7.92" height="7.92"/><rect class="fc4b3220-e88c-48ab-9ff0-727cbdefeb74" x="47.53" y="47.53" width="7.92" height="7.92"/><rect class="fc4b3220-e88c-48ab-9ff0-727cbdefeb74" x="47.53" y="39.61" width="7.92" height="7.92"/><rect class="fc4b3220-e88c-48ab-9ff0-727cbdefeb74" x="47.53" y="31.69" width="7.92" height="7.92"/><rect class="ab445494-538f-4aee-b5ce-7a30c5bd52a1" x="47.53" y="23.76" width="7.92" height="7.93"/><rect class="fc4b3220-e88c-48ab-9ff0-727cbdefeb74" x="47.53" y="15.84" width="7.92" height="7.92"/><rect class="f3b270fa-3f75-45ac-a02e-03456d00768e" x="47.53" y="7.92" width="7.92" height="7.92"/><rect class="ab445494-538f-4aee-b5ce-7a30c5bd52a1" x="47.53" width="7.92" height="7.92"/><rect class="ab445494-538f-4aee-b5ce-7a30c5bd52a1" x="39.61" y="174.26" width="7.92" height="7.92"/><rect class="e7085288-c92c-4d4a-9ef4-424354874435" x="39.61" y="166.34" width="7.92" height="7.92"/><rect class="e7085288-c92c-4d4a-9ef4-424354874435" x="39.61" y="158.42" width="7.92" height="7.92"/><rect class="e7085288-c92c-4d4a-9ef4-424354874435" x="39.61" y="150.5" width="7.92" height="7.92"/><rect class="e7085288-c92c-4d4a-9ef4-424354874435" x="39.61" y="142.58" width="7.92" height="7.92"/><rect class="e7085288-c92c-4d4a-9ef4-424354874435" x="39.61" y="134.66" width="7.92" height="7.92"/><rect class="e7085288-c92c-4d4a-9ef4-424354874435" x="39.61" y="126.74" width="7.92" height="7.92"/><rect class="a64a06be-58c1-4af3-a16c-f77db095a569" x="39.61" y="118.81" width="7.92" height="7.93"/><rect class="ab445494-538f-4aee-b5ce-7a30c5bd52a1" x="39.61" y="110.89" width="7.92" height="7.92"/><rect class="ab445494-538f-4aee-b5ce-7a30c5bd52a1" x="39.61" y="102.97" width="7.92" height="7.92"/><rect class="e7085288-c92c-4d4a-9ef4-424354874435" x="39.61" y="95.05" width="7.92" height="7.92"/><rect class="e7085288-c92c-4d4a-9ef4-424354874435" x="39.61" y="87.13" width="7.92" height="7.92"/><rect class="e7085288-c92c-4d4a-9ef4-424354874435" x="39.61" y="79.21" width="7.92" height="7.92"/><rect class="e7085288-c92c-4d4a-9ef4-424354874435" x="39.61" y="71.29" width="7.92" height="7.92"/><rect class="a64a06be-58c1-4af3-a16c-f77db095a569" x="39.61" y="63.37" width="7.92" height="7.92"/><rect class="ab445494-538f-4aee-b5ce-7a30c5bd52a1" x="39.61" y="55.45" width="7.92" height="7.92"/><rect class="f3b270fa-3f75-45ac-a02e-03456d00768e" x="39.61" y="47.53" width="7.92" height="7.92"/><rect class="f3b270fa-3f75-45ac-a02e-03456d00768e" x="39.61" y="39.61" width="7.92" height="7.92"/><rect class="ab445494-538f-4aee-b5ce-7a30c5bd52a1" x="39.61" y="31.69" width="7.92" height="7.92"/><rect class="fc4b3220-e88c-48ab-9ff0-727cbdefeb74" x="39.61" y="23.76" width="7.92" height="7.93"/><rect class="f3b270fa-3f75-45ac-a02e-03456d00768e" x="39.61" y="15.84" width="7.92" height="7.92"/><rect class="ab445494-538f-4aee-b5ce-7a30c5bd52a1" x="39.61" y="7.92" width="7.92" height="7.92"/><rect class="ab445494-538f-4aee-b5ce-7a30c5bd52a1" x="31.69" y="166.34" width="7.92" height="7.92"/><rect class="ab445494-538f-4aee-b5ce-7a30c5bd52a1" x="31.69" y="158.42" width="7.92" height="7.92"/><rect class="ab445494-538f-4aee-b5ce-7a30c5bd52a1" x="31.69" y="150.5" width="7.92" height="7.92"/><rect class="ab445494-538f-4aee-b5ce-7a30c5bd52a1" x="31.69" y="142.58" width="7.92" height="7.92"/><rect class="ab445494-538f-4aee-b5ce-7a30c5bd52a1" x="31.69" y="134.66" width="7.92" height="7.92"/><rect class="ab445494-538f-4aee-b5ce-7a30c5bd52a1" x="31.69" y="126.74" width="7.92" height="7.92"/><rect class="ab445494-538f-4aee-b5ce-7a30c5bd52a1" x="31.69" y="118.81" width="7.92" height="7.93"/><rect class="f3b270fa-3f75-45ac-a02e-03456d00768e" x="31.69" y="110.89" width="7.92" height="7.92"/><rect class="f3b270fa-3f75-45ac-a02e-03456d00768e" x="31.69" y="102.97" width="7.92" height="7.92"/><rect class="ab445494-538f-4aee-b5ce-7a30c5bd52a1" x="31.69" y="95.05" width="7.92" height="7.92"/><rect class="ab445494-538f-4aee-b5ce-7a30c5bd52a1" x="31.69" y="87.13" width="7.92" height="7.92"/><rect class="ab445494-538f-4aee-b5ce-7a30c5bd52a1" x="31.69" y="79.21" width="7.92" height="7.92"/><rect class="ab445494-538f-4aee-b5ce-7a30c5bd52a1" x="31.69" y="71.29" width="7.92" height="7.92"/><rect class="ab445494-538f-4aee-b5ce-7a30c5bd52a1" x="31.69" y="63.37" width="7.92" height="7.92"/><rect class="ab445494-538f-4aee-b5ce-7a30c5bd52a1" x="31.69" y="55.45" width="7.92" height="7.92"/><rect class="ab445494-538f-4aee-b5ce-7a30c5bd52a1" x="31.69" y="47.53" width="7.92" height="7.92"/><rect class="ab445494-538f-4aee-b5ce-7a30c5bd52a1" x="31.69" y="39.61" width="7.92" height="7.92"/><rect class="fc4b3220-e88c-48ab-9ff0-727cbdefeb74" x="31.69" y="31.69" width="7.92" height="7.92"/><rect class="f3b270fa-3f75-45ac-a02e-03456d00768e" x="31.69" y="23.76" width="7.92" height="7.93"/><rect class="ab445494-538f-4aee-b5ce-7a30c5bd52a1" x="31.69" y="15.84" width="7.92" height="7.92"/><rect class="ab445494-538f-4aee-b5ce-7a30c5bd52a1" x="23.77" y="150.5" width="7.92" height="7.92"/><rect class="f3b270fa-3f75-45ac-a02e-03456d00768e" x="23.77" y="142.58" width="7.92" height="7.92"/><rect class="f3b270fa-3f75-45ac-a02e-03456d00768e" x="23.77" y="134.66" width="7.92" height="7.92"/><rect class="f3b270fa-3f75-45ac-a02e-03456d00768e" x="23.77" y="126.74" width="7.92" height="7.92"/><rect class="f3b270fa-3f75-45ac-a02e-03456d00768e" x="23.77" y="118.81" width="7.92" height="7.93"/><rect class="ab445494-538f-4aee-b5ce-7a30c5bd52a1" x="23.77" y="110.89" width="7.92" height="7.92"/><rect class="ab445494-538f-4aee-b5ce-7a30c5bd52a1" x="23.77" y="102.97" width="7.92" height="7.92"/><rect class="fc4b3220-e88c-48ab-9ff0-727cbdefeb74" x="23.77" y="95.05" width="7.92" height="7.92"/><rect class="ab445494-538f-4aee-b5ce-7a30c5bd52a1" x="23.77" y="87.13" width="7.92" height="7.92"/><rect class="e7085288-c92c-4d4a-9ef4-424354874435" x="23.77" y="79.21" width="7.92" height="7.92"/><rect class="a64a06be-58c1-4af3-a16c-f77db095a569" x="23.77" y="71.29" width="7.92" height="7.92"/><rect class="ab445494-538f-4aee-b5ce-7a30c5bd52a1" x="23.77" y="63.37" width="7.92" height="7.92"/><rect class="f3b270fa-3f75-45ac-a02e-03456d00768e" x="23.77" y="55.45" width="7.92" height="7.92"/><rect class="fc4b3220-e88c-48ab-9ff0-727cbdefeb74" x="23.77" y="47.53" width="7.92" height="7.92"/><rect class="fc4b3220-e88c-48ab-9ff0-727cbdefeb74" x="23.77" y="39.61" width="7.92" height="7.92"/><rect class="f3b270fa-3f75-45ac-a02e-03456d00768e" x="23.77" y="31.69" width="7.92" height="7.92"/><rect class="ab445494-538f-4aee-b5ce-7a30c5bd52a1" x="23.77" y="23.76" width="7.92" height="7.93"/><rect class="ab445494-538f-4aee-b5ce-7a30c5bd52a1" x="15.84" y="150.5" width="7.93" height="7.92"/><rect class="ab445494-538f-4aee-b5ce-7a30c5bd52a1" x="15.84" y="142.58" width="7.93" height="7.92"/><rect class="ab445494-538f-4aee-b5ce-7a30c5bd52a1" x="15.84" y="134.66" width="7.93" height="7.92"/><rect class="ab445494-538f-4aee-b5ce-7a30c5bd52a1" x="15.84" y="126.74" width="7.93" height="7.92"/><rect class="ab445494-538f-4aee-b5ce-7a30c5bd52a1" x="15.84" y="118.81" width="7.93" height="7.93"/><rect class="ab445494-538f-4aee-b5ce-7a30c5bd52a1" x="15.84" y="95.05" width="7.93" height="7.92"/><rect class="ab445494-538f-4aee-b5ce-7a30c5bd52a1" x="15.84" y="87.13" width="7.93" height="7.92"/><rect class="ab445494-538f-4aee-b5ce-7a30c5bd52a1" x="15.84" y="79.21" width="7.93" height="7.92"/><rect class="ab445494-538f-4aee-b5ce-7a30c5bd52a1" x="15.84" y="71.29" width="7.93" height="7.92"/><rect class="f3b270fa-3f75-45ac-a02e-03456d00768e" x="15.84" y="63.37" width="7.93" height="7.92"/><rect class="f3b270fa-3f75-45ac-a02e-03456d00768e" x="15.84" y="55.45" width="7.93" height="7.92"/><rect class="ab445494-538f-4aee-b5ce-7a30c5bd52a1" x="15.84" y="47.53" width="7.93" height="7.92"/><rect class="ab445494-538f-4aee-b5ce-7a30c5bd52a1" x="15.84" y="39.61" width="7.93" height="7.92"/><rect class="ab445494-538f-4aee-b5ce-7a30c5bd52a1" x="15.84" y="31.69" width="7.93" height="7.92"/><rect class="ab445494-538f-4aee-b5ce-7a30c5bd52a1" x="7.92" y="150.5" width="7.92" height="7.92"/><rect class="ab445494-538f-4aee-b5ce-7a30c5bd52a1" x="7.92" y="71.29" width="7.92" height="7.92"/><rect class="ab445494-538f-4aee-b5ce-7a30c5bd52a1" x="7.92" y="63.37" width="7.92" height="7.92"/><rect class="ab445494-538f-4aee-b5ce-7a30c5bd52a1" x="7.92" y="55.45" width="7.92" height="7.92"/><rect class="ab445494-538f-4aee-b5ce-7a30c5bd52a1" y="142.58" width="7.92" height="7.92"/></svg>