<svg id="e37e5748-c81e-4e8b-bd2a-01b2aab33945" data-name="Layer 1" xmlns="http://www.w3.org/2000/svg" viewBox="0 0 550.23 691.17"><defs><style>.f352176c-36b0-40aa-8a62-73d59b82bc72{fill:#ff0;}.bab7ee1d-671d-4dc9-8066-40237d8f2799{fill:#fff045;}.e9cdfd45-e07e-4508-8a7c-509c633c26d4{fill:#fff;}.ba56b17c-0e69-4a1a-ba8b-c304d0eb29a5{fill:#fdd2be;}.be3b1d36-1fca-46e8-8117-69d265599774{fill:#689fca;}</style></defs><path d="M415.89,171.15c-27.09-14.25-58.44-21.37-92.64-24.22L262,149.78c-21.37,4.28-37.05,10-52.73,18.53l-7.13-48.46c-4.27-28.5-15.67-42.75-34.2-45.6l-21.37,4.27c-7.13,1.43-11.4,4.28-14.25,7.13-14.25,15.68-24.23,38.48-25.65,68.41-2.86,29.92,1.42,61.27,14.25,94.05-38.48-2.85-65.56,7.12-81.24,28.5-15.67,20-19.95,47-15.67,81.23A298.41,298.41,0,0,0,62.46,459c19.95,35.63,45.6,65.56,75.53,91.21-1.43-22.79-1.43-48.46,1.42-72.67L148,427.68c12.83,12.82,28.51,22.79,44.18,32.77l35.63,17.11,32.77,54.15c32.78,57,68.41,105.45,106.89,143.93,25.65,24.23,58.42,48.46,99.75,74.11,15.68,10,32.78,15.67,51.3,15.67,15.69,0,28.5-4.28,38.48-14.26a37.74,37.74,0,0,0,15.69-31.34c-1.44-15.68-8.56-31.35-22.81-45.6L521.34,650l-25.65-15.67c19.95-15.69,28.5-34.21,25.65-54.17-2.86-15.67-8.55-29.92-21.38-42.75,10-7.13,15.68-17.09,18.52-27.07,1.44-11.4,1.44-19.95-4.27-29.93A31.29,31.29,0,0,0,490,463.31c-12.82-4.29-27.07-1.44-44.17,5.69l-41.34,1.43c20-10,38.49-21.38,55.59-38.48l28.5-31.35c11.4,19.95,22.8,35.62,34.21,45.6s25.65,15.67,42.75,18.53c-5.7-18.53-7.12-42.76-4.28-75.53l11.41-71.26-2.86-31.35L557,255.23c-15.67-22.79-38.48-28.5-67-17.09C471.46,209.63,447.23,188.26,415.89,171.15ZM307.57,164l22.81,1.42c54.15,5.7,96.9,25.65,126.83,62.71l-59.86-11.4c-32.78-10-62.7-25.66-89.78-44.18l-12.82,8.55a130.59,130.59,0,0,1-18.53,11.4q-25.65,15-64.13,17.1v-22.8c12.83-8.55,31.35-15.68,51.31-18.52Zm74.11,78.38c5.7-4.27,11.4-4.27,20,0,7.12,2.85,11.39,7.12,11.39,12.82,0,7.13-1.43,12.83-5.7,18.53a20.56,20.56,0,0,1-15.67,12.83l-21.38,2.85c-7.12-2.85-10-10-8.56-18.53C361.72,259.51,368.85,249.53,381.68,242.41ZM500,487.52c4.27,7.13,4.27,12.83,2.85,20C500,516,495.69,521.73,488.56,526c-12.83-12.82-27.08-19.94-45.6-25.65l-27.07-2.85a62.74,62.74,0,0,0-22.81,8.56l-24.23-21.38,19.95-8.56c4.28,8.56,12.84,14.26,27.09,15.69a93.84,93.84,0,0,0,38.46-8.56c10-5.69,20-8.55,28.51-7.13S497.11,481.83,500,487.52ZM474.31,590.13l14.25-19.94c1.42,5.69,2.85,11.4,1.42,17.09l-5.69,12.83c-8.56,8.55-20,10-34.21,5.71C458.64,601.53,467.18,597.26,474.31,590.13Zm11.4-45.6c-1.42,12.83-5.69,25.66-15.67,37.06-11.4,14.25-27.08,19.94-45.61,18.52-15.67-15.67-27.08-29.92-29.92-44.17s0-25.67,7.13-32.79c8.54-8.55,18.52-10,34.19-7.13S468.6,527.44,485.71,544.53ZM348.9,486.1l18.53,21.38-79.81,27.08L269.1,508.9,262,484.68A199,199,0,0,0,348.9,486.1ZM321.82,588.71l57-25.65c5.7,18.53,15.68,35.63,29.93,47L360.3,635.74ZM505.66,729.79,480,727c18.52-18.54,31.34-34.21,38.46-48.46,7.13,10,12.83,18.52,12.83,27.08,1.42,5.7-1.42,11.4-5.7,15.67C519.92,727,514.21,728.37,505.66,729.79ZM216.37,233.86c7.12-2.85,12.82-1.42,15.67,2.85,1.43,2.85,4.28,7.13,2.86,14.25l-4.28,15.68-10,10ZM109.48,269.48q-10.68,21.38-8.55,55.59c2.85,31.35,12.83,61.28,32.78,88.35l-11.4,37.05a339.15,339.15,0,0,0-4.27,51.3C95.23,474.7,76.71,446.2,63.88,417.7s-20-52.73-20-77c-1.42-22.8,4.28-41.33,15.68-54.15S88.11,268.06,109.48,269.48Zm14.25,77,18.53,21.38L175,384.92l34.2,64.13a192.1,192.1,0,0,1-51.3-39.9A143.34,143.34,0,0,1,123.73,346.44Zm102.61-27.08c31.35-21.37,44.18-45.6,41.33-72.67l17.1,18.52a35.53,35.53,0,0,1,4.28,24.23c0,14.25-4.28,27.08-10,39.9-10,18.52-24.22,32.78-42.75,41.33l-2.85-17.1Zm230.87-81.22,10,1.42c17.11,21.38,25.65,45.6,25.65,75.53l-1.42,24.23-10,28.5L443,369.24c-19.95-1.42-37-8.54-49.88-21.38L380.26,335c-7.13-7.13-10-12.82-10-15.68,8.55,4.28,18.52,7.13,32.77,5.71a75.16,75.16,0,0,0,37.05-10c12.83-7.13,21.38-15.68,24.23-28.5C468.6,272.34,465.76,256.66,457.21,238.14ZM307.57,179.71c5.71,5.69,18.52,12.82,37.06,22.8,19.94,11.4,35.63,18.52,45.59,21.37l-17.09,14.26-24.23,22.8-10,2.84c-7.13-1.42-11.4-10-8.55-24.22L329,236.71l-1.42,1.43a115.2,115.2,0,0,0-1.44,19.95c2.86,10,11.42,15.67,24.23,12.82A111.77,111.77,0,0,0,356,308,123.57,123.57,0,0,0,378.83,345c24.22,25.65,57,35.63,98.33,31.35-7.12,17.1-20,34.2-37.06,48.46-15.67,14.25-35.63,25.64-57,34.19-22.8,7.12-44.17,11.41-65.55,12.83a176.76,176.76,0,0,1-62.7-7.12l-17.11-86.94c25.66-14.25,44.18-34.2,52.73-62.7,4.28-17.1,5.7-31.36,4.28-44.18,10,0,17.09-11.4,19.95-34.2l-1.42-2.85-1.44,1.42-5.69,17.11-18.53,1.42-17.1-17.1c-8.55-8.55-19.95-15.68-31.35-21.38C274.8,202.51,297.59,191.1,307.57,179.71Zm228,81.23a86.55,86.55,0,0,1,18.52,47l-8.55,69.83c-5.7,31.36-4.27,52.73,1.42,65.56l-21.37-18.52c-8.55-10-18.52-24.23-28.5-42.76,21.37-42.75,21.37-85.5,0-129.68Q518.49,241.7,535.59,260.94ZM415.89,617.21,433,628.61c11.41,5.71,22.81,10,34.2,10L509.94,670l-8.55,21.37c-7.12,12.82-18.53,24.22-35.63,34.2l-44.18-31.36c-24.23-18.52-41.32-34.19-52.73-48.44ZM160.79,97.05c10-2.85,15.68,4.28,20,17.1l15.68,134C205,335,219.22,406.3,239.17,463.31c-42.75-71.27-74.11-135.4-92.63-195.25-24.23-72.68-25.65-125.41-5.7-156.76C146.54,102.75,153.66,97.05,160.79,97.05Zm-39.9,205.22L128,275.19l29.93,72.67,12.83,28.51-10-4.28L148,365a80.27,80.27,0,0,1-28.5-41.33Z" transform="translate(-22.42 -74.25)"/><path class="f352176c-36b0-40aa-8a62-73d59b82bc72" d="M330.38,165.45,307.57,164v8.55c27.08,18.52,57,34.2,89.78,44.18l59.86,11.4C427.28,191.1,384.53,171.15,330.38,165.45Z" transform="translate(-22.42 -74.25)"/><path class="bab7ee1d-671d-4dc9-8066-40237d8f2799" d="M307.57,172.58V164l-44.17,4.28c-20,2.84-38.48,10-51.31,18.52v22.8q38.47-2.13,64.13-17.1a130.59,130.59,0,0,0,18.53-11.4Z" transform="translate(-22.42 -74.25)"/><path class="e9cdfd45-e07e-4508-8a7c-509c633c26d4" d="M401.64,242.41c-8.56-4.27-14.26-4.27-20,0-12.83,7.12-20,17.1-20,28.5-1.42,8.55,1.44,15.68,8.56,18.53l21.38-2.85a20.56,20.56,0,0,0,15.67-12.83c4.27-5.7,5.7-11.4,5.7-18.53C413,249.53,408.76,245.26,401.64,242.41Z" transform="translate(-22.42 -74.25)"/><path class="ba56b17c-0e69-4a1a-ba8b-c304d0eb29a5" d="M502.81,507.48c1.42-7.13,1.42-12.83-2.85-20-2.85-5.69-8.55-10-17.1-11.4s-18.53,1.44-28.51,7.13a93.84,93.84,0,0,1-38.46,8.56c-14.25-1.43-22.81-7.13-27.09-15.69l-19.95,8.56,24.23,21.38a62.74,62.74,0,0,1,22.81-8.56L443,500.35c18.52,5.71,32.77,12.83,45.6,25.65C495.69,521.73,500,516,502.81,507.48Z" transform="translate(-22.42 -74.25)"/><path class="e9cdfd45-e07e-4508-8a7c-509c633c26d4" d="M488.56,570.19l-14.25,19.94c-7.13,7.13-15.67,11.4-24.23,15.69,14.25,4.27,25.65,2.84,34.21-5.71L490,587.28C491.41,581.59,490,575.88,488.56,570.19Z" transform="translate(-22.42 -74.25)"/><path class="e9cdfd45-e07e-4508-8a7c-509c633c26d4" d="M470,581.59c10-11.4,14.25-24.23,15.67-37.06-17.11-17.09-34.2-25.65-49.88-28.51s-25.65-1.42-34.19,7.13c-7.13,7.12-10,18.54-7.13,32.79s14.25,28.5,29.92,44.17C443,601.53,458.64,595.84,470,581.59Z" transform="translate(-22.42 -74.25)"/><path class="be3b1d36-1fca-46e8-8117-69d265599774" d="M367.43,507.48,348.9,486.1A199,199,0,0,1,262,484.68l7.13,24.22,18.52,25.66Z" transform="translate(-22.42 -74.25)"/><path class="be3b1d36-1fca-46e8-8117-69d265599774" d="M378.83,563.06l-57,25.65,38.48,47,48.46-25.65C394.51,598.69,384.53,581.59,378.83,563.06Z" transform="translate(-22.42 -74.25)"/><path class="e9cdfd45-e07e-4508-8a7c-509c633c26d4" d="M480,727l25.64,2.84c8.55-1.42,14.26-2.84,19.95-8.55,4.28-4.27,7.12-10,5.7-15.67,0-8.56-5.7-17.1-12.83-27.08C511.36,692.74,498.54,708.41,480,727Z" transform="translate(-22.42 -74.25)"/><path class="e9cdfd45-e07e-4508-8a7c-509c633c26d4" d="M232,236.71c-2.85-4.27-8.55-5.7-15.67-2.85l4.28,42.75,10-10L234.9,251C236.32,243.84,233.47,239.56,232,236.71Z" transform="translate(-22.42 -74.25)"/><path class="f352176c-36b0-40aa-8a62-73d59b82bc72" d="M100.93,325.07q-2.13-34.2,8.55-55.59c-21.37-1.42-38.47,4.28-49.87,17.11s-17.1,31.35-15.68,54.15c0,24.23,7.12,48.46,20,77s31.35,57,54.16,84.07a339.15,339.15,0,0,1,4.27-51.3l11.4-37.05C113.76,386.35,103.78,356.42,100.93,325.07Z" transform="translate(-22.42 -74.25)"/><path class="ba56b17c-0e69-4a1a-ba8b-c304d0eb29a5" d="M142.26,367.82l-18.53-21.38a143.34,143.34,0,0,0,34.21,62.71,192.1,192.1,0,0,0,51.3,39.9L175,384.92Z" transform="translate(-22.42 -74.25)"/><path class="be3b1d36-1fca-46e8-8117-69d265599774" d="M280.5,316.52c4.27-8.56,8.55-17.11,8.55-27.08a35.53,35.53,0,0,0-4.28-24.23l-17.1-18.52c2.85,27.07-10,51.3-41.33,72.67l7.13,34.21C253.42,349.29,269.1,336.47,280.5,316.52Z" transform="translate(-22.42 -74.25)"/><path class="e9cdfd45-e07e-4508-8a7c-509c633c26d4" d="M289.05,289.44c0,10-4.28,18.52-8.55,27.08-11.4,20-27.08,32.77-47,37.05l2.85,17.1c18.53-8.55,32.78-22.81,42.75-41.33C284.77,316.52,289.05,303.69,289.05,289.44Z" transform="translate(-22.42 -74.25)"/><path class="be3b1d36-1fca-46e8-8117-69d265599774" d="M467.18,239.56l-10-1.42c8.55,18.52,11.39,34.2,7.12,48.45-2.85,12.82-11.4,21.37-24.23,28.5a75.16,75.16,0,0,1-37.05,10c-14.25,1.42-24.22-1.43-32.77-5.71,0,2.86,2.85,8.55,10,15.68l12.82,12.82,64.13,2.86L480,335l12.81-20C492.83,285.16,484.29,260.94,467.18,239.56Z" transform="translate(-22.42 -74.25)"/><path class="e9cdfd45-e07e-4508-8a7c-509c633c26d4" d="M481.44,367.82l10-28.5,1.42-24.23L480,335l-22.81,15.68-64.13-2.86c12.83,12.84,29.93,20,49.88,21.38Z" transform="translate(-22.42 -74.25)"/><path class="ba56b17c-0e69-4a1a-ba8b-c304d0eb29a5" d="M344.63,202.51c-18.54-10-31.35-17.11-37.06-22.8-10,11.39-32.77,22.8-68.4,35.62,11.4,5.7,22.8,12.83,31.35,21.38l17.1,17.1,18.53-1.42,5.69-17.11,1.44-1.42,1.42,2.85c-2.86,22.8-10,34.2-19.95,34.2,1.42,12.82,0,27.08-4.28,44.18-8.55,28.5-27.07,48.45-52.73,62.7l17.11,86.94a176.76,176.76,0,0,0,62.7,7.12c21.38-1.42,42.75-5.71,65.55-12.83,21.37-8.55,41.33-19.94,57-34.19,17.11-14.26,29.94-31.36,37.06-48.46-41.33,4.28-74.11-5.7-98.33-31.35A123.57,123.57,0,0,1,356,308a111.77,111.77,0,0,1-5.71-37c-12.81,2.85-21.37-2.85-24.23-12.82a115.2,115.2,0,0,1,1.44-19.95l1.42-1.43,1.43,2.85c-2.85,14.25,1.42,22.8,8.55,24.22l10-2.84,24.23-22.8,17.09-14.26C380.26,221,364.57,213.91,344.63,202.51Zm34.2,192.39,4.27,15.67c0,12.83-8.55,19.95-24.22,21.38l-75.53,2.85c-8.55,1.42-15.68-2.85-21.38-8.55-5.7-10-4.28-21.38,7.13-35.63q17.1-23.5,51.3-25.65c21.38,0,38.48,5.7,51.3,18.52Z" transform="translate(-22.42 -74.25)"/><path d="M383.1,410.57l-4.27-15.67-7.13-11.41C358.88,370.67,341.78,365,320.4,365q-34.22,2.13-51.3,25.65c-11.41,14.25-12.83,25.65-7.13,35.63,5.7,5.7,12.83,10,21.38,8.55L358.88,432C374.55,430.52,383.1,423.4,383.1,410.57Zm-61.28-38.48a68,68,0,0,1,31.36,7.13l-14.25,45.61-34.21,2.85L299,377.79Zm35.63,10,11.4,11.4,2.85,15.68c0,11.4-8.54,18.53-27.07,15.68Zm-84.08,15.67c2.85-5.7,11.4-12.82,19.95-18.52L299,427.68l-22.81-1.43c-4.28-2.85-7.12-5.7-8.55-11.4C267.67,410.57,269.1,404.87,273.37,397.74Z" transform="translate(-22.42 -74.25)"/><path class="e9cdfd45-e07e-4508-8a7c-509c633c26d4" d="M353.18,379.22a68,68,0,0,0-31.36-7.13L299,377.79l5.69,49.89,34.21-2.85Z" transform="translate(-22.42 -74.25)"/><path class="e9cdfd45-e07e-4508-8a7c-509c633c26d4" d="M368.85,393.47l-11.4-11.4-12.82,42.76c18.53,2.85,27.07-4.28,27.07-15.68Z" transform="translate(-22.42 -74.25)"/><path class="e9cdfd45-e07e-4508-8a7c-509c633c26d4" d="M293.32,379.22c-8.55,5.7-17.1,12.82-19.95,18.52-4.27,7.13-5.7,12.83-5.7,17.11,1.43,5.7,4.27,8.55,8.55,11.4L299,427.68Z" transform="translate(-22.42 -74.25)"/><path class="f352176c-36b0-40aa-8a62-73d59b82bc72" d="M554.11,308a86.55,86.55,0,0,0-18.52-47q-17.1-19.24-38.48-8.55c21.37,44.18,21.37,86.93,0,129.68,10,18.53,19.95,32.78,28.5,42.76L547,443.35c-5.69-12.83-7.12-34.2-1.42-65.56Z" transform="translate(-22.42 -74.25)"/><path class="e9cdfd45-e07e-4508-8a7c-509c633c26d4" d="M433,628.61l-17.09-11.4-47,28.51c11.41,14.25,28.5,29.92,52.73,48.44l44.18,31.36c17.1-10,28.51-21.38,35.63-34.2L509.94,670l-42.76-31.36C455.79,638.59,444.39,634.32,433,628.61Z" transform="translate(-22.42 -74.25)"/><path class="ba56b17c-0e69-4a1a-ba8b-c304d0eb29a5" d="M180.74,114.15c-4.27-12.82-10-20-20-17.1-7.13,0-14.25,5.7-19.95,14.25-20,31.35-18.53,84.08,5.7,156.76,18.52,59.85,49.88,124,92.63,195.25-19.95-57-34.2-128.27-42.75-215.2Z" transform="translate(-22.42 -74.25)"/><path class="be3b1d36-1fca-46e8-8117-69d265599774" d="M120.89,302.27l10,21.37c5.7,10,14.25,17.1,27.08,24.22L128,275.19Z" transform="translate(-22.42 -74.25)"/><path class="e9cdfd45-e07e-4508-8a7c-509c633c26d4" d="M130.86,323.64l-10-21.37-1.43,21.37A80.27,80.27,0,0,0,148,365l12.83,7.12,10,4.28-12.83-28.51C145.11,340.74,136.56,333.61,130.86,323.64Z" transform="translate(-22.42 -74.25)"/></svg>