<svg id="f2a4b7e6-8f19-47b4-b2da-9f98d4f55874" data-name="e37e5748-c81e-4e8b-bd2a-01b2aab33945" xmlns="http://www.w3.org/2000/svg" viewBox="0 0 550.25 691.17"><defs><style>.b23f2001-2355-408a-bf0f-29f22afd723c{fill:#fff;}.ae03df54-6779-4200-938e-acf7982d5d8d{fill:blue;}.ef810220-18df-4d26-9937-393c90c557aa{fill:#000fba;}.b2e2f5e0-dfff-4960-b4b0-d492b751c20a{fill:#022d41;}.e5dd4fe5-9dec-49ca-99b5-4233fc127637{fill:#976035;}</style></defs><path class="b23f2001-2355-408a-bf0f-29f22afd723c" d="M393.47,96.9C366.38,82.65,335,75.53,300.83,72.68l-61.25,2.85c-21.37,4.28-37.05,10-52.73,18.53L179.72,45.6C175.45,17.1,164.05,2.85,145.52,0L124.15,4.27C117,5.7,112.75,8.55,109.9,11.4,95.65,27.08,85.67,49.88,84.25,79.81c-2.86,29.92,1.42,61.27,14.25,94.05C60,171,32.94,181,17.26,202.36c-15.67,20-20,47-15.67,81.23A298.2,298.2,0,0,0,40,384.75c20,35.63,45.6,65.56,75.53,91.21-1.43-22.79-1.43-48.46,1.42-72.67l8.59-49.86c12.83,12.82,28.51,22.79,44.18,32.77l35.63,17.11,32.77,54.15c32.78,57,68.41,105.45,106.89,143.93,25.65,24.23,58.42,48.46,99.75,74.11,15.68,10,32.78,15.67,51.3,15.67,15.69,0,28.5-4.28,38.48-14.26a37.74,37.74,0,0,0,15.69-31.34c-1.44-15.68-8.56-31.35-22.81-45.6l-28.54-24.22-25.65-15.67c20-15.69,28.5-34.21,25.65-54.17-2.86-15.67-8.55-29.92-21.38-42.75,10-7.13,15.68-17.09,18.52-27.07,1.44-11.4,1.44-19.95-4.27-29.93a31.29,31.29,0,0,0-24.21-17.1c-12.82-4.29-27.07-1.44-44.17,5.69l-41.34,1.43c20-10,38.49-21.38,55.59-38.48l28.5-31.35C477.56,346.3,489,362,500.37,372s25.65,15.67,42.75,18.53C537.42,372,536,347.72,538.84,315l11.41-71.26-2.86-31.35L534.58,181c-15.67-22.79-38.48-28.5-67-17.09C449,135.38,424.81,114,393.47,96.9ZM285.15,89.75,308,91.17c54.15,5.7,96.9,25.65,126.83,62.71l-59.86-11.4c-32.78-10-62.7-25.66-89.78-44.18l-12.82,8.55a130.9,130.9,0,0,1-18.53,11.4q-25.65,15-64.13,17.1v-22.8C202.5,104,221,96.87,241,94Zm74.11,78.38c5.7-4.27,11.4-4.27,20,0,7.12,2.85,11.39,7.12,11.39,12.82,0,7.13-1.43,12.83-5.7,18.53a20.57,20.57,0,0,1-15.67,12.83l-21.38,2.85c-7.12-2.85-10-10-8.56-18.53,0-11.37,7.09-21.35,19.92-28.47ZM477.58,413.27c4.27,7.13,4.27,12.83,2.85,20-2.85,8.48-7.16,14.21-14.29,18.48-12.83-12.82-27.08-19.94-45.6-25.65l-27.07-2.85a62.75,62.75,0,0,0-22.81,8.56l-24.23-21.38,19.95-8.56c4.28,8.56,12.84,14.26,27.09,15.69A93.9,93.9,0,0,0,431.93,409c10-5.69,20-8.55,28.51-7.13S474.69,407.58,477.58,413.27ZM451.89,515.88l14.25-19.94c1.42,5.69,2.85,11.4,1.42,17.09l-5.69,12.83c-8.56,8.55-20,10-34.21,5.71C436.22,527.28,444.76,523,451.89,515.88Zm11.4-45.6c-1.42,12.83-5.69,25.66-15.67,37.06-11.4,14.25-27.08,19.94-45.61,18.52-15.67-15.67-27.08-29.92-29.92-44.17s0-25.67,7.13-32.79c8.54-8.55,18.52-10,34.19-7.13S446.18,453.19,463.29,470.28ZM326.48,411.85,345,433.23,265.2,460.31l-18.52-25.66-7.1-24.22A198.93,198.93,0,0,0,326.48,411.85ZM299.4,514.46l57-25.65c5.7,18.53,15.68,35.63,29.93,47l-48.45,25.68ZM483.24,655.54l-25.66-2.79c18.52-18.54,31.34-34.21,38.46-48.46,7.13,10,12.83,18.52,12.83,27.08,1.42,5.7-1.42,11.4-5.7,15.67C497.5,652.75,491.79,654.12,483.24,655.54ZM194,159.61c7.12-2.85,12.82-1.42,15.67,2.85,1.43,2.85,4.28,7.13,2.86,14.25l-4.28,15.68-10,10ZM87.06,195.23q-10.68,21.38-8.55,55.59c2.85,31.35,12.83,61.28,32.78,88.35l-11.4,37.05a339.12,339.12,0,0,0-4.27,51.3C72.81,400.45,54.29,372,41.46,343.45s-20-52.73-20-77c-1.42-22.8,4.28-41.33,15.68-54.15S65.69,193.81,87.06,195.23Zm14.25,77,18.53,21.38,32.74,17.06,34.2,64.13a192.08,192.08,0,0,1-51.3-39.9,143.38,143.38,0,0,1-34.17-62.71Zm102.61-27.08c31.35-21.37,44.18-45.6,41.33-72.67L262.35,191a35.54,35.54,0,0,1,4.28,24.23c0,14.25-4.28,27.08-10,39.9-10,18.52-24.22,32.78-42.75,41.33L211,279.36Zm230.87-81.22,10,1.42c17.11,21.38,25.65,45.6,25.65,75.53L469,265.11l-10,28.5L420.58,295c-19.95-1.42-37-8.54-49.88-21.38l-12.86-12.86c-7.13-7.13-10-12.82-10-15.68,8.55,4.28,18.52,7.13,32.77,5.71a75.18,75.18,0,0,0,37.05-10c12.83-7.13,21.38-15.68,24.23-28.5,4.29-14.19,1.45-29.87-7.1-48.39ZM285.15,105.46c5.71,5.69,18.52,12.82,37.06,22.8,19.94,11.4,35.63,18.52,45.59,21.37l-17.09,14.26-24.23,22.8-10,2.84c-7.13-1.42-11.4-10-8.55-24.22l-1.35-2.85-1.42,1.43a114.91,114.91,0,0,0-1.44,20c2.86,10,11.42,15.67,24.23,12.82a111.77,111.77,0,0,0,5.63,37.09,123.42,123.42,0,0,0,22.83,37c24.22,25.65,57,35.63,98.33,31.35-7.12,17.1-20,34.2-37.06,48.46-15.67,14.25-35.63,25.64-57,34.19-22.8,7.12-44.17,11.41-65.55,12.83a176.78,176.78,0,0,1-62.7-7.12l-17.11-86.94c25.66-14.25,44.18-34.2,52.73-62.7,4.28-17.1,5.7-31.36,4.28-44.18,10,0,17.09-11.4,19.95-34.2l-1.42-2.85L289.42,161l-5.69,17.11-18.53,1.42-17.1-17.1c-8.55-8.55-19.95-15.68-31.35-21.38C252.38,128.26,275.17,116.85,285.15,105.46Zm228,81.23a86.54,86.54,0,0,1,18.52,47l-8.55,69.83c-5.7,31.36-4.27,52.73,1.42,65.56l-21.37-18.52c-8.55-10-18.52-24.23-28.5-42.76,21.37-42.75,21.37-85.5,0-129.68q21.4-10.67,38.5,8.57ZM393.47,543l17.11,11.4c11.41,5.71,22.81,10,34.2,10l42.74,31.39L479,617.12c-7.12,12.82-18.53,24.22-35.63,34.2L399.16,620c-24.23-18.52-41.32-34.19-52.73-48.44ZM138.37,22.8c10-2.85,15.68,4.28,20,17.1l15.68,134c8.53,86.85,22.75,158.15,42.7,215.16-42.75-71.27-74.11-135.4-92.63-195.25C99.89,121.13,98.47,68.4,118.42,37.05,124.12,28.5,131.24,22.8,138.37,22.8ZM98.47,228l7.11-27.08,29.93,72.67,12.83,28.51-10-4.28-12.76-7.09a80.34,80.34,0,0,1-28.5-41.33Z" transform="translate(-0.03)"/><path class="ae03df54-6779-4200-938e-acf7982d5d8d" d="M308,91.2l-22.81-1.45V98.3c27.08,18.52,57,34.2,89.78,44.18l59.86,11.4C404.86,116.85,362.11,96.9,308,91.2Z" transform="translate(-0.03)"/><path class="ef810220-18df-4d26-9937-393c90c557aa" d="M285.15,98.33V89.75L241,94c-20,2.84-38.48,10-51.31,18.52v22.8q38.47-2.13,64.13-17.1a130.9,130.9,0,0,0,18.53-11.4Z" transform="translate(-0.03)"/><path d="M379.22,168.16c-8.56-4.27-14.26-4.27-20,0-12.83,7.12-20,17.1-20,28.5-1.42,8.55,1.44,15.68,8.56,18.53l21.38-2.85a20.57,20.57,0,0,0,15.67-12.83c4.27-5.7,5.7-11.4,5.7-18.53C390.58,175.28,386.34,171,379.22,168.16Z" transform="translate(-0.03)"/><path class="b2e2f5e0-dfff-4960-b4b0-d492b751c20a" d="M480.39,433.23c1.42-7.13,1.42-12.83-2.85-20-2.85-5.69-8.55-10-17.1-11.4s-18.53,1.44-28.51,7.13a93.9,93.9,0,0,1-38.46,8.56c-14.25-1.43-22.81-7.13-27.09-15.69l-19.95,8.56,24.23,21.38a62.75,62.75,0,0,1,22.81-8.56l27.11,2.89c18.52,5.71,32.77,12.83,45.6,25.65C473.27,447.48,477.58,441.75,480.39,433.23Z" transform="translate(-0.03)"/><path d="M466.14,495.94l-14.25,19.94c-7.13,7.13-15.67,11.4-24.23,15.69,14.25,4.27,25.65,2.84,34.21-5.71L467.58,513C469,507.34,467.58,501.63,466.14,495.94Z" transform="translate(-0.03)"/><path d="M447.58,507.34c10-11.4,14.25-24.23,15.67-37.06-17.11-17.09-34.2-25.65-49.88-28.51s-25.65-1.42-34.19,7.13c-7.13,7.12-10,18.54-7.13,32.79s14.25,28.5,29.92,44.17C420.58,527.28,436.22,521.59,447.58,507.34Z" transform="translate(-0.03)"/><path class="e5dd4fe5-9dec-49ca-99b5-4233fc127637" d="M345,433.23l-18.53-21.38a198.93,198.93,0,0,1-86.9-1.42l7.13,24.22,18.52,25.66Z" transform="translate(-0.03)"/><path class="e5dd4fe5-9dec-49ca-99b5-4233fc127637" d="M356.41,488.81l-57,25.65,38.48,47,48.46-25.65C372.09,524.44,362.11,507.34,356.41,488.81Z" transform="translate(-0.03)"/><path d="M457.58,652.75l25.64,2.84c8.55-1.42,14.26-2.84,19.95-8.55,4.28-4.27,7.12-10,5.7-15.67,0-8.56-5.7-17.1-12.83-27.08C488.94,618.49,476.12,634.16,457.58,652.75Z" transform="translate(-0.03)"/><path d="M209.58,162.46c-2.85-4.27-8.55-5.7-15.67-2.85l4.28,42.75,10-10,4.29-15.61C213.9,169.59,211.05,165.31,209.58,162.46Z" transform="translate(-0.03)"/><path class="ae03df54-6779-4200-938e-acf7982d5d8d" d="M78.51,250.82q-2.13-34.2,8.55-55.59c-21.37-1.42-38.47,4.28-49.87,17.11s-17.1,31.35-15.68,54.15c0,24.23,7.12,48.46,20,77s31.35,57,54.16,84.07a339.12,339.12,0,0,1,4.27-51.3l11.4-37.05C91.34,312.1,81.36,282.17,78.51,250.82Z" transform="translate(-0.03)"/><path class="b2e2f5e0-dfff-4960-b4b0-d492b751c20a" d="M119.84,293.57l-18.53-21.38a143.35,143.35,0,0,0,34.21,62.71,192.08,192.08,0,0,0,51.3,39.9l-34.24-64.13Z" transform="translate(-0.03)"/><path class="e5dd4fe5-9dec-49ca-99b5-4233fc127637" d="M258.08,242.27c4.27-8.56,8.55-17.11,8.55-27.08A35.54,35.54,0,0,0,262.35,191l-17.1-18.52c2.85,27.07-10,51.3-41.33,72.67l7.13,34.21C231,275,246.68,262.22,258.08,242.27Z" transform="translate(-0.03)"/><path d="M266.63,215.19c0,10-4.28,18.52-8.55,27.08-11.4,20-27.08,32.77-47,37l2.85,17.1c18.53-8.55,32.78-22.81,42.75-41.33C262.35,242.27,266.63,229.44,266.63,215.19Z" transform="translate(-0.03)"/><path class="e5dd4fe5-9dec-49ca-99b5-4233fc127637" d="M444.76,165.31l-10-1.42c8.55,18.52,11.39,34.2,7.12,48.45-2.85,12.82-11.4,21.37-24.23,28.5a75.18,75.18,0,0,1-37,10c-14.25,1.42-24.22-1.43-32.77-5.71,0,2.86,2.85,8.55,10,15.68l12.82,12.82,64.13,2.86,22.8-15.74,12.81-20C470.41,210.91,461.87,186.69,444.76,165.31Z" transform="translate(-0.03)"/><path d="M459,293.57l10-28.5,1.42-24.23-12.86,19.91-22.81,15.68-64.13-2.86c12.83,12.84,29.93,20,49.88,21.38Z" transform="translate(-0.03)"/><path class="b2e2f5e0-dfff-4960-b4b0-d492b751c20a" d="M322.21,128.26c-18.54-10-31.35-17.11-37.06-22.8-10,11.39-32.77,22.8-68.4,35.62,11.4,5.7,22.8,12.83,31.35,21.38l17.1,17.1,18.53-1.42L289.42,161l1.44-1.42,1.42,2.85c-2.86,22.8-10,34.2-19.95,34.2,1.42,12.82,0,27.08-4.28,44.18-8.55,28.5-27.07,48.45-52.73,62.7l17.11,86.94a176.78,176.78,0,0,0,62.7,7.12c21.38-1.42,42.75-5.71,65.55-12.83,21.37-8.55,41.33-19.94,57-34.19,17.11-14.26,29.94-31.36,37.06-48.46-41.33,4.28-74.11-5.7-98.33-31.35a123.52,123.52,0,0,1-22.83-37,111.75,111.75,0,0,1-5.71-37c-12.81,2.85-21.37-2.85-24.23-12.82a114.91,114.91,0,0,1,1.44-20l1.42-1.43,1.43,2.85c-2.85,14.25,1.42,22.8,8.55,24.22l10-2.84L350.71,164l17.09-14.26C357.84,146.75,342.15,139.66,322.21,128.26Zm34.2,192.39,4.27,15.67c0,12.83-8.55,19.95-24.22,21.38l-75.53,2.85c-8.55,1.42-15.68-2.85-21.38-8.55-5.7-10-4.28-21.38,7.13-35.63q17.1-23.5,51.3-25.65c21.38,0,38.48,5.7,51.3,18.52Z" transform="translate(-0.03)"/><path class="b23f2001-2355-408a-bf0f-29f22afd723c" d="M360.68,336.32l-4.27-15.67-7.13-11.41c-12.82-12.82-29.92-18.49-51.3-18.49q-34.22,2.13-51.3,25.65c-11.41,14.25-12.83,25.65-7.13,35.63,5.7,5.7,12.83,10,21.38,8.55l75.53-2.83C352.13,356.27,360.68,349.15,360.68,336.32ZM299.4,297.84A67.94,67.94,0,0,1,330.76,305l-14.25,45.61-34.21,2.85-5.72-49.89Zm35.63,10,11.4,11.4,2.85,15.68c0,11.4-8.54,18.53-27.07,15.68ZM251,323.51c2.85-5.7,11.4-12.82,19.95-18.52l5.68,48.44L253.77,352c-4.28-2.85-7.12-5.7-8.55-11.4,0-4.28,1.46-10,5.73-17.11Z" transform="translate(-0.03)"/><path d="M330.76,305a67.94,67.94,0,0,0-31.36-7.13l-22.82,5.7,5.69,49.89,34.21-2.85Z" transform="translate(-0.03)"/><path d="M346.43,319.22,335,307.82l-12.82,42.76c18.53,2.85,27.07-4.28,27.07-15.68Z" transform="translate(-0.03)"/><path d="M270.9,305c-8.55,5.7-17.1,12.82-19.95,18.52-4.27,7.13-5.7,12.83-5.7,17.11,1.43,5.7,4.27,8.55,8.55,11.4l22.78,1.43Z" transform="translate(-0.03)"/><path class="ae03df54-6779-4200-938e-acf7982d5d8d" d="M531.69,233.75a86.54,86.54,0,0,0-18.52-47q-17.1-19.25-38.48-8.55c21.37,44.18,21.37,86.93,0,129.68,10,18.53,19.95,32.78,28.5,42.76l21.39,18.46c-5.69-12.83-7.12-34.2-1.42-65.56Z" transform="translate(-0.03)"/><path d="M410.58,554.36,393.49,543l-47,28.51c11.41,14.25,28.5,29.92,52.73,48.44l44.18,31.36c17.1-10,28.51-21.38,35.63-34.2l8.49-21.32-42.76-31.36C433.37,564.34,422,560.07,410.58,554.36Z" transform="translate(-0.03)"/><path class="b2e2f5e0-dfff-4960-b4b0-d492b751c20a" d="M158.32,39.9c-4.27-12.82-10-20-20-17.1-7.13,0-14.25,5.7-19.95,14.25-20,31.35-18.53,84.08,5.7,156.76,18.52,59.85,49.88,124,92.63,195.25-19.95-57-34.2-128.27-42.75-215.2Z" transform="translate(-0.03)"/><path class="e5dd4fe5-9dec-49ca-99b5-4233fc127637" d="M98.47,228l10,21.37c5.7,10,14.25,17.1,27.08,24.22l-30-72.67Z" transform="translate(-0.03)"/><path d="M108.44,249.39,98.44,228,97,249.39a80.24,80.24,0,0,0,28.57,41.36l12.83,7.12,10,4.28-12.83-28.51C122.69,266.49,114.14,259.36,108.44,249.39Z" transform="translate(-0.03)"/></svg>