<svg id="b313ba69-ee38-4850-be61-3cc1fc4b9c4c" data-name="Layer 1" xmlns="http://www.w3.org/2000/svg" viewBox="0 0 497.74 709.22"><defs><style>.be4499d9-5388-475a-8050-2172b92bd4fc{fill:#fcbbc4;}.a0460c07-47c4-4c17-bbdc-6732fbe55a34{fill:#fff;}.f59bffb9-b62e-49c5-bb03-6890497438a7{fill:#2d568c;}.b7e32df5-8bcf-4f8e-870a-3e8e12f436d4{fill:#50394f;}.f1c500f7-1f88-4817-a0e8-68b7ff7be62a{fill:#b3dc1f;}.ed4d0028-be7a-4c5a-9cc3-f9c3ea515b30{fill:#98adb2;}</style></defs><path d="M550.08,552.42H532.46a195.44,195.44,0,0,0,12.82-52.81c1.59-19.21,0-38.42-6.41-52.83V442c1.59-1.61,4.82-1.61,9.6,3.19,1.61-4.8,0-11.19-3.19-19.2l-12.82-17.61c-1.59-3.21-1.59-4.8,1.61-4.8l9.62,3.19c3.18-4.78-3.23-14.4-17.62-28.8l-36.81-32,8-14.4,1.6-8-33.61,8,3.19-16-6.39-11.21V203.52c0-52.81-1.61-86.43-4.8-99.23l-16-32-25.6-25.6c-28.82-19.21-60.83-27.21-96-25.62l-35.21,3.2L250.79,35.47q-26.4,12-48,38.41c-16,17.61-24,33.61-25.6,48-3.2,35.2-3.2,83.22-1.59,144l-9.62-1.6h-11.2c-9.6,1.6-17.6,8-22.4,17.6q-4.8,12-4.8,28.81l-75.22-6.4L113.15,354l-.28.17a29.62,29.62,0,0,1,7.18,5.37l1.1-.74,6.41,4.81-38.42,20.8c-14.41,11.21-22.41,22.4-22.41,32l8-6.39,14.41-1.61L83,414.49l.15.3a3,3,0,0,0,1.66.79c-.83.83-1.25,0-1.66-.79l-.25-.2-1.8,1.79-2,1.28-.43.28c-1.87,5.15-5.26,8.32-8.64,11.84-.34.44-.69.88-1,1.33L58,450.89a47.23,47.23,0,0,0-2.45,8.71l-3.19,9.59,3.19,9.6,19.2-25.6a133,133,0,0,0-9.59,51.06,86.11,86.11,0,0,1,1.57,11.36h0a101.36,101.36,0,0,0,14.41,40l25.6,36.8-28.8,17.62,80,4.78,4.8,25.62,36.82-14.4,4.8,12.79,30.4-19.2-14.39-24,9.59-6.41-20.8-28.81-33.6,24c-3.21-12.8-6.41-24-8-38.4,0-14.41,3.19-25.62,6.4-38.42l.58-.16c.29-4.73,2.31-7.82,4.72-11.23l-.51.19c3.21-11.21,9.62-20.81,16-30.4a191.43,191.43,0,0,1,25.62-25.62l32,28.8-.78.29c1.67,1.89,4.25,3.32,6,5.14l1-.54c-1.57-2.91-3.25-4.38-6.39-4.38,3.14,0,4.82,1.47,6.39,4.38l.13-.07c24,27.19,28.82,49.61,17.61,72l-20.8,22.4L234.78,586H276.4l-104,144C214,720.47,246,702.86,270,677.26l-6.4,20.81,44.81-30.41,22.4-67.22,4.81,57.62L374,677.26l-1.6-20.81,40,27.21q28.82,16.79,57.62,24l-46.41-59.22c-19.21-24-30.42-44.81-36.82-60.82h40c-14.4-11.2-25.6-22.41-33.61-36.82-9.59-14.39-12.8-24-12.8-32,1.6-9.59,4.8-19.19,9.6-25.6l19.21-20.8,49.61-3.21,8,12.82c11.21,27.2,17.6,49.61,20.82,70.41H470.06l4.79,20.81-16-1.6c-6.41,1.6-11.19,4.8-16,8-1.59,1.6-1.59,4.8-1.59,8l1.59,11.2c4.82,9.61,11.21,17.61,20.82,22.41s19.19,8,30.4,8L522.87,594l-12.8-8ZM468.44,336.36l22.42-4.8L470.06,354c-8-1.6-17.62,0-27.22,6.41l3.21-4.8,3.2-1.61,6.41-4.79,3.19-4.81Zm-6.39-27.21c3.2,4.8,3.2,9.6,1.61,14.41L457.25,338c-6.41,11.21-12.81,14.4-19.21,14.4l-4.79-1.6-1.6-4.8c-3.2-8-1.61-14.4,0-20.8l12.79-16,9.61-3.2ZM183.58,225.93v-56l1.59-32,6.41-22.4L198,97.89l8-11.2,8-11.21,11.2-11.2h1.6c9.61-9.6,22.41-17.6,36.82-24l17.6-4.8,33.61-4.8-1.6-1.61L334,30.67l11.21,1.6,17.6,3.2,22.41,8,40,25.61L438,83.49l12.8,35.21,1.6,24v62.41l1.61,44.81q-12-2.4-19.21-9.6-12-12-19.19-43.22a52.78,52.78,0,0,1-11.21,25.62c-6.41,9.6-14.41,16-22.41,17.6l-46.41,8-152-1.59Zm1.59,25.61L342,254.74l30.41-4.81c22.4-4.8,36.81-17.6,43.22-36.81,3.18,28.81,16,43.21,36.79,43.21v30.42H207.59l-24-17.61Zm-48,46.41,6.41-16c3.18-8,8-11.19,16-11.19l22.4,6.39L199.58,290l12.8,11.2,11.21,11.2-1.61,48c-9.6,6.39-19.21,9.6-30.4,11.2-9.61,1.6-19.21,0-28.82-6.4-11.19-8-17.6-17.6-22.4-28.81C137.16,323.56,135.56,312.35,137.16,298ZM174,592.43l33.62-24L220.39,586l-12.8,8-4.82-9.61h-3.19l12.8,32,3.21-3.2-4.82-12.8,3.21-3.21,11.2,19.21-17.59,12.8-6.41-11.19-33.61,12.79-3.2-22.4-68.82-3.21,67.21-46.41,3.2,17.61Zm126.44,70.41-20.8,17.62,8-32c-19.21,24-51.22,48-92.84,67.22,40-49.61,72-92.84,92.84-129.63h41.61Zm104-22.39,38.4,48c-9.59-3.2-25.6-11.2-43.2-22.4L358,635.65l4.8,28.8-19.2-11.2L338.81,586h38.42Zm-17.61-75.23L398,578H258.79l12.82-12.82L286,547.62l57.62,1.6,8,14.41,4.8-12.82,22.39,1.61Zm-35.2-12.8-11.21-35.21h22.4Zm16-35.21h1.6c0,11.21,1.59,19.21,6.4,28.82h-16Zm-24,27.21-56-1.61c4.8-11.19,6.39-19.19,6.39-25.6h40Zm25.61-32H292.41c-4.8-16-16-35.21-38.42-56l-94.42-81.62L74.73,314l54.43,3.21c0,11.2,3.2,20.8,8,30.41a108,108,0,0,0,22.41,24c9.6,6.4,20.8,8,32,6.4s22.4-4.8,30.4-12.8l6.41,27.2,3.2,8,6.4,8,3.2-1.61,1.59-3.19L247.6,378l12.8,24c8,8,14.39,14.39,22.4,17.6H286l1.61-1.6L286,408.38l-6.39-11.21c24,19.21,52.81,30.42,86.41,30.42,0,9.59,4.8,17.6,9.61,25.6l20.81,17.6C382,483.61,372.43,498,369.23,512.41Zm107.21-65.63c-6.38,9.61-14.39,14.41-24,17.62l-36.79,3.2c-12.82-3.2-24-9.6-32-19.21-12.82-11.21-16-35.21-11.21-68.82L338.81,378c-9.59-3.2-19.19-6.4-25.6-11.21-9.6-6.39-14.41-14.4-17.6-24-4.81-17.6-8-33.61-4.81-48H398l20.8,30.42,14.42-28.81h19.19v4.8l-16,9.6-9.61,16c-3.19,12.81-1.6,22.42,6.41,27.21l3.2,4.8-1.61,6.41v3.2l25.6-8c9.62-1.61,16,0,20.82,6.39l3.19,6.41-4.78-4.8-6.41-3.2-1.6,4.8v6.4l-8-8-9.61-3.2-3.21,4.8,1.6,4.8,12.81,14.4v-1.59l-9.59-16,12.78,6.4,11.23,8h1.59l-4.82-14.41,8,6.4,6.41,6.4,3.2,16-1.61,16c-6.39-4.8-12.78-8-22.39-8a35.1,35.1,0,0,0-22.4,3.2c-11.21,4.8-20.82,9.6-28.83,17.6L398,456.39V458l27.21-27.22c9.6-6.4,20.81-12.79,30.42-16l19.19-1.59a24.38,24.38,0,0,1,16,6.41A50.4,50.4,0,0,1,476.44,446.78Zm-24,156.86-4.78-9.6c0-4.81-1.61-8,0-11.22l9.59,6.41h-1.59v3.2l4.78,3.21Zm17.62,6.41-1.62,6.39-11.19-8,6.41-11.21,8,8Zm43.21-14.41-20.82,27.19-19.19-4.78v-4.81l3.18-4.8,11.23,8,8-11.21L498.86,594h-3.19l-11.22,14.4-16-14.4,17.62,3.19-30.4-17.6L468.44,578l16,1.59-4.78-19.21,52.79-1.6L498.86,586Z" transform="translate(-52.34 -20.86)"/><path d="M84.85,415.58a3,3,0,0,1-1.66-.79C83.6,415.61,84,416.41,84.85,415.58Z" transform="translate(-52.34 -20.86)"/><path d="M83.19,414.79l-.15-.3-.1.1Z" transform="translate(-52.34 -20.86)"/><path class="be4499d9-5388-475a-8050-2172b92bd4fc" d="M431.65,346l1.6,4.8,4.79,1.6c6.4,0,12.8-3.19,19.21-14.4l6.41-14.4c1.59-4.81,1.59-9.61-1.61-14.41l-8-3.2-9.61,3.2-12.79,16c-1.61,6.4-3.2,12.8,0,20.8Zm19.19-32,3.21,4.8v12.81l-3.21,11.2c-3.18,3.2-4.79,4.81-6.4,4.81-1.6-1.61-3.19-3.21-3.19-6.41v-12.8l3.19-11.2,6.4-3.21Z" transform="translate(-52.34 -20.86)"/><path d="M454.05,318.75l-3.21-4.8-6.4,3.21-3.19,11.2v12.8c0,3.2,1.59,4.8,3.19,6.41,1.61,0,3.22-1.61,6.4-4.81l3.21-11.2V318.75Z" transform="translate(-52.34 -20.86)"/><path class="a0460c07-47c4-4c17-bbdc-6732fbe55a34" d="M369.23,517.21h-1.6l-8,28.82h16c-4.81-9.61-6.4-17.61-6.4-28.82Z" transform="translate(-52.34 -20.86)"/><polygon class="f59bffb9-b62e-49c5-bb03-6890497438a7" points="334.49 544.36 326.49 531.56 304.09 529.95 299.29 542.76 291.29 528.35 233.66 526.76 219.27 544.36 206.45 557.18 345.7 557.18 334.49 544.36 334.49 544.36"/><polygon class="b7e32df5-8bcf-4f8e-870a-3e8e12f436d4" points="288.09 496.34 299.29 531.56 310.48 496.34 288.09 496.34 288.09 496.34"/><path class="a0460c07-47c4-4c17-bbdc-6732fbe55a34" d="M294,517.21c0,6.41-1.59,14.41-6.39,25.6l56,1.61L334,517.21Z" transform="translate(-52.34 -20.86)"/><path class="a0460c07-47c4-4c17-bbdc-6732fbe55a34" d="M300.41,662.84,329.22,586H287.61c-20.82,36.79-52.83,80-92.84,129.63,41.62-19.21,73.63-43.21,92.84-67.22l-8,32,20.8-17.62Z" transform="translate(-52.34 -20.86)"/><path class="a0460c07-47c4-4c17-bbdc-6732fbe55a34" d="M338.81,586l4.81,67.21,19.2,11.2-4.8-28.8,41.62,30.41c17.6,11.2,33.61,19.2,43.2,22.4l-38.4-48L377.23,586Z" transform="translate(-52.34 -20.86)"/><path class="a0460c07-47c4-4c17-bbdc-6732fbe55a34" d="M199.58,584.43h3.19l4.82,9.61,12.8-8-12.8-17.61-33.62,24-8-16-3.2-17.61L95.55,605.23l68.82,3.21,3.2,22.4,33.61-12.79,6.41,11.19,17.59-12.8L214,597.23l-3.21,3.21,4.82,12.8-3.21,3.2-12.8-32Z" transform="translate(-52.34 -20.86)"/><path class="a0460c07-47c4-4c17-bbdc-6732fbe55a34" d="M364.43,35.47h-1.61l-17.6-3.2L334,30.67l9.61,14.4c4.8,6.41,4.8,14.41,3.2,22.41-3.2,9.6-8,19.21-17.6,30.41A90.4,90.4,0,0,1,290.8,123.5c-19.19,8-36.81,11.2-54.41,9.59-20.8,0-35.21-6.39-44.81-17.59l-6.41,22.4-1.59,32,56,1.6q45.6,0,81.61-19.21l33.61-22.4c9.61-9.61,17.61-20.81,22.41-32,12.8-27.2,8-46.41-12.8-62.42Z" transform="translate(-52.34 -20.86)"/><path class="b7e32df5-8bcf-4f8e-870a-3e8e12f436d4" d="M362.82,35.47h1.61c20.8,16,25.6,35.22,12.8,62.42-4.8,11.2-12.8,22.4-22.41,32l-33.61,22.4q-36,19.2-81.61,19.21l-56-1.6v11.2l112-3.2c40-11.2,68.82-33.61,89.62-64a68.42,68.42,0,0,0,9.6-35.2c1.61-14.41-1.6-25.62-9.6-35.22l-22.41-8Z" transform="translate(-52.34 -20.86)"/><path class="b7e32df5-8bcf-4f8e-870a-3e8e12f436d4" d="M425.24,69.08h0c0,33.61,9.6,57.62,27.2,73.63l-1.6-24c-4.79-4.81-8-11.21-11.19-20.81L438,83.49l-12.8-14.41Z" transform="translate(-52.34 -20.86)"/><path class="a0460c07-47c4-4c17-bbdc-6732fbe55a34" d="M439.65,97.89c3.19,9.6,6.4,16,11.19,20.81L438,83.49l1.61,14.4Z" transform="translate(-52.34 -20.86)"/><path class="a0460c07-47c4-4c17-bbdc-6732fbe55a34" d="M292.41,49.87c3.2,6.4,1.59,12.81-3.21,20.82s-12.8,16-24,19.2l-30.42,3.19c-4.8-1.59-9.6-3.19-12.8-6.39-4.8-3.2-6.39-6.41-8-11.21l-8,11.21-8,11.2c4.8,12.81,16,19.2,33.62,22.4l35.2-1.59c11.21-1.61,20.82-6.41,30.42-11.21l24-19.21,14.41-24a27.75,27.75,0,0,0-4.81-22.41l-8-8-8-3.2-33.61,4.8,11.21,14.4Z" transform="translate(-52.34 -20.86)"/><path class="b7e32df5-8bcf-4f8e-870a-3e8e12f436d4" d="M289.2,70.69c4.8-8,6.41-14.42,3.21-20.82L281.2,35.47l-17.6,4.8Q278,45.07,278,54.68c1.61,8-1.6,12.8-6.39,17.6a30.93,30.93,0,0,1-14.42,8l-17.59,1.6c-4.82-1.6-9.62-1.6-12.82-4.8l-3.19-6.39c0-1.61,0-4.81,1.59-6.41h0L214,75.48h0c1.61,4.8,3.2,8,8,11.21,3.2,3.2,8,4.8,12.8,6.39l30.42-3.19c11.2-3.2,19.21-11.2,24-19.2Z" transform="translate(-52.34 -20.86)"/><path class="b7e32df5-8bcf-4f8e-870a-3e8e12f436d4" d="M313.21,29.06l1.6,1.61,8,3.2,8,8a27.75,27.75,0,0,1,4.81,22.41l-14.41,24-24,19.21c-9.6,4.8-19.21,9.6-30.42,11.21l-35.2,1.59c-17.61-3.2-28.82-9.59-33.62-22.4h0l-6.39,17.61c9.6,11.2,24,17.59,44.81,17.59,17.6,1.61,35.22-1.59,54.41-9.59a90.4,90.4,0,0,0,38.42-25.61c9.59-11.2,14.4-20.81,17.6-30.41,1.6-8,1.6-16-3.2-22.41L334,30.67l-20.8-1.61Z" transform="translate(-52.34 -20.86)"/><path class="a0460c07-47c4-4c17-bbdc-6732fbe55a34" d="M225.18,64.28c-1.59,1.6-1.59,4.8-1.59,6.41l3.19,6.39c3.2,3.2,8,3.2,12.82,4.8l17.59-1.6a30.93,30.93,0,0,0,14.42-8c4.79-4.8,8-9.6,6.39-17.6q0-9.61-14.4-14.41c-14.41,6.41-27.21,14.41-36.82,24Z" transform="translate(-52.34 -20.86)"/><path class="a0460c07-47c4-4c17-bbdc-6732fbe55a34" d="M454.05,249.93l-1.61-44.81c-16-16-28.79-36.81-35.2-64A177.14,177.14,0,0,1,398,184.31c-11.2,16-22.4,27.21-38.4,32-24,9.61-51.22,14.41-84.84,14.41l-88-3.2-3.19-1.6v20.81l152,1.59,46.41-8c8-1.59,16-8,22.41-17.6a52.78,52.78,0,0,0,11.21-25.62q7.19,31.21,19.19,43.22,7.21,7.2,19.21,9.6Z" transform="translate(-52.34 -20.86)"/><polygon points="132.84 205.06 131.24 205.06 134.43 206.66 132.84 205.06 132.84 205.06"/><path class="a0460c07-47c4-4c17-bbdc-6732fbe55a34" d="M425.24,69.08l-40-25.61c8,9.6,11.21,20.81,9.6,35.22a68.42,68.42,0,0,1-9.6,35.2c-20.8,30.41-49.61,52.82-89.62,64l-112,3.2v35.21l96,3.21q64.8-4.82,96-28.81a77.33,77.33,0,0,0,22.4-32l19.21-48c1.59,11.2,6.41,24,12.8,40a354.44,354.44,0,0,0,22.4,38.4v-46.4c-17.6-16-27.2-40-27.2-73.63Z" transform="translate(-52.34 -20.86)"/><path class="b7e32df5-8bcf-4f8e-870a-3e8e12f436d4" d="M430,150.71c-6.39-16-11.21-28.81-12.8-40l-19.21,48a77.33,77.33,0,0,1-22.4,32q-31.22,24-96,28.81l-96-3.21v9.61h1.59l1.6,1.6,88,3.2c33.62,0,60.83-4.8,84.84-14.41,16-4.8,27.2-16,38.4-32a177.14,177.14,0,0,0,19.21-43.21c6.41,27.21,19.21,48,35.2,64v-16a354.44,354.44,0,0,1-22.4-38.4Z" transform="translate(-52.34 -20.86)"/><path class="f1c500f7-1f88-4817-a0e8-68b7ff7be62a" d="M222,360.37l1.61-48-11.21-11.2L199.58,290,182,277.14l-22.4-6.39c-8,0-12.82,3.19-16,11.19l-6.41,16c-1.6,14.4,0,25.61,3.2,38.41,4.8,11.21,11.21,20.81,22.4,28.81,9.61,6.4,19.21,8,28.82,6.4,11.19-1.6,20.8-4.81,30.4-11.2Zm-14.39-19.21-9.62,1.6-28.8-11.2,1.59,6.4,4.82,4.8,16,16v1.61l-14.41-9.61-9.6-12.8-1.61-9.6,3.21-1.61H174l28.8,12.81c3.21,0,3.21-3.2-3.19-12.81L185.17,306c-6.41-6.4-12.8-12.8-19.21-16h-3.2l-3.19,1.6-4.81,24,1.61,24v1.6l-3.21-3.2c-4.8-20.8-3.2-36.81,3.21-48l6.39-3.2h8c11.21,6.4,20.82,16,28.82,30.41,8,9.59,9.6,17.59,8,24Z" transform="translate(-52.34 -20.86)"/><path d="M198,342.76l9.62-1.6c1.59-6.41,0-14.41-8-24-8-14.41-17.61-24-28.82-30.41h-8l-6.39,3.2c-6.41,11.2-8,27.21-3.21,48l3.21,3.2v-1.6l-1.61-24,4.81-24,3.19-1.6H166c6.41,3.2,12.8,9.6,19.21,16l14.41,20.8c6.4,9.61,6.4,12.81,3.19,12.81L174,326.75h-4.8L166,328.36l1.61,9.6,9.6,12.8,14.41,9.61v-1.61l-16-16-4.82-4.8-1.59-6.4,28.8,11.2Z" transform="translate(-52.34 -20.86)"/><path class="f1c500f7-1f88-4817-a0e8-68b7ff7be62a" d="M290.8,294.74c-3.19,14.41,0,30.42,4.81,48,3.19,9.6,8,17.61,17.6,24,6.41,4.81,16,8,25.6,11.21l33.62,1.6c-4.8,33.61-1.61,57.61,11.21,68.82,8,9.61,19.19,16,32,19.21l36.79-3.2c9.61-3.21,17.62-8,24-17.62a50.45,50.45,0,0,0,14.41-27.19,24.38,24.38,0,0,0-16-6.41l-19.19,1.59c-9.61,3.22-20.82,9.61-30.42,16L398,458v-1.61l20.8-27.21c8-8,17.62-12.8,28.83-17.6a35.1,35.1,0,0,1,22.4-3.2c9.61,0,16,3.2,22.39,8l1.61-16-3.2-16-6.41-6.4-8-6.4L481.26,386h-1.59l-11.23-8-12.78-6.4,9.59,16v1.59l-12.81-14.4-1.6-4.8,3.21-4.8,9.61,3.2,8,8V370l1.6-4.8,6.41,3.2,4.78,4.8-3.19-6.41c-4.81-6.39-11.2-8-20.82-6.39l-25.6,8v-3.2l1.61-6.41-3.2-4.8c-8-4.79-9.6-14.4-6.41-27.21l9.61-16,16-9.6v-4.8H433.25l-14.42,28.81L398,294.74ZM327.62,338l4.8,4.8,3.2,6.41,16,14.4,20.8,6.4h0c-16,0-28.81-6.4-36.81-16-4.81-4.79-8-9.6-8-16ZM358,298l20.8,1.6,14.41,11.2q9.61,12,9.6,24,2.42,14.42-4.8,24c-4.8,6.41-9.59,8-16,8-4.8-1.59-11.21-3.19-16-6.39-16-12.8-24-27.21-22.4-43.21q0-4.82,14.4-19.21Z" transform="translate(-52.34 -20.86)"/><path d="M332.42,342.76l-4.8-4.8c0,6.4,3.19,11.21,8,16,8,9.61,20.81,16,36.81,16h0l-20.8-6.4-16-14.4-3.2-6.41Z" transform="translate(-52.34 -20.86)"/><path d="M378.82,299.55,358,298q-14.4,14.4-14.4,19.21c-1.6,16,6.4,30.41,22.4,43.21,4.8,3.2,11.21,4.8,16,6.39,6.41,0,11.2-1.59,16-8s6.41-14.4,4.8-24q0-12-9.6-24l-14.41-11.2Zm-27.19,35.2c-4.81-12.8-3.21-20.8,0-27.2,6.39-3.2,9.59-6.4,14.39-6.4l17.62,6.4,12.8,16,3.2,17.6c0,8-1.61,12.8-6.41,17.6l-8,3.21L374,358.76l-12.81-9.59c-4.79-4.81-8-8-9.59-14.42Z" transform="translate(-52.34 -20.86)"/><path class="be4499d9-5388-475a-8050-2172b92bd4fc" d="M351.63,307.55c-3.21,6.4-4.81,14.4,0,27.2,1.59,6.41,4.8,9.61,9.59,14.42L374,358.76l11.2,3.21,8-3.21c4.8-4.8,6.41-9.59,6.41-17.6l-3.2-17.6-12.8-16L366,301.15c-4.8,0-8,3.2-14.39,6.4Zm24,14.4,4.8-6.39,4.8,4.79,4.8,11.21v12.8l-3.2,4.81-6.4-3.21c-1.61-3.2-3.2-6.4-3.2-11.21l-1.6-12.8Z" transform="translate(-52.34 -20.86)"/><path d="M380.43,315.56l-4.8,6.39,1.6,12.8c0,4.81,1.59,8,3.2,11.21l6.4,3.21,3.2-4.81v-12.8l-4.8-11.21-4.8-4.79Z" transform="translate(-52.34 -20.86)"/><path class="ed4d0028-be7a-4c5a-9cc3-f9c3ea515b30" d="M415.65,213.12c-6.41,19.21-20.82,32-43.22,36.81L342,254.74l-156.85-3.2-1.59,17.6,24,17.61H452.44V256.33c-20.79,0-33.61-14.4-36.79-43.21ZM305.21,275.54c-3.21-1.6-6.41-4.79-6.41-6.4l6.41-8,14.41-3.19,16,3.19,6.4,8-6.4,6.4-16,3.21-14.41-3.21Zm-92.83,0-6.4-6.4,6.4-8,14.4-3.19,16,3.19,4.82,8-4.82,6.4-16,3.21-14.4-3.21Zm188.86-14.41,14.41-3.19,16,3.19,6.39,8c0,1.61-3.2,4.8-6.39,6.4l-16,3.21-14.41-3.21c-4.8-1.6-6.41-4.79-6.41-6.4l6.41-8Z" transform="translate(-52.34 -20.86)"/><path d="M298.8,269.14c0,1.61,3.2,4.8,6.41,6.4l14.41,3.21,16-3.21,6.4-6.4-6.4-8-16-3.19-14.41,3.19-6.41,8Zm4.81,0,4.8-4.8,11.21-3.21,12.8,3.21,4.8,4.8-4.8,4.8-12.8,1.6-11.21-1.6c-3.2-1.6-4.8-3.19-4.8-4.8Z" transform="translate(-52.34 -20.86)"/><path class="b7e32df5-8bcf-4f8e-870a-3e8e12f436d4" d="M308.41,264.34l-4.8,4.8c0,1.61,1.6,3.2,4.8,4.8l11.21,1.6,12.8-1.6,4.8-4.8-4.8-4.8-12.8-3.21-11.21,3.21Z" transform="translate(-52.34 -20.86)"/><path d="M206,269.14l6.4,6.4,14.4,3.21,16-3.21,4.82-6.4-4.82-8-16-3.19-14.4,3.19-6.4,8Zm4.79,0,4.82-4.8,11.19-3.21,12.82,3.21,4.79,4.8-4.79,4.8-12.82,1.6-11.19-1.6c-3.21-1.6-4.82-3.19-4.82-4.8Z" transform="translate(-52.34 -20.86)"/><path class="b7e32df5-8bcf-4f8e-870a-3e8e12f436d4" d="M215.59,264.34l-4.82,4.8c0,1.61,1.61,3.2,4.82,4.8l11.19,1.6,12.82-1.6,4.79-4.8-4.79-4.8-12.82-3.21-11.19,3.21Z" transform="translate(-52.34 -20.86)"/><path d="M415.65,257.94l-14.41,3.19-6.41,8c0,1.61,1.61,4.8,6.41,6.4l14.41,3.21,16-3.21c3.19-1.6,6.39-4.79,6.39-6.4l-6.39-8-16-3.19Zm0,17.6-11.21-1.6c-3.2-1.6-4.8-3.19-4.8-4.8l4.8-4.8,11.21-3.21,12.8,3.21,4.8,4.8-4.8,4.8-12.8,1.6Z" transform="translate(-52.34 -20.86)"/><path class="b7e32df5-8bcf-4f8e-870a-3e8e12f436d4" d="M404.44,273.94l11.21,1.6,12.8-1.6,4.8-4.8-4.8-4.8-12.8-3.21-11.21,3.21-4.8,4.8c0,1.61,1.6,3.2,4.8,4.8Z" transform="translate(-52.34 -20.86)"/><path class="f59bffb9-b62e-49c5-bb03-6890497438a7" d="M468.44,336.36l-9.59,8-3.19,4.81L449.25,354l-3.2,1.61-3.21,4.8c9.6-6.41,19.21-8,27.22-6.41l20.8-22.4-22.42,4.8Z" transform="translate(-52.34 -20.86)"/><path class="f59bffb9-b62e-49c5-bb03-6890497438a7" d="M375.63,453.19c-4.81-8-9.61-16-9.61-25.6-33.6,0-62.41-11.21-86.41-30.42L286,408.38l1.61,9.61-1.61,1.6h-3.2c-8-3.21-14.4-9.6-22.4-17.6l-12.8-24-4.82,25.61-1.59,3.19-3.2,1.61-6.4-8-3.2-8L222,365.17c-8,8-19.21,11.2-30.4,12.8s-22.41,0-32-6.4a108,108,0,0,1-22.41-24c-4.8-9.61-8-19.21-8-30.41L74.73,314l84.84,60.82L254,456.39c22.41,20.81,33.62,40,38.42,56h76.82c3.2-14.39,12.8-28.8,27.21-41.62Z" transform="translate(-52.34 -20.86)"/><polygon class="a0460c07-47c4-4c17-bbdc-6732fbe55a34" points="432.12 587.58 443.33 573.18 446.52 573.18 443.33 584.37 435.33 595.58 424.11 587.58 420.92 592.37 420.92 597.19 440.12 601.97 460.93 574.77 446.52 565.18 480.13 537.95 427.33 539.56 432.12 558.77 416.11 557.18 403.32 558.77 433.72 576.37 416.11 573.18 432.12 587.58 432.12 587.58"/><path class="a0460c07-47c4-4c17-bbdc-6732fbe55a34" d="M447.66,582.82c-1.61,3.22,0,6.41,0,11.22l4.78,9.6,8-8-4.78-3.21v-3.2h1.59l-9.59-6.41Z" transform="translate(-52.34 -20.86)"/><polygon class="a0460c07-47c4-4c17-bbdc-6732fbe55a34" points="416.11 595.58 417.72 589.18 419.33 584.37 411.33 576.37 404.92 587.58 416.11 595.58 416.11 595.58"/></svg>