<svg id="ba96ed49-211e-46b0-887f-ba58bdb727c0" data-name="b313ba69-ee38-4850-be61-3cc1fc4b9c4c" xmlns="http://www.w3.org/2000/svg" viewBox="0 0 497.72 709.13"><defs><style>.b39ed16a-850b-4d2a-b71b-6a532a02da13{fill:#fff;}.b80725de-9b99-42ee-a0a8-bbf205365d2c{fill:#03443b;}.a21776c3-6e4f-4e9b-9384-2ee4e557d4cf{fill:#d2a973;}.b9934720-bc2f-4ac0-913e-2e5f68825bc8{fill:#afc6b0;}.fd5dafea-f194-438c-8891-4088368dc668{fill:#4c23e0;}.ae8d8401-8a72-4e03-a717-1920650d6fef{fill:#67524d;}</style></defs><path class="b39ed16a-850b-4d2a-b71b-6a532a02da13" d="M497.74,531.56H480.12a195.43,195.43,0,0,0,12.82-52.81c1.59-19.21,0-38.42-6.41-52.83v-4.78c1.59-1.61,4.82-1.61,9.6,3.19,1.61-4.8,0-11.19-3.19-19.2l-12.82-17.61c-1.59-3.21-1.59-4.8,1.61-4.8l9.62,3.19c3.18-4.78-3.23-14.4-17.62-28.8l-36.81-32,8-14.4,1.6-8-33.61,8,3.19-16-6.39-11.21V182.66c0-52.81-1.61-86.43-4.8-99.23l-16-32-25.6-25.6C334.49,6.62,302.48-1.38,267.31.21L232.1,3.41l-33.65,11.2q-26.4,12-48,38.41c-16,17.61-24,33.61-25.6,48-3.2,35.2-3.2,83.22-1.59,144l-9.62-1.6h-11.2c-9.6,1.6-17.6,8-22.4,17.6q-4.8,12-4.8,28.81L0,283.43l60.79,49.71-.28.17a29.94,29.94,0,0,1,7.18,5.37l1.1-.74,6.41,4.81L36.8,363.55c-14.41,11.21-22.41,22.4-22.41,32l8-6.39,14.41-1.61-6.14,6.08.15.3a3,3,0,0,0,1.66.79c-.83.83-1.25,0-1.66-.79l-.25-.2-1.8,1.79-2,1.28-.43.28c-1.87,5.15-5.26,8.32-8.64,11.84-.34.44-.69.88-1,1.33L5.66,430a47.75,47.75,0,0,0-2.45,8.71L0,448.33l3.19,9.6,19.2-25.6a133.06,133.06,0,0,0-9.59,51.06,85.26,85.26,0,0,1,1.57,11.36h0a101.28,101.28,0,0,0,14.41,40l25.6,36.8L25.6,589.17l80,4.78,4.8,25.62,36.82-14.4L152,618l30.4-19.2-14.39-24,9.59-6.41-20.8-28.81-33.6,24c-3.21-12.8-6.41-24-8-38.4,0-14.41,3.19-25.62,6.4-38.42l.58-.16c.29-4.73,2.31-7.82,4.72-11.23l-.51.19c3.21-11.21,9.62-20.81,16-30.4A191.43,191.43,0,0,1,168,419.5l32,28.8-.78.29c1.67,1.89,4.25,3.32,6,5.14l1-.54c-1.57-2.91-3.25-4.38-6.39-4.38,3.14,0,4.82,1.47,6.39,4.38l.13-.07c24,27.19,28.82,49.61,17.61,72l-20.8,22.4-20.75,17.62h41.62l-104,144c41.6-9.53,73.6-27.14,97.6-52.74l-6.4,20.81,44.81-30.41,22.4-67.22,4.81,57.62,38.38,19.2-1.6-20.81,40,27.21q28.82,16.79,57.62,24l-46.41-59.22c-19.21-24-30.42-44.81-36.82-60.82h40c-14.4-11.2-25.6-22.41-33.61-36.82-9.59-14.39-12.8-24-12.8-32,1.6-9.59,4.8-19.19,9.6-25.6l19.21-20.8,49.61-3.21,8,12.82c11.21,27.2,17.6,49.61,20.82,70.41H417.72l4.79,20.81-16-1.6c-6.41,1.6-11.19,4.8-16,8-1.59,1.6-1.59,4.8-1.59,8l1.59,11.2c4.82,9.61,11.21,17.61,20.82,22.41s19.19,8,30.4,8l28.8-35.24-12.8-8ZM416.1,315.5l22.42-4.8-20.8,22.44c-8-1.6-17.62,0-27.22,6.41l3.21-4.8,3.2-1.61,6.41-4.79,3.19-4.81Zm-6.39-27.21c3.2,4.8,3.2,9.6,1.61,14.41l-6.41,14.44c-6.41,11.21-12.81,14.4-19.21,14.4l-4.79-1.6-1.6-4.8c-3.2-8-1.61-14.4,0-20.8l12.79-16,9.61-3.2ZM131.24,205.07v-56l1.59-32,6.41-22.4L145.66,77l8-11.2,8-11.21,11.2-11.2h1.6c9.61-9.6,22.41-17.6,36.82-24l17.6-4.8,33.61-4.8-1.6-1.61,20.77,1.6,11.21,1.6,17.6,3.2,22.41,8,40,25.61,12.78,14.41,12.8,35.21,1.6,24v62.41l1.61,44.81q-12-2.4-19.21-9.6-12-12-19.19-43.22a52.87,52.87,0,0,1-11.21,25.62c-6.41,9.6-14.41,16-22.41,17.6l-46.41,8-152-1.59Zm1.59,25.61,156.83,3.2,30.41-4.81c22.4-4.8,36.81-17.6,43.22-36.81,3.18,28.81,16,43.21,36.79,43.21v30.42H155.25l-24-17.61Zm-48,46.41,6.41-16c3.18-8,8-11.19,16-11.19l22.4,6.39,17.6,12.85,12.8,11.2,11.21,11.2-1.61,48c-9.6,6.39-19.21,9.6-30.4,11.2-9.61,1.6-19.21,0-28.82-6.4-11.19-8-17.6-17.6-22.4-28.81-3.2-12.83-4.8-24-3.2-38.39Zm36.83,294.48,33.62-24,12.77,17.57-12.8,8-4.82-9.61h-3.19l12.8,32,3.21-3.2-4.82-12.8,3.21-3.21,11.2,19.21-17.59,12.8-6.41-11.19-33.61,12.79-3.2-22.4-68.82-3.21,67.21-46.41,3.2,17.61ZM248.1,642,227.3,659.6l8-32c-19.21,24-51.22,48-92.84,67.22,40-49.61,72-92.84,92.84-129.63h41.61Zm104-22.39,38.4,48c-9.59-3.2-25.6-11.2-43.2-22.4l-41.64-30.4,4.8,28.8-19.2-11.2-4.79-67.25h38.42Zm-17.61-75.23,11.17,12.78H206.45l12.82-12.82,14.39-17.56,57.62,1.6,8,14.41,4.8-12.82,22.39,1.61Zm-35.2-12.8-11.21-35.21h22.4Zm16-35.21h1.6c0,11.21,1.59,19.21,6.4,28.82h-16Zm-24,27.21-56-1.61c4.8-11.19,6.39-19.19,6.39-25.6h40Zm25.61-32H240.07c-4.8-16-16-35.21-38.42-56l-94.42-81.62-84.84-60.8,54.43,3.21c0,11.2,3.2,20.8,8,30.41a107.8,107.8,0,0,0,22.41,24c9.6,6.4,20.8,8,32,6.4s22.4-4.8,30.4-12.8l6.41,27.2,3.2,8,6.4,8,3.2-1.61,1.59-3.19,4.83-25.62,12.8,24c8,8,14.39,14.39,22.4,17.6h3.2l1.61-1.6-1.61-9.62-6.39-11.21c24,19.21,52.81,30.42,86.41,30.42,0,9.59,4.8,17.6,9.61,25.6l20.81,17.6c-14.44,12.82-24,27.21-27.21,41.62Zm107.21-65.63c-6.38,9.61-14.39,14.41-24,17.62l-36.79,3.2c-12.82-3.2-24-9.6-32-19.21-12.82-11.21-16-35.21-11.21-68.82l-33.64-1.58c-9.59-3.2-19.19-6.4-25.6-11.21-9.6-6.39-14.41-14.4-17.6-24-4.81-17.6-8-33.61-4.81-48h107.2l20.8,30.42,14.42-28.81h19.19v4.8l-16,9.6-9.61,16c-3.19,12.81-1.6,22.42,6.41,27.21l3.2,4.8-1.61,6.41v3.2l25.6-8c9.62-1.61,16,0,20.82,6.39l3.19,6.41-4.78-4.8-6.41-3.2-1.6,4.8v6.4l-8-8-9.61-3.2-3.21,4.8,1.6,4.8,12.81,14.4v-1.59l-9.59-16,12.78,6.4,11.23,8h1.59l-4.82-14.41,8,6.4,6.41,6.4,3.2,16-1.61,16c-6.39-4.8-12.78-8-22.39-8a35.07,35.07,0,0,0-22.4,3.2c-11.21,4.8-20.82,9.6-28.83,17.6l-20.78,27.17v1.61l27.21-27.22c9.6-6.4,20.81-12.79,30.42-16l19.19-1.59a24.39,24.39,0,0,1,16,6.41,50.4,50.4,0,0,1-14.38,27.18Zm-24,156.86-4.78-9.6c0-4.81-1.61-8,0-11.22l9.59,6.41h-1.59v3.2l4.78,3.21Zm17.62,6.41-1.62,6.39-11.19-8,6.41-11.21,8,8Zm43.21-14.41L440.12,602l-19.19-4.78v-4.81l3.18-4.8,11.23,8,8-11.21,3.18-11.24h-3.19l-11.22,14.4-16-14.4,17.62,3.19-30.4-17.6,12.77-1.59,16,1.59-4.78-19.21,52.79-1.6-33.59,27.22Z" transform="translate(-0.02 -0.01)"/><path class="b39ed16a-850b-4d2a-b71b-6a532a02da13" d="M32.51,394.72a3,3,0,0,1-1.66-.79C31.26,394.75,31.66,395.55,32.51,394.72Z" transform="translate(-0.02 -0.01)"/><path class="b39ed16a-850b-4d2a-b71b-6a532a02da13" d="M30.85,393.93l-.15-.3-.1.1Z" transform="translate(-0.02 -0.01)"/><path class="b80725de-9b99-42ee-a0a8-bbf205365d2c" d="M379.31,325.14l1.6,4.8,4.79,1.6c6.4,0,12.8-3.19,19.21-14.4l6.41-14.4c1.59-4.81,1.59-9.61-1.61-14.41l-8-3.2-9.61,3.2-12.79,16c-1.61,6.4-3.2,12.8,0,20.8Zm19.19-32,3.21,4.8v12.81L398.5,322c-3.18,3.2-4.79,4.81-6.4,4.81-1.6-1.61-3.19-3.21-3.19-6.41v-12.8l3.19-11.2Z" transform="translate(-0.02 -0.01)"/><path class="b39ed16a-850b-4d2a-b71b-6a532a02da13" d="M401.71,297.89l-3.21-4.8-6.4,3.21-3.19,11.2v12.8c0,3.2,1.59,4.8,3.19,6.41,1.61,0,3.22-1.61,6.4-4.81l3.21-11.2Z" transform="translate(-0.02 -0.01)"/><path d="M316.89,496.35h-1.6l-8,28.82h16C318.48,515.56,316.89,507.56,316.89,496.35Z" transform="translate(-0.02 -0.01)"/><polygon class="a21776c3-6e4f-4e9b-9384-2ee4e557d4cf" points="334.47 544.35 326.47 531.55 304.07 529.94 299.27 542.75 291.27 528.34 233.64 526.75 219.25 544.35 206.43 557.17 345.68 557.17 334.47 544.35 334.47 544.35"/><polygon class="b9934720-bc2f-4ac0-913e-2e5f68825bc8" points="288.07 496.33 299.27 531.55 310.46 496.33 288.07 496.33 288.07 496.33"/><path d="M241.66,496.35c0,6.41-1.59,14.41-6.39,25.6l56,1.61-9.61-27.21Z" transform="translate(-0.02 -0.01)"/><path d="M248.07,642l28.81-76.84H235.27c-20.82,36.79-52.83,80-92.84,129.63,41.62-19.21,73.63-43.21,92.84-67.22l-8,32,20.8-17.62Z" transform="translate(-0.02 -0.01)"/><path d="M286.47,565.14l4.81,67.21,19.2,11.2-4.8-28.8,41.62,30.41c17.6,11.2,33.61,19.2,43.2,22.4l-38.4-48-27.21-54.42Z" transform="translate(-0.02 -0.01)"/><path d="M147.24,563.57h3.19l4.82,9.61,12.8-8-12.8-17.61-33.62,24-8-16L110.43,538,43.21,584.37,112,587.58l3.2,22.4,33.61-12.79,6.41,11.19,17.59-12.8-11.18-19.21-3.21,3.21,4.82,12.8-3.21,3.2-12.8-32Z" transform="translate(-0.02 -0.01)"/><path d="M312.09,14.61h-1.61l-17.6-3.2-11.22-1.6,9.61,14.4c4.8,6.41,4.8,14.41,3.2,22.41-3.2,9.6-8,19.21-17.6,30.41a90.4,90.4,0,0,1-38.41,25.61c-19.19,8-36.81,11.2-54.41,9.59-20.8,0-35.21-6.39-44.81-17.59L132.83,117l-1.59,32,56,1.6q45.6,0,81.61-19.21L302.46,109c9.61-9.61,17.61-20.81,22.41-32,12.8-27.2,8-46.41-12.8-62.42Z" transform="translate(-0.02 -0.01)"/><path class="b9934720-bc2f-4ac0-913e-2e5f68825bc8" d="M310.48,14.61h1.61c20.8,16,25.6,35.22,12.8,62.42-4.8,11.2-12.8,22.4-22.41,32l-33.61,22.4q-36,19.2-81.61,19.21l-56-1.6v11.2l112-3.2c40-11.2,68.82-33.61,89.62-64a68.34,68.34,0,0,0,9.6-35.2c1.61-14.41-1.6-25.62-9.6-35.22l-22.41-8Z" transform="translate(-0.02 -0.01)"/><path class="b9934720-bc2f-4ac0-913e-2e5f68825bc8" d="M372.9,48.22h0c0,33.61,9.6,57.62,27.2,73.63l-1.6-24c-4.79-4.81-8-11.21-11.19-20.81l-1.65-14.41-12.8-14.41Z" transform="translate(-0.02 -0.01)"/><path d="M387.31,77c3.19,9.6,6.4,16,11.19,20.81L385.66,62.63,387.27,77Z" transform="translate(-0.02 -0.01)"/><path d="M240.07,29c3.2,6.4,1.59,12.81-3.21,20.82s-12.8,16-24,19.2l-30.42,3.19c-4.8-1.59-9.6-3.19-12.8-6.39-4.8-3.2-6.39-6.41-8-11.21l-8,11.21-8,11.2c4.8,12.81,16,19.2,33.62,22.4l35.2-1.59c11.21-1.61,20.82-6.41,30.42-11.21l24-19.21,14.41-24A27.75,27.75,0,0,0,278.48,21l-8-8-8-3.2-33.61,4.8L240.08,29Z" transform="translate(-0.02 -0.01)"/><path class="b9934720-bc2f-4ac0-913e-2e5f68825bc8" d="M236.86,49.83c4.8-8,6.41-14.42,3.21-20.82l-11.21-14.4-17.6,4.8q14.4,4.8,14.4,14.41c1.61,8-1.6,12.8-6.39,17.6a30.92,30.92,0,0,1-14.42,8L187.26,61c-4.82-1.6-9.62-1.6-12.82-4.8l-3.19-6.39c0-1.61,0-4.81,1.59-6.41h0l-11.18,11.2h0c1.61,4.8,3.2,8,8,11.21,3.2,3.2,8,4.8,12.8,6.39L212.88,69c11.2-3.2,19.21-11.2,24-19.2Z" transform="translate(-0.02 -0.01)"/><path class="b9934720-bc2f-4ac0-913e-2e5f68825bc8" d="M260.87,8.2l1.6,1.61,8,3.2,8,8a27.75,27.75,0,0,1,4.81,22.41l-14.41,24-24,19.21c-9.6,4.8-19.21,9.6-30.42,11.21l-35.2,1.59c-17.61-3.2-28.82-9.59-33.62-22.4h0l-6.39,17.61c9.6,11.2,24,17.59,44.81,17.59,17.6,1.61,35.22-1.59,54.41-9.59A90.38,90.38,0,0,0,276.88,77c9.59-11.2,14.4-20.81,17.6-30.41,1.6-8,1.6-16-3.2-22.41l-9.62-14.4L260.86,8.2Z" transform="translate(-0.02 -0.01)"/><path d="M172.84,43.42c-1.59,1.6-1.59,4.8-1.59,6.41l3.19,6.39c3.2,3.2,8,3.2,12.82,4.8l17.59-1.6a30.92,30.92,0,0,0,14.42-8c4.79-4.8,8-9.6,6.39-17.6q0-9.62-14.4-14.41c-14.41,6.41-27.21,14.41-36.82,24Z" transform="translate(-0.02 -0.01)"/><path d="M401.71,229.07l-1.61-44.81c-16-16-28.79-36.81-35.2-64a177.13,177.13,0,0,1-19.24,43.19c-11.2,16-22.4,27.21-38.4,32-24,9.61-51.22,14.41-84.84,14.41l-88-3.2-3.19-1.6v20.81l152,1.59,46.41-8c8-1.59,16-8,22.41-17.6a52.87,52.87,0,0,0,11.21-25.62q7.19,31.22,19.19,43.22,7.21,7.2,19.21,9.6Z" transform="translate(-0.02 -0.01)"/><polygon class="b39ed16a-850b-4d2a-b71b-6a532a02da13" points="132.82 205.05 131.22 205.05 134.41 206.65 132.82 205.05 132.82 205.05"/><path d="M372.9,48.22l-40-25.61c8,9.6,11.21,20.81,9.6,35.22A68.34,68.34,0,0,1,332.9,93c-20.8,30.41-49.61,52.82-89.62,64l-112,3.2v35.21l96,3.21q64.8-4.82,96-28.81a77.35,77.35,0,0,0,22.4-32l19.21-48c1.59,11.2,6.41,24,12.8,40a355.35,355.35,0,0,0,22.4,38.4v-46.4c-17.6-16-27.2-40-27.2-73.63Z" transform="translate(-0.02 -0.01)"/><path class="b9934720-bc2f-4ac0-913e-2e5f68825bc8" d="M377.66,129.85c-6.39-16-11.21-28.81-12.8-40l-19.21,48a77.35,77.35,0,0,1-22.4,32q-31.22,24-96,28.81l-96-3.21v9.61h1.59l1.6,1.6,88,3.2c33.62,0,60.83-4.8,84.84-14.41,16-4.8,27.2-16,38.4-32a176.8,176.8,0,0,0,19.21-43.21c6.41,27.21,19.21,48,35.2,64v-16a355.35,355.35,0,0,1-22.4-38.4Z" transform="translate(-0.02 -0.01)"/><path class="fd5dafea-f194-438c-8891-4088368dc668" d="M169.66,339.51l1.61-48-11.21-11.2-12.82-11.17-17.58-12.86-22.4-6.39c-8,0-12.82,3.19-16,11.19l-6.41,16c-1.6,14.4,0,25.61,3.2,38.41,4.8,11.21,11.21,20.81,22.4,28.81,9.61,6.4,19.21,8,28.82,6.4,11.19-1.6,20.8-4.81,30.4-11.2ZM155.27,320.3l-9.62,1.6-28.8-11.2,1.59,6.4,4.82,4.8,16,16v1.61l-14.41-9.61-9.6-12.8-1.61-9.6,3.21-1.61h4.81l28.8,12.81c3.21,0,3.21-3.2-3.19-12.81l-14.44-20.75c-6.41-6.4-12.8-12.8-19.21-16h-3.2l-3.19,1.6-4.81,24,1.61,24v1.6l-3.21-3.2c-4.8-20.8-3.2-36.81,3.21-48l6.39-3.2h8c11.21,6.4,20.82,16,28.82,30.41,8,9.59,9.6,17.59,8,24Z" transform="translate(-0.02 -0.01)"/><path class="b39ed16a-850b-4d2a-b71b-6a532a02da13" d="M145.66,321.9l9.62-1.6c1.59-6.41,0-14.41-8-24-8-14.41-17.61-24-28.82-30.41h-8l-6.39,3.2c-6.41,11.2-8,27.21-3.21,48l3.21,3.2v-1.6l-1.61-24,4.81-24,3.19-1.6h3.2c6.41,3.2,12.8,9.6,19.21,16l14.41,20.8c6.4,9.61,6.4,12.81,3.19,12.81l-28.81-12.81h-4.8l-3.2,1.61,1.61,9.6,9.6,12.8,14.41,9.61V337.9l-16-16-4.82-4.8-1.59-6.4,28.8,11.2Z" transform="translate(-0.02 -0.01)"/><path class="fd5dafea-f194-438c-8891-4088368dc668" d="M238.46,273.88c-3.19,14.41,0,30.42,4.81,48,3.19,9.6,8,17.61,17.6,24,6.41,4.81,16,8,25.6,11.21l33.62,1.6c-4.8,33.61-1.61,57.61,11.21,68.82,8,9.61,19.19,16,32,19.21l36.79-3.2c9.61-3.21,17.62-8,24-17.62a50.41,50.41,0,0,0,14.41-27.19,24.39,24.39,0,0,0-16-6.41l-19.19,1.59c-9.61,3.22-20.82,9.61-30.42,16l-27.23,27.25v-1.61l20.8-27.21c8-8,17.62-12.8,28.83-17.6a35.07,35.07,0,0,1,22.4-3.2c9.61,0,16,3.2,22.39,8l1.61-16-3.2-16-6.41-6.4-8-6.4,4.84,14.42h-1.59l-11.23-8-12.78-6.4,9.59,16v1.59l-12.81-14.4-1.6-4.8,3.21-4.8,9.61,3.2,8,8v-6.39l1.6-4.8,6.41,3.2,4.78,4.8-3.19-6.41c-4.81-6.39-11.2-8-20.82-6.39l-25.6,8v-3.2l1.61-6.41-3.2-4.8c-8-4.79-9.6-14.4-6.41-27.21l9.61-16,16-9.6v-4.8h-19.2l-14.42,28.81-20.83-30.45Zm36.82,43.26,4.8,4.8,3.2,6.41,16,14.4,20.8,6.4h0c-16,0-28.81-6.4-36.81-16-4.81-4.79-8-9.6-8-16Zm30.38-40,20.8,1.6,14.41,11.2q9.61,12,9.6,24,2.41,14.42-4.8,24c-4.8,6.41-9.59,8-16,8-4.8-1.59-11.21-3.19-16-6.39-16-12.8-24-27.21-22.4-43.21q0-4.81,14.4-19.21Z" transform="translate(-0.02 -0.01)"/><path class="b39ed16a-850b-4d2a-b71b-6a532a02da13" d="M280.08,321.9l-4.8-4.8c0,6.4,3.19,11.21,8,16,8,9.61,20.81,16,36.81,16h0l-20.8-6.4-16-14.4-3.2-6.41Z" transform="translate(-0.02 -0.01)"/><path class="b39ed16a-850b-4d2a-b71b-6a532a02da13" d="M326.48,278.69l-20.82-1.55q-14.4,14.4-14.4,19.21c-1.6,16,6.4,30.41,22.4,43.21,4.8,3.2,11.21,4.8,16,6.39,6.41,0,11.2-1.59,16-8s6.41-14.4,4.8-24q0-12-9.6-24l-14.41-11.2Zm-27.19,35.2c-4.81-12.8-3.21-20.8,0-27.2,6.39-3.2,9.59-6.4,14.39-6.4l17.62,6.4,12.8,16,3.2,17.6c0,8-1.61,12.8-6.41,17.6l-8,3.21-11.23-3.2-12.81-9.59c-4.79-4.81-8-8-9.59-14.42Z" transform="translate(-0.02 -0.01)"/><path class="b80725de-9b99-42ee-a0a8-bbf205365d2c" d="M299.29,286.69c-3.21,6.4-4.81,14.4,0,27.2,1.59,6.41,4.8,9.61,9.59,14.42l12.78,9.59,11.2,3.21,8-3.21c4.8-4.8,6.41-9.59,6.41-17.6l-3.2-17.6-12.8-16-17.61-6.41c-4.8,0-8,3.2-14.39,6.4Zm24,14.4,4.8-6.39,4.8,4.79,4.8,11.21v12.8l-3.2,4.81-6.4-3.21c-1.61-3.2-3.2-6.4-3.2-11.21l-1.6-12.8Z" transform="translate(-0.02 -0.01)"/><path class="b39ed16a-850b-4d2a-b71b-6a532a02da13" d="M328.09,294.7l-4.8,6.39,1.6,12.8c0,4.81,1.59,8,3.2,11.21l6.4,3.21,3.2-4.81V310.7l-4.8-11.21-4.8-4.79Z" transform="translate(-0.02 -0.01)"/><path class="ae8d8401-8a72-4e03-a717-1920650d6fef" d="M363.31,192.26c-6.41,19.21-20.82,32-43.22,36.81l-30.43,4.81-156.85-3.2-1.59,17.6,24,17.61H400.1V235.47C379.31,235.47,366.49,221.07,363.31,192.26ZM252.87,254.68c-3.21-1.6-6.41-4.79-6.41-6.4l6.41-8,14.41-3.19,16,3.19,6.4,8-6.4,6.4-16,3.21Zm-92.83,0-6.4-6.4,6.4-8,14.4-3.19,16,3.19,4.82,8-4.82,6.4-16,3.21ZM348.9,240.27l14.41-3.19,16,3.19,6.39,8c0,1.61-3.2,4.8-6.39,6.4l-16,3.21-14.41-3.21c-4.8-1.6-6.41-4.79-6.41-6.4Z" transform="translate(-0.02 -0.01)"/><path class="b39ed16a-850b-4d2a-b71b-6a532a02da13" d="M246.46,248.28c0,1.61,3.2,4.8,6.41,6.4l14.41,3.21,16-3.21,6.4-6.4-6.4-8-16-3.19-14.41,3.19Zm4.81,0,4.8-4.8,11.21-3.21,12.8,3.21,4.8,4.8-4.8,4.8-12.8,1.6-11.21-1.6C252.87,251.48,251.27,249.89,251.27,248.28Z" transform="translate(-0.02 -0.01)"/><path class="b9934720-bc2f-4ac0-913e-2e5f68825bc8" d="M256.07,243.48l-4.8,4.8c0,1.61,1.6,3.2,4.8,4.8l11.21,1.6,12.8-1.6,4.8-4.8-4.8-4.8-12.8-3.21Z" transform="translate(-0.02 -0.01)"/><path class="b39ed16a-850b-4d2a-b71b-6a532a02da13" d="M153.66,248.28l6.4,6.4,14.4,3.21,16-3.21,4.82-6.4-4.82-8-16-3.19-14.4,3.19Zm4.79,0,4.82-4.8,11.19-3.21,12.82,3.21,4.79,4.8-4.79,4.8-12.82,1.6-11.19-1.6c-3.21-1.6-4.82-3.19-4.82-4.8Z" transform="translate(-0.02 -0.01)"/><path class="b9934720-bc2f-4ac0-913e-2e5f68825bc8" d="M163.25,243.48l-4.82,4.8c0,1.61,1.61,3.2,4.82,4.8l11.19,1.6,12.82-1.6,4.79-4.8-4.79-4.8-12.82-3.21Z" transform="translate(-0.02 -0.01)"/><path class="b39ed16a-850b-4d2a-b71b-6a532a02da13" d="M363.31,237.08l-14.41,3.19-6.41,8c0,1.61,1.61,4.8,6.41,6.4l14.41,3.21,16-3.21c3.19-1.6,6.39-4.79,6.39-6.4l-6.39-8Zm0,17.6-11.21-1.6c-3.2-1.6-4.8-3.19-4.8-4.8l4.8-4.8,11.21-3.21,12.8,3.21,4.8,4.8-4.8,4.8Z" transform="translate(-0.02 -0.01)"/><path class="b9934720-bc2f-4ac0-913e-2e5f68825bc8" d="M352.1,253.08l11.21,1.6,12.8-1.6,4.8-4.8-4.8-4.8-12.8-3.21-11.21,3.21-4.8,4.8C347.3,249.89,348.9,251.48,352.1,253.08Z" transform="translate(-0.02 -0.01)"/><path class="a21776c3-6e4f-4e9b-9384-2ee4e557d4cf" d="M416.1,315.5l-9.59,8-3.19,4.81-6.41,4.83-3.2,1.61-3.21,4.8c9.6-6.41,19.21-8,27.22-6.41l20.8-22.4-22.42,4.8Z" transform="translate(-0.02 -0.01)"/><path class="a21776c3-6e4f-4e9b-9384-2ee4e557d4cf" d="M323.29,432.33c-4.81-8-9.61-16-9.61-25.6-33.6,0-62.41-11.21-86.41-30.42l6.39,11.21,1.61,9.61-1.61,1.6h-3.2c-8-3.21-14.4-9.6-22.4-17.6l-12.8-24-4.82,25.61-1.59,3.19-3.2,1.61-6.4-8-3.2-8-6.39-27.23c-8,8-19.21,11.2-30.4,12.8s-22.41,0-32-6.4a107.8,107.8,0,0,1-22.41-24c-4.8-9.61-8-19.21-8-30.41l-54.46-3.16L107.23,354l94.43,81.57c22.41,20.81,33.62,40,38.42,56H316.9c3.2-14.39,12.8-28.8,27.21-41.62Z" transform="translate(-0.02 -0.01)"/><polygon points="432.1 587.57 443.31 573.17 446.5 573.17 443.31 584.36 435.31 595.57 424.09 587.57 420.9 592.36 420.9 597.18 440.1 601.96 460.91 574.76 446.5 565.17 480.11 537.94 427.31 539.55 432.1 558.76 416.09 557.17 403.3 558.76 433.7 576.36 416.09 573.17 432.1 587.57 432.1 587.57"/><path d="M395.32,562c-1.61,3.22,0,6.41,0,11.22l4.78,9.6,8-8-4.78-3.21v-3.2h1.59L395.32,562Z" transform="translate(-0.02 -0.01)"/><polygon points="416.09 595.57 417.7 589.17 419.31 584.36 411.31 576.36 404.9 587.57 416.09 595.57 416.09 595.57"/></svg>