<svg id="ae993c56-1400-4798-a41d-a3627bc641b1" data-name="圖層 1" xmlns="http://www.w3.org/2000/svg" viewBox="0 0 1905.66 1788.12"><defs><style>.b317709e-b8b5-4631-bedd-04ba1d0ece26{fill:#999;}.a2b9311d-8cf0-4a48-b38b-acbde3f90d85{fill:#5c697f;}.aeb38fe9-074f-4a87-8a1c-4593b2d63a2c{fill:#a3ba2e;}.f99c3f52-86ce-4f91-ba24-03a7142a1267{fill:#6f5236;}.bfaaeed3-80cd-4a09-977c-aba7d16fa461{fill:#689fca;}.e4fd5b73-5f38-4d9f-8428-3e7f264b7ff5{fill:#c5548f;}.ea2c4bed-5157-4da1-a49a-616f74df3e74{fill:#f90;}.a15b256f-3574-46ad-beaf-fab3194652ad{fill:#fd9a52;}.e486114f-2a08-48f8-8674-eda8b2468516{fill:#fff;}.f176cf44-a148-45f3-befe-23d3f094cc18{fill:#fa343d;}</style></defs><path d="M915.46,226.77l28.13-16.1L1036.07,275l84.41,92.46c32.16,52.25,36.2,92.45,16.1,128.65l-40.21,44.21c-20.1,12.07-36.2,20.1-56.3,24.13L1016,492.09l-16.09,24.15-4,24.1-32.2-48.25c24.15-36.16,24.15-80.41-8-124.61C931.52,323.25,891.31,283,843.08,246.87l-88.44-56.3c4-12.06-4-28.14-24.14-44.21l-28.13-20.11-36.18-8c-24.13-4-44.23,8-48.25,32.15-4,12.07,0,28.15,16.09,40.21l32.16,20.1,52.26,12.07,32.15-24.13L863.18,279c36.18,28.15,64.33,56.3,84.43,92.46l20.11,48.25c4,24.13,0,44.23-12.06,64.33l-16.1-24.13c-16.07-20.1-16.07-20.1-12,0l16.08,52.26-104.54-80.4-12-4,4,8.05a541.66,541.66,0,0,1,52.28,84.41l-48.24-36.18,8,56.28-32.17-4a270,270,0,0,0-12-112.58c-12.06-36.18-28.16-68.34-44.22-92.48L702.37,279l-48.23-40.2,24.1,60.3c-20.1-24.1-48.25-44.21-84.41-68.35l-72.38-28.13-36.17-8,20.1,20.1c-28.15-20.1-60.31-32.17-100.51-40.2l-80.41-8c20.1-24.13,36.18-48.25,36.18-68.35l-4-20.11-8.05-8c-16.06-8-36.16,0-56.26,20.11l-32.18,64.35-52.27-56.3C187.75,78,167.65,70,147.55,70L131.49,82l-4,24.13c0,24.1,28.15,56.27,76.4,96.48-68.35-4-116.6,4-132.66,20.1L59.11,246.87l12.08,16.07C87.25,275,111.39,279,143.55,279h60.3l-24.12,44.23-12.08,52.28,16.1,28.13,24.11,4C224,395.63,232,383.55,240,367.48l16.08-52.26,84.43,120.61c-16.08,64.31-8,132.66,16.08,213.07-28.15-16.08-56.28-44.23-88.46-84.43L224,500.14l-16.09,4L191.8,520.24l-24.15,40.2-8,56.29V729.31L135.5,785.59l-24.11,48.25L95.3,890.12l4,16.08,4,8H203.85c24.11,8,40.2,28.13,60.31,48.23l92.46,148.76L429,1175.55c-72.36-12.06-124.62-4-148.75,28.15q-42.2,48.22-24.12,120.61l-80.41-24.15,16.1-56.26-56.3-28.15,4-44.21c0-16.1-12.07-28.15-24.12-40.2l-28.15-4-28.14,20.11C43,1171.54,31,1203.7,35,1247.94l20.1,100.51-16.08-4H18.91L6.84,1428.86l72.38-4h4l52.26,8,8.05-20.1,140.71-16.09c28.15,48.25,56.28,92.5,92.46,128.65L525.48,1650,421,1654v-8H360.64l-4-48.26c-8.05-28.11-16.08-48.21-24.11-52.25-12.07-12.06-28.15-20.11-40.2-16.06-16.1,0-32.18,12-44.25,36.16s-12.05,60.3,4,100.51c12.06,32.15,32.16,64.35,60.31,92.46l-12.07-4h-8l8,64.31,12.07,36.2,72.36-28.15,8.05,24.15,60.3-32.2-4-16.09,209.06-76.37c88.46,36.16,172.87,60.31,253.28,68.35l148.75-8c48.26-4,96.51-20.1,140.72-40.2l120.61-100.51c48.25-48.26,76.4-112.57,92.46-193l4-108.56-24.14-100.51L1623,1264c-32.15,8-48.25,24.14-60.3,40.19-4,8-4,20.11-4,24.15l16.06,16.06,52.25-8.05,56.31-32.16v48.26c0,32.15,12.05,60.3,24.1,76.4l28.16,16.06,20.09-8.05c12.06-12.06,12.06-32.16,12.06-60.3l-16.06-80.41,40.2,8,48.26,4,44.2-4,28.15-28.14-8-20.11c-12-8-24.11-12-48.25-20.1h-88.46l72.4-52.25c28.1-20.11,40.2-40.21,40.2-60.31l-12.1-12H1828l-44.21,32.15-44.2,32.16c-12.1-48.22-32.2-88.41-60.31-124.62l28.11,12-48.21-72.35c-32.2-36.18-72.4-64.33-116.61-84.43-36.19-16.08-76.4-24.13-116.6-28.15L1510.46,862l-16.09-8L1422,841.87l-112.56,8,12.06-12.07q6-12,0-12.05l-52.26-4-56.3,8-68.36-100.5c-24.1-40.21-40.2-76.39-52.25-112.58l-4-20.1-20.11,20.1c-16.1-20.1-24.14-32.16-24.14-40.21q30.15-6,60.3-24.11l48.26-48.25c8-12.07,12-32.17,12-56.28-4-24.12-8-44.22-20.11-68.35-44.2-72.36-108.51-132.66-197-176.89,8-20.1,0-40.21-20.1-60.31l-32.15-20.1-32.18-8-28.13,8L823,142.33c-4,16.08,0,32.18,16.07,52.28,16.1,12,28.16,20.1,40.21,24.11Zm12-64.34,8,32.18c-8,16.06-20.1,20.1-40.2,16.06l-36.2-16.06c-24.11-20.1-32.16-36.2-24.11-52.28,4-12.07,12.05-16.08,28.13-12.07l36.18,8.05Zm-16.09,792c20.1-28.15,56.3-48.25,108.55-64.33l92.46-20.1c-52.26,32.15-92.46,72.36-124.61,116.6-40.21,52.22-60.31,108.52-68.36,168.82-4,36.2,4,80.41,20.1,128.67l40.21,76.36-108.56-16.06c-24.11-64.35-40.2-128.66-40.2-189C835.05,1079,859.16,1010.73,911.42,954.45ZM698.35,138.31l32.15,24.12c8,8,8,20.11,4,28.14s-12.07,16.09-28.15,16.09l-40.2-8-24.13-16.07C634,170.46,630,158.41,630,150.36c4-12.05,12.07-20.1,28.15-20.1ZM517.43,464c8.05,32.17,8.05,68.33,4,100.51-8,52.26-16.07,88.45-24.12,112.56,32.15,40.2,48.25,72.38,48.25,92.48l-12.05,16.08-12.08,4c-28.13-4-56.28-16.08-84.43-40.2-24.1-28.15-44.2-56.28-60.3-88.46-20.1-48.23-28.15-92.46-24.11-144.71,0-56.31,20.1-104.56,48.24-144.76,16.07-16.06,32.17-24.11,52.27-16.06l36.16,24.11C505.38,395.63,513.43,423.76,517.43,464Zm44.23,884.49v-24.14l36.18,28.15ZM95.3,1143.39l20.1,8c4,4,8,12,12,16.1v32.11L83.24,1408.76l-64.33,8,8-64.31,48.25,12c-16.08-40.2-24.11-76.36-24.11-112.56-4-44.21,8-76.4,28.14-100.51ZM175.7,1252l-24.11,92.46-44.24-12.05,20.1-104.52Zm-72.36,112.56,4-28.15,44.24,12.09-8,24.11Zm0,4,40.21,8-12.06,48.24-40.2-8ZM971.72,556.42l-20.1-60.29,48.25,72.36,12-48.25c4,24.13,12.06,52.28,32.16,80.41l16.09,24.12,12.06,12.05,8-12.05c24.1,76.39,64.3,144.74,120.61,209.07l-64.31,24.1c-56.3,0-112.6,12.08-164.86,40.21-60.3,28.15-100.51,76.38-124.62,132.68C823,1075,815,1127.33,819,1183.6c4,20.1,4,40.2,8,60.3,8,32.16,16.08,64.35,32.16,100.51-44.21-8.05-112.56-32.16-205-68.35l-84.46-40.21-36.15-24.1,68.33,12-4,4v8l108.55,4L690.3,1252l8.05,4,16.09,4L827,1243.9v-4l-116.6,8.08,56.3-28.18H754.64L622,1227.84l32.18-8.08,8-8-128.63-8c44.2,0,84.41-8,116.56-24.15l56.3-52.22,12.06-44.24-4-68.35c-12.07-68.34-44.25-136.69-100.51-209,84.42,52.25,148.74,64.33,184.93,40.2,12-12,20.1-24.13,20.1-40.2s-4-36.18-12.06-52.26l-36.2-52.27-52.25-44.23c20.1-12.06,40.2-28.13,56.3-48.23,20.1-24.13,28.13-44.23,28.13-60.31l44.22,4h8V536.34l-4-28.15,60.31,52.25-8-24.1-44.23-80.41,100.51,88.44ZM951.62,1079c28.15-68.31,68.35-120.59,120.61-160.79,64.35-52.26,140.71-76.38,233.17-84.41L1233,878.05l116.61-24.11,108.56,8-52.3,8c-20.1,4-28.11,8-28.11,12.05l112.56,24.13c84.41,24.12,152.76,68.33,197,136.68l-40.2-20.1-16.06-8,12,12.08c44.21,48.22,76.4,104.52,84.41,172.83,68.36-56.26,112.61-76.36,132.71-72.32l4,8-16.09,20.09-108.52,84.42,20.1,4,68.31,4c20.11,4,44.25,8,60.31,20.1l12.09,8-20.1,12.09-144.75-4,12.05,56.26v72.39l-8,16.1-20.11-12.09-16.09-44.21c-4-20.1-8-44.21-4-68.36v-24.14l-64.35,40.21-48.26,8.08c-8,0-8,0-12-4,0-4,0-8,4-16.06q12-18.13,60.3-36.2l12.05-8L1635.08,1252c-76.37-20.1-164.82-28.15-261.33-24.11l-116.56,16.06L1176.78,1264H1221l164.82-20.11,4,32.16-96.51,92.5c-40.19,32.11-80.4,52.22-120.6,64.3l-92.46-4c-32.16-12.09-60.31-28.19-76.4-52.29-32.16-40.21-52.26-88.42-64.32-140.72Q921.49,1145.4,951.62,1079Zm442.24,365.88c-8,60.31-28.15,108.55-56.27,152.76-60.3,72.4-124.65,120.61-193,148.77L1020,1770.59H895.36c-80.41-12.09-156.81-32.2-225.17-64.35l-225.12,80.41L425,1670.08,642.06,1658l-80.4-8-116.59-84.45L336.51,1444.92q-48.22-60.32-60.3-120.61c-12-40.2-4-76.37,20.1-100.51,16.1-20.1,40.2-32.16,76.4-36.16l80.41,4,12.05,8,20.11,16.1,12.05,32.19,8.05,20.1-40.21,16.07c20.11,12.05,32.16,32.15,36.18,56.26l4,44.24c44.2,4.05,100.5,24.15,168.86,68.36l52.25-20.11,164.82,64.32,189,160.81,24.1,28.15-24.1-36.16-40.21-44.25-116.58-100.5c84.43,28.14,168.84,44.24,257.29,52.25l72.37,8-285.43-56.26q-78.39-18.13-217.12-84.46c-44.21-16-88.44-40.2-140.71-80.4-64.31-44.25-96.46-80.4-108.54-108.56,92.48,76.4,209,140.72,345.75,180.92l24.11,8-16.06-8c-72.37-32.16-152.78-68.32-229.16-116.61s-124.64-84.41-152.77-112.52l20.1,8,24.11,20.1c40.2,32.19,92.46,56.3,148.76,80.41l193,52.29,20.1,44.21,12,12h36.2l-4,20.1c-4,4,0,8,0,12.06,8,16.1,20.1,28.15,36.18,28.15h20.1l8.05-4,8-16.06v-12.06l-16.1-24.1H1024c28.14,24.1,56.3,36.16,88.45,40.2s64.35,0,96.51-16.1c64.3-28.15,124.61-80.4,180.91-148.75C1401.91,1344.41,1401.91,1396.67,1393.86,1444.92Zm-454.3-48.25-40.2-4c-4,0-8.05-4-12.05-8.05l-4-12-4-16.1,108.56,12.1,24.1,32.11-56.26-4,28.11,48.25-20.1,8c-12-4-20.08-8-28.11-20.11v-20.1ZM143.55,94.1c4-20.1,20.1-16.1,52.25,8l68.36,68.33h0l8-24.1,16.06-32.16,32.18-28.15q18.1-12.08,24.12,0v24.11l-24.12,40.2-16.08,16.1-8.05,8v4h12.06L433,202.64c48.23,12.07,80.41,28.13,108.54,44.23l12.07,8-4-8-24.1-32.16c72.36,36.16,128.66,72.36,168.86,116.57l8,12.07c4,0,4-4,4-12.07L686.29,279c36.18,32.15,64.31,76.4,84.41,124.64,20.11,44.22,28.16,88.43,32.18,128.63l-148.74,16.1c-52.28,20.1-92.48,44.23-128.66,80.41,12-16.08,16.08-48.25,16.08-92.46,4-48.25,0-88.46-8-112.58-20.1-56.28-48.25-88.44-88.46-96.49-20.1-4-36.2,4-56.3,28.15-16.06,16.06-32.15,40.21-44.21,64.31L248.06,283c-4-4-4-4-4,4L232,343.35q-12.08,48.27-36.2,48.23l-8.05-8-4-28.13c4-24.14,12.05-48.25,28.15-72.38l8-12.07v-4l-100.51-4c-32.17-4-44.23-8-44.23-20.1q0-12,36.2-24.12l120.61-4-48.25-48.25C151.59,138.31,139.52,110.16,143.55,94.1ZM746.6,564.47c4-8.05,0-12.06-8.05-16.08h56.3c0,12.05-8.05,28.13-28.15,52.26l-64.33,56.28L726.49,673l36.18,40.2,32.18,44.21c20.1,40.2,20.1,64.32-4,84.43-20.11,8-48.24,8-88.44,0L593.83,789.61l64.31,104.54c24.13,44.2,40.21,80.38,44.23,116.58l4,68.31c0,24.15-12,44.25-28.15,60.31s-44.21,28.19-72.36,40.2l-84.43,4c-56.28-8-104.53-36.16-148.74-88.46l-96.5-144.72c-12-24.12-28.15-36.17-56.28-44.22l-68.34-12.05,68.34-52.28,52.27-56.28c8-12.06,8-20.1,4-28.15C236,689.1,219.93,612.72,232,528.29l52.26,80.41c20.1,32.15,48.25,52.25,80.4,60.3l52.26,76.38,60.31,48.26,48.25,16.07c16.08,4,24.1,0,32.15-8,8-20.11,8-40.21-4-64.34-8-24.1-24.15-44.2-40.2-60.3l12.05-28.13,80.4-52.27,88.46-40.21,36.16,8.05c0,4-4,16.08-20.1,36.18L646.09,665c0,4,4,0,20.1-8.05,24.11-20.11,48.25-40.2,68.35-68.33ZM195.8,608.7l24.13,4L228,665l-16.06,8Zm72.36,156.79-64.31,76.38c-8-20.11-8-40.2,4-64.33S232,737.33,252.1,733.33Zm249.27,510.57,32.15,36.19,4,44.21,52.25,4,108.56,68.39-36.2,16.06-80.4-40.21q-48.24-24.07-84.41-24.14c4-36.16-8-72.32-32.18-96.46ZM171.7,1312.25l88.43,24.11,20.1,48.25-132.68,16.06Zm112.56,237.22c16.08-4,28.15-4,40.2,8,8.05,12.09,16.08,32.2,20.1,60.31l8.05,48.25,28.13,148.76-60.3,24.1-16.08-72.35,28.15,4c4,0,8-4,0-8.09l-24.14-28.11c-16.06-24.1-32.16-44.21-40.21-68.35-8-32.16-12.05-56.26-8-80.41C264.16,1569.57,272.2,1557.48,284.26,1549.47ZM441.05,1814.8l-44.23,20.1L360.64,1658h48.23Z" transform="translate(-6.84 -66.88)"/><path class="b317709e-b8b5-4631-bedd-04ba1d0ece26" d="M935.56,194.61l-8-32.18-28.15-24.12-36.18-8.05c-16.08-4-24.13,0-28.13,12.07-8,16.08,0,32.18,24.11,52.28l36.2,16.06C915.46,214.71,927.51,210.67,935.56,194.61Z" transform="translate(-6.84 -66.88)"/><path class="a2b9311d-8cf0-4a48-b38b-acbde3f90d85" d="M1020,890.12c-52.25,16.08-88.45,36.18-108.55,64.33-52.26,56.28-76.37,124.59-80.41,201,0,60.31,16.09,124.62,40.2,189l108.56,16.06-40.21-76.36c-16.07-48.26-24.1-92.47-20.1-128.67,8-60.3,28.15-116.6,68.36-168.82,32.15-44.24,72.35-84.45,124.61-116.6Z" transform="translate(-6.84 -66.88)"/><path class="b317709e-b8b5-4631-bedd-04ba1d0ece26" d="M730.5,162.43l-32.15-24.12-40.21-8.05c-16.08,0-24.11,8.05-28.15,20.1,0,8,4,20.1,12.07,32.18l24.13,16.07,40.2,8c16.08,0,24.11-8,28.15-16.09S738.55,170.46,730.5,162.43Z" transform="translate(-6.84 -66.88)"/><path class="aeb38fe9-074f-4a87-8a1c-4593b2d63a2c" d="M521.45,564.47c4-32.18,4-68.34-4-100.51-4-40.2-12-68.33-28.15-84.43l-36.16-24.11c-20.1-8.05-36.2,0-52.27,16.06-28.14,40.2-48.24,88.45-48.24,144.76-4,52.25,4,96.48,24.11,144.71,16.1,32.18,36.2,60.31,60.3,88.46,28.15,24.12,56.3,36.18,84.43,40.2l12.08-4,12.05-16.08c0-20.1-16.1-52.28-48.25-92.48C505.38,652.92,513.43,616.73,521.45,564.47Zm-120.6-80.41c4,0,12.07,12.07,12.07,32.18l4,40.18-4,36.2c0,16.08-8.05,24.11-12.07,24.11-8,0-16.08-20.1-16.08-56.29V512.19C388.77,492.09,396.82,484.06,400.85,484.06Zm32.17,201,44.21,32.15,12,16.1,4,16.08-16.09-4-20.11-12L437,705.18Z" transform="translate(-6.84 -66.88)"/><path d="M412.92,516.24c0-20.11-8.05-32.18-12.07-32.18s-12.08,8-16.08,28.13v48.25c0,36.19,8.05,56.29,16.08,56.29,4,0,12.07-8,12.07-24.11l4-36.2Z" transform="translate(-6.84 -66.88)"/><path d="M477.23,717.23,433,685.08l4,20.1,20.1,28.15,20.11,12,16.09,4-4-16.08Z" transform="translate(-6.84 -66.88)"/><path class="a2b9311d-8cf0-4a48-b38b-acbde3f90d85" d="M561.66,1324.31v24.14l36.18,4Z" transform="translate(-6.84 -66.88)"/><path class="f99c3f52-86ce-4f91-ba24-03a7142a1267" d="M115.4,1151.44l-20.1-8-16.08,8C59.11,1175.55,47,1207.74,51.08,1252c0,36.2,8,72.36,24.11,112.56l-48.25-12-8,64.31,64.33-8,44.21-209.11v-32.11C123.44,1163.49,119.42,1155.44,115.4,1151.44Z" transform="translate(-6.84 -66.88)"/><path class="bfaaeed3-80cd-4a09-977c-aba7d16fa461" d="M151.59,1344.41,175.7,1252l-48.25-24.11-20.1,104.52Z" transform="translate(-6.84 -66.88)"/><path class="bfaaeed3-80cd-4a09-977c-aba7d16fa461" d="M107.35,1336.36l-4,28.15,40.21,8,8-24.11Z" transform="translate(-6.84 -66.88)"/><path class="bfaaeed3-80cd-4a09-977c-aba7d16fa461" d="M143.55,1376.57l-40.21-8-12,48.21,40.2,8Z" transform="translate(-6.84 -66.88)"/><path class="e4fd5b73-5f38-4d9f-8428-3e7f264b7ff5" d="M690.3,1252l16.09-12.09-108.55-4v-8l4-4-68.33-12,36.15,24.1,84.46,40.21c92.46,36.19,160.81,60.3,205,68.35-16.08-36.16-24.11-68.35-32.16-100.51L714.44,1260l-16.09-4Z" transform="translate(-6.84 -66.88)"/><path class="e4fd5b73-5f38-4d9f-8428-3e7f264b7ff5" d="M951.62,496.13l20.1,60.29-12.05-12L859.16,455.93l44.23,80.41,8,24.1-60.31-52.25,4,28.15v16.07h-8l-44.22-4c0,16.08-8,36.18-28.13,60.31-16.1,20.1-36.2,36.17-56.3,48.23l52.25,44.23,36.2,52.27C815,769.51,819,789.61,819,805.69s-8.05,28.15-20.1,40.2c-36.19,24.13-100.51,12.05-184.93-40.2,56.26,72.36,88.44,140.71,100.51,209l4,68.35-12.06,44.24-56.3,52.22c-32.15,16.1-72.36,24.15-116.56,24.15l128.63,8-8,8L622,1227.84l132.68-8.08H766.7l-56.3,28.18,116.6-8.08v4c-4-20.1-4-40.2-8-60.3-4-56.27,4-108.56,28.14-152.77,24.11-56.3,64.32-104.53,124.62-132.68,52.26-28.13,108.56-40.21,164.86-40.21l64.31-24.1c-56.31-64.33-96.51-132.68-120.61-209.07l-8,12.05-12.06-12.05-16.09-24.12c-20.1-28.13-28.12-56.28-32.16-80.41l-12,48.25Z" transform="translate(-6.84 -66.88)"/><path class="e4fd5b73-5f38-4d9f-8428-3e7f264b7ff5" d="M1072.23,918.25c-52.26,40.2-92.46,92.48-120.61,160.79q-30.15,66.38-12.06,156.81c12.06,52.3,32.16,100.51,64.32,140.72,16.09,24.1,44.24,40.2,76.4,52.29l92.46,4c40.2-12.08,80.41-32.19,120.6-64.3l96.51-92.5-4-32.16L1221,1264h-44.21l80.41-20.11,116.56-16.06c96.51-4,185,4,261.33,24.11l16.09,12.06-12.05,8q-48.28,18.09-60.3,36.2c-4,8-4,12-4,16.06,4,4,4,4,12,4l48.26-8.08,64.35-40.21v24.14c-4,24.15,0,48.26,4,68.36l16.09,44.21,20.11,12.09,8-16.1v-72.39l-12.05-56.26,144.75,4,20.1-12.09-12.09-8c-16.06-12.09-40.2-16.09-60.31-20.1l-68.31-4-20.1-4,108.52-84.42,16.09-20.09-4-8c-20.1-4-64.35,16.06-132.71,72.32-8-68.31-40.2-124.61-84.41-172.83l-12-12.08,16.06,8,40.2,20.1c-44.21-68.35-112.56-112.56-197-136.68L1377.8,882.07c0-4,8-8,28.11-12.05l52.3-8-108.56-8L1233,878.05l72.36-44.21C1212.94,841.87,1136.58,866,1072.23,918.25Z" transform="translate(-6.84 -66.88)"/><path class="a2b9311d-8cf0-4a48-b38b-acbde3f90d85" d="M1337.59,1597.68c28.12-44.21,48.22-92.45,56.27-152.76,8.05-48.25,8.05-100.51-4-160.81-56.3,68.35-116.61,120.6-180.91,148.75-32.16,16.1-64.36,20.11-96.51,16.1s-60.31-16.1-88.45-40.2H979.77l16.1,24.1v12.06l-8,16.06-8.05,4h-20.1c-16.08,0-28.15-12-36.18-28.15,0-4-4-8,0-12.06l4-20.1h-36.2l-12-12-20.1-44.21-193-52.29c-56.3-24.11-108.56-48.22-148.76-80.41l-24.11-20.1-20.1-8c28.13,28.11,76.36,64.31,152.77,112.52s156.79,84.45,229.16,116.61l16.06,8-24.11-8c-136.7-40.2-253.27-104.52-345.75-180.92,12.08,28.16,44.23,64.31,108.54,108.56,52.27,40.2,96.5,64.35,140.71,80.4q138.72,66.39,217.12,84.46l285.43,56.26-72.37-8c-88.45-8-172.86-24.11-257.29-52.25l116.58,100.5,40.21,44.25,24.1,36.16-24.1-28.15-189-160.81-164.82-64.32L674.24,1453c-68.36-44.21-124.66-64.31-168.86-68.36l-4-44.24c-4-24.11-16.07-44.21-36.18-56.26L505.38,1268l-8.05-20.1-12.05-32.19-20.11-16.1-12.05-8-80.41-4c-36.2,4-60.3,16.06-76.4,36.16-24.11,24.14-32.15,60.31-20.1,100.51q12.07,60.3,60.3,120.61l108.56,120.61L561.66,1650l80.4,8L425,1670.08l20.1,116.57,225.12-80.41c68.36,32.15,144.76,52.26,225.17,64.35H1020l124.61-24.14C1212.94,1718.29,1277.29,1670.08,1337.59,1597.68Z" transform="translate(-6.84 -66.88)"/><path class="ea2c4bed-5157-4da1-a49a-616f74df3e74" d="M899.36,1392.66l40.2,4-4,16.09v20.1c8,12.06,16.06,16.1,28.11,20.11l20.1-8-28.11-48.25,56.26,4-24.1-32.11-108.56-12.1,4,16.1,4,12C891.31,1388.66,895.36,1392.66,899.36,1392.66Z" transform="translate(-6.84 -66.88)"/><path class="e4fd5b73-5f38-4d9f-8428-3e7f264b7ff5" d="M195.8,102.13C163.65,78,147.55,74,143.55,94.1c-4,16.06,8,44.21,40.2,72.36L232,214.71l-120.61,4q-36.21,12.08-36.2,24.12c0,12.07,12.06,16.08,44.23,20.1l100.51,4v4l-8,12.07c-16.1,24.13-24.15,48.24-28.15,72.38l4,28.13,8.05,8q24.15,0,36.2-48.23l12.05-56.28c0-8.05,0-8.05,4-4l96.5,136.69c12.06-24.1,28.15-48.25,44.21-64.31,20.1-24.14,36.2-32.17,56.3-28.15,40.21,8.05,68.36,40.21,88.46,96.49,8,24.12,12.05,64.33,8,112.58,0,44.21-4,76.38-16.08,92.46,36.18-36.18,76.38-60.31,128.66-80.41l148.74-16.1c-4-40.2-12.07-84.41-32.18-128.63-20.1-48.24-48.23-92.49-84.41-124.64l20.1,52.26c0,8,0,12.07-4,12.07l-8-12.07c-40.2-44.21-96.5-80.41-168.86-116.57l24.1,32.16,4,8-12.07-8c-28.13-16.1-60.31-32.16-108.54-44.23L308.37,178.51H296.31v-4l8.05-8,16.08-16.1,24.12-40.2V86.05q-6-12.08-24.12,0L288.26,114.2,272.2,146.36l-8,24.1h0Z" transform="translate(-6.84 -66.88)"/><path class="a15b256f-3574-46ad-beaf-fab3194652ad" d="M738.55,548.39c8.05,4,12.05,8,8.05,16.08L734.54,588.6c-20.1,28.13-44.24,48.22-68.35,68.33-16.1,8.05-20.1,12.07-20.1,8.05l64.31-64.33c16.09-20.1,20.1-32.16,20.1-36.18l-36.16-8.05-88.46,40.21-80.4,52.27L513.43,677c16.05,16.1,32.15,36.2,40.2,60.3,12,24.13,12,44.23,4,64.34-8,8-16.07,12.07-32.15,8l-48.25-16.07-60.31-48.26L364.66,669c-32.15-8-60.3-28.15-80.4-60.3L232,528.29c-12.07,84.43,4,160.81,44.21,229.15,4,8,4,16.09-4,28.15l-52.27,56.28-68.34,52.28,68.34,12.05c28.13,8,44.23,20.1,56.28,44.22l96.5,144.72c44.21,52.3,92.46,80.41,148.74,88.46l84.43-4c28.15-12,56.28-24.11,72.36-40.2s28.15-36.16,28.15-60.31l-4-68.31c-4-36.2-20.1-72.38-44.23-116.58L593.83,789.61l108.54,52.26c40.2,8,68.33,8,88.44,0,24.14-20.11,24.14-44.23,4-84.43l-32.18-44.21L726.49,673l-24.12-16.1,64.33-56.28c20.1-24.13,28.15-40.21,28.15-52.26ZM617.94,608.7l48.25-8.05c4,4,4,12.07-4,20.1l-16.07,24.12L601.86,673c-12.07,8-16.08,8-12.07,8L609.89,661c24.14-20.1,40.2-36.18,40.2-44.22l-12.05-4-16.08,4C589.79,620.75,589.79,616.73,617.94,608.7ZM762.67,785.59l-20.1-28.15c-24.12-24.11-52.27-48.24-84.43-64.31h4c28.14,12,60.31,28.13,88.44,56.28l24.15,32.15,8,20.11c0,4-8,12.07-20.11,20.09l-32.17,4-16.06-4-4-4,36.2-4,24.1-12.07ZM601.86,725.28l8,8.05L622,757.44l-4,4-4-4-4-16.08-12-12.05Zm4-12c16.08,0,32.16,4,56.28,16.08,20.11,16.07,32.18,28.13,32.18,36.18,4,12-4,16.07-24.15,20.1l-32.15-4,20.1-4c8.05-4,12.05-4,16.1-8,0-8-8-16.08-20.1-28.15C634,725.28,622,717.23,605.88,713.23ZM565.68,669l4-4,8.05-12.06,4-16.1,4-8v16.07l-4,16.08-8,8Z" transform="translate(-6.84 -66.88)"/><path d="M666.19,600.65l-48.25,8.05c-28.15,8-28.15,12,4,8l16.08-4,12.05,4c0,8-16.06,24.12-40.2,44.22l-20.1,20.11c-4,0,0,0,12.07-8l44.23-28.16,16.07-24.12C670.19,612.72,670.19,604.67,666.19,600.65Z" transform="translate(-6.84 -66.88)"/><path d="M742.57,757.44l20.1,28.15,8,16.08-24.1,12.07-36.2,4,4,4,16.06,4,32.17-4c12.08-8,20.11-16.07,20.11-20.09l-8-20.11L750.6,749.41c-28.13-28.15-60.3-44.23-88.44-56.28h-4C690.3,709.2,718.45,733.33,742.57,757.44Z" transform="translate(-6.84 -66.88)"/><path d="M609.89,733.33l-8-8.05-4,4,12,12.05,4,16.08,4,4,4-4Z" transform="translate(-6.84 -66.88)"/><path d="M662.16,729.31C638,717.23,622,713.23,605.88,713.23c16.08,4,28.15,12,48.26,28.13,12.05,12.07,20.1,20.1,20.1,28.15-4,4-8,4-16.1,8l-20.1,4,32.15,4c20.11-4,28.16-8.05,24.15-20.1C694.34,757.44,682.27,745.38,662.16,729.31Z" transform="translate(-6.84 -66.88)"/><path d="M569.68,665l-4,4h8.05l8-8,4-16.08V628.8l-4,8-4,16.1Z" transform="translate(-6.84 -66.88)"/><path class="e486114f-2a08-48f8-8674-eda8b2468516" d="M219.93,612.72l-24.13-4L211.9,673,228,665Z" transform="translate(-6.84 -66.88)"/><path class="f176cf44-a148-45f3-befe-23d3f094cc18" d="M203.85,841.87l64.31-76.38L252.1,733.33c-20.1,4-32.17,20.1-44.24,44.21S195.8,821.76,203.85,841.87Z" transform="translate(-6.84 -66.88)"/><path class="a2b9311d-8cf0-4a48-b38b-acbde3f90d85" d="M549.58,1312.25l-32.15-36.19-36.18,8c24.13,24.14,36.18,60.3,32.18,96.46q36.15,0,84.41,24.14l80.4,40.21,36.2-16.06-108.56-68.39-52.25-4Z" transform="translate(-6.84 -66.88)"/><path class="a2b9311d-8cf0-4a48-b38b-acbde3f90d85" d="M260.13,1336.36l-88.43-24.11-24.15,88.42,132.68-16.06Z" transform="translate(-6.84 -66.88)"/><path class="f99c3f52-86ce-4f91-ba24-03a7142a1267" d="M324.46,1557.48c-12-12-24.12-12-40.2-8-12.06,8-20.1,20.1-24.13,36.16-4,24.15,0,48.25,8,80.41,8,24.14,24.15,44.25,40.21,68.35l24.14,28.11c8,4,4,8.09,0,8.09l-28.15-4,16.08,72.35,60.3-24.1L352.61,1666l-8.05-48.25C340.54,1589.68,332.51,1569.57,324.46,1557.48Z" transform="translate(-6.84 -66.88)"/><path class="bfaaeed3-80cd-4a09-977c-aba7d16fa461" d="M396.82,1834.9l44.23-20.1L408.87,1658H360.64Z" transform="translate(-6.84 -66.88)"/></svg>